<svg width="140" height="140" viewBox="0 0 140 140" fill="none" xmlns="http://www.w3.org/2000/svg">
<path d="M22.8357 46.2586C29.4317 46.2586 34.7788 40.9334 34.7788 34.3644C34.7788 27.7954 29.4317 22.4702 22.8357 22.4702C16.2397 22.4702 10.8926 27.7954 10.8926 34.3644C10.8926 40.9334 16.2397 46.2586 22.8357 46.2586Z" fill="#FF8710"/>
<path d="M65.2023 23.4253H43.231V45.3066H65.2023V23.4253Z" fill="#0669F7"/>
<path d="M85.5956 22L73.6284 45.8362H97.5628L85.5956 22Z" fill="#9225E8"/>
<path d="M123.487 23.1328H110.462L103.951 34.3647L110.462 45.5993H123.487L130.001 34.3647L123.487 23.1328Z" fill="#C6172B"/>
<path d="M85.5955 81.3963C92.1915 81.3963 97.5386 76.0711 97.5386 69.5021C97.5386 62.9331 92.1915 57.6079 85.5955 57.6079C78.9995 57.6079 73.6523 62.9331 73.6523 69.5021C73.6523 76.0711 78.9995 81.3963 85.5955 81.3963Z" fill="#51B239"/>
<path d="M27.0175 56.7197H18.6504V82.2848H27.0175V56.7197Z" fill="#0669F7"/>
<path d="M35.6704 73.6673V65.3345H10.0001V73.6673H35.6704Z" fill="#0669F7"/>
<path d="M58.3974 91.8569H50.0303V117.422H58.3974V91.8569Z" fill="#F9D70B"/>
<path d="M67.0507 100.472H41.3804V108.805H67.0507V100.472Z" fill="#F9D70B"/>
<path d="M48.0917 57.5229L42.1753 63.415L60.3267 81.4921L66.2431 75.6L48.0917 57.5229Z" fill="#C6172B"/>
<path d="M60.3268 57.5206L42.1753 75.5977L48.0917 81.4898L66.2432 63.4128L60.3268 57.5206Z" fill="#C6172B"/>
<path d="M85.5956 92.272L73.6284 116.111H97.5628L85.5956 92.272Z" fill="#FF8710"/>
<path d="M123.487 93.4048H110.462L103.951 104.639L110.462 115.871H123.487L130.001 104.639L123.487 93.4048Z" fill="#9225E8"/>
<path d="M16.7128 92.6596L10.7964 98.5518L28.9478 116.629L34.8642 110.737L16.7128 92.6596Z" fill="#51B239"/>
<path d="M28.9479 92.6573L10.7964 110.734L16.7128 116.627L34.8643 98.5495L28.9479 92.6573Z" fill="#51B239"/>
<path d="M116.866 57.1377L104.899 80.9739H128.833L116.866 57.1377Z" fill="#EECD4D"/>
</svg>
