<svg width="140" height="140" viewBox="0 0 140 140" fill="none" xmlns="http://www.w3.org/2000/svg">
<path d="M33.8567 42.6362C41.4912 42.6362 47.6802 36.4726 47.6802 28.8694C47.6802 21.2662 41.4912 15.1025 33.8567 15.1025C26.2222 15.1025 20.0332 21.2662 20.0332 28.8694C20.0332 36.4726 26.2222 42.6362 33.8567 42.6362Z" fill="#9225E8"/>
<path d="M82.8906 16.208H57.46V41.5344H82.8906V16.208Z" fill="#FF8710"/>
<path d="M106.498 55.2241L92.6436 82.8132H120.349L106.498 55.2241Z" fill="#51B239"/>
<path d="M63.0896 55.6684L56.2417 62.4883L77.2509 83.4114L84.0989 76.5916L63.0896 55.6684Z" fill="#0669F7"/>
<path d="M84.1013 62.4795L77.2534 55.6597L56.2442 76.5828L63.0921 83.4026L84.1013 62.4795Z" fill="#0669F7"/>
<path d="M38.6972 95.4097H29.0127V125H38.6972V95.4097Z" fill="#0669F7"/>
<path d="M48.7119 115.027V105.382H19.0001L19.0001 115.027H48.7119Z" fill="#0669F7"/>
<path d="M70.177 123.972C77.8115 123.972 84.0005 117.808 84.0005 110.205C84.0005 102.602 77.8115 96.438 70.177 96.438C62.5425 96.438 56.3535 102.602 56.3535 110.205C56.3535 117.808 62.5425 123.972 70.177 123.972Z" fill="#51B239"/>
<path d="M113.571 96.3352L92.562 117.258L99.4099 124.078L120.419 103.155L113.571 96.3352Z" fill="#FF8710"/>
<path d="M99.4099 96.3374L92.562 103.157L113.571 124.08L120.419 117.261L99.4099 96.3374Z" fill="#FF8710"/>
<path d="M46.5703 56.874H21.1396V82.2004H46.5703V56.874Z" fill="#F9D70B"/>
<path d="M99.4113 15.0025L92.5635 21.8223L113.573 42.7454L120.421 35.9256L99.4113 15.0025Z" fill="#C6172B"/>
<path d="M113.573 14.9997L92.5635 35.9229L99.4114 42.7427L120.421 21.8195L113.573 14.9997Z" fill="#C6172B"/>
</svg>
