<svg width="140" height="140" viewBox="0 0 140 140" fill="none" xmlns="http://www.w3.org/2000/svg">
<path d="M30.9655 62.6964C39.1706 62.6964 45.8221 56.0721 45.8221 47.9007C45.8221 39.7292 39.1706 33.105 30.9655 33.105C22.7604 33.105 16.1089 39.7292 16.1089 47.9007C16.1089 56.0721 22.7604 62.6964 30.9655 62.6964Z" fill="#FF8710"/>
<path d="M83.6681 34.2891H56.3369V61.5083H83.6681V34.2891Z" fill="#C6172B"/>
<path d="M109.035 76.2251L94.1489 105.876H123.922L109.035 76.2251Z" fill="#9225E8"/>
<path d="M36.168 75.7051H25.7598V107.507H36.168V75.7051Z" fill="#0669F7"/>
<path d="M46.9321 96.788V86.4224H14.9997L14.9997 96.788H46.9321Z" fill="#0669F7"/>
<path d="M62.3885 76.6988L55.0288 84.0283L77.6082 106.515L84.9679 99.1856L62.3885 76.6988Z" fill="#51B239"/>
<path d="M77.6106 76.6987L55.0312 99.1855L62.3909 106.515L84.9703 84.0282L77.6106 76.6987Z" fill="#51B239"/>
<path d="M114.239 32H103.831V63.8015H114.239V32Z" fill="#F9D70B"/>
<path d="M125 53.0814V42.7158L93.0676 42.7158V53.0814L125 53.0814Z" fill="#F9D70B"/>
</svg>
