<svg width="140" height="140" viewBox="0 0 140 140" fill="none" xmlns="http://www.w3.org/2000/svg">
<path d="M22.8348 46.2592C29.4308 46.2592 34.778 40.9339 34.778 34.3649C34.778 27.7959 29.4308 22.4707 22.8348 22.4707C16.2387 22.4707 10.8916 27.7959 10.8916 34.3649C10.8916 40.9339 16.2387 46.2592 22.8348 46.2592Z" fill="#FF8710"/>
<path d="M65.2017 23.4258H43.2302V45.3072H65.2017V23.4258Z" fill="#0669F7"/>
<path d="M85.5949 22L73.6277 45.8363H97.5622L85.5949 22Z" fill="#9225E8"/>
<path d="M123.486 23.1333H110.464L103.95 34.3653L110.464 45.5999H123.486L130 34.3653L123.486 23.1333Z" fill="#C6172B"/>
<path d="M85.595 81.3969C92.1911 81.3969 97.5382 76.0716 97.5382 69.5026C97.5382 62.9336 92.1911 57.6084 85.595 57.6084C78.999 57.6084 73.6519 62.9336 73.6519 69.5026C73.6519 76.0716 78.999 81.3969 85.595 81.3969Z" fill="#51B239"/>
<path d="M27.0195 56.7197H18.6523V82.2849H27.0195V56.7197Z" fill="#0669F7"/>
<path d="M35.6702 73.6693V65.3364H9.99978V73.6693H35.6702Z" fill="#0669F7"/>
<path d="M58.3969 91.8574H50.0298V117.423H58.3969V91.8574Z" fill="#F9D70B"/>
<path d="M67.0498 100.472H41.3794V108.805H67.0498V100.472Z" fill="#F9D70B"/>
<path d="M48.0902 57.5248L42.1738 63.417L60.3254 81.4941L66.2418 75.602L48.0902 57.5248Z" fill="#FF8710"/>
<path d="M60.3254 57.5225L42.1738 75.5996L48.0903 81.4918L66.2418 63.4147L60.3254 57.5225Z" fill="#FF8710"/>
<path d="M85.5949 92.2725L73.6277 116.111H97.5622L85.5949 92.2725Z" fill="#FF8710"/>
<path d="M123.486 93.4053H110.464L103.95 104.64L110.464 115.872H123.486L130 104.64L123.486 93.4053Z" fill="#9225E8"/>
<path d="M16.7128 92.6596L10.7964 98.5518L28.9479 116.629L34.8643 110.737L16.7128 92.6596Z" fill="#51B239"/>
<path d="M28.946 92.6592L10.7944 110.736L16.7109 116.629L34.8624 98.5514L28.946 92.6592Z" fill="#51B239"/>
<path d="M116.866 57.1377L104.898 80.974H128.836L116.866 57.1377Z" fill="#EECD4D"/>
</svg>
