<svg width="140" height="140" viewBox="0 0 140 140" fill="none" xmlns="http://www.w3.org/2000/svg">
<path d="M30.9655 62.6955C39.1703 62.6955 45.8217 56.0714 45.8217 47.9002C45.8217 39.729 39.1703 33.105 30.9655 33.105C22.7607 33.105 16.1094 39.729 16.1094 47.9002C16.1094 56.0714 22.7607 62.6955 30.9655 62.6955Z" fill="#FF8710"/>
<path d="M83.6668 34.293H56.3364V61.5113H83.6668V34.293Z" fill="#C6172B"/>
<path d="M109.034 76.2271L94.1475 105.877H123.92L109.034 76.2271Z" fill="#9225E8"/>
<path d="M36.1677 75.708H25.7598V107.509H36.1677V75.708Z" fill="#0669F7"/>
<path d="M46.9312 96.7891V86.4238H14.9997L14.9997 96.7891H46.9312Z" fill="#0669F7"/>
<path d="M62.3863 76.7029L55.0269 84.0322L77.6056 106.518L84.965 99.1891L62.3863 76.7029Z" fill="#51B239"/>
<path d="M77.6056 76.6999L55.0269 99.186L62.3863 106.515L84.965 84.0292L77.6056 76.6999Z" fill="#51B239"/>
<path d="M114.236 32H103.828V63.8005H114.236V32Z" fill="#F9D70B"/>
<path d="M125 53.083V42.7178L93.0681 42.7178V53.083L125 53.083Z" fill="#F9D70B"/>
</svg>
