<svg width="140" height="140" viewBox="0 0 140 140" fill="none" xmlns="http://www.w3.org/2000/svg">
<path d="M33.8565 42.6368C41.4909 42.6368 47.6798 36.4733 47.6798 28.8702C47.6798 21.2671 41.4909 15.1035 33.8565 15.1035C26.2221 15.1035 20.0332 21.2671 20.0332 28.8702C20.0332 36.4733 26.2221 42.6368 33.8565 42.6368Z" fill="#9225E8"/>
<path d="M82.8898 16.209H57.4595V41.5351H82.8898V16.209Z" fill="#FF8710"/>
<path d="M106.497 55.2246L92.6426 82.8133H120.348L106.497 55.2246Z" fill="#51B239"/>
<path d="M63.09 55.6685L56.2422 62.4883L77.2512 83.4111L84.099 76.5914L63.09 55.6685Z" fill="#0669F7"/>
<path d="M84.1017 62.4819L77.2539 55.6621L56.2449 76.585L63.0927 83.4047L84.1017 62.4819Z" fill="#0669F7"/>
<path d="M38.6966 95.4102H29.0122V125H38.6966V95.4102Z" fill="#0669F7"/>
<path d="M48.7114 115.027V105.382H18.9999L18.9999 115.027H48.7114Z" fill="#0669F7"/>
<path d="M70.1763 123.972C77.8108 123.972 83.9997 117.808 83.9997 110.205C83.9997 102.602 77.8108 96.4385 70.1763 96.4385C62.5419 96.4385 56.353 102.602 56.353 110.205C56.353 117.808 62.5419 123.972 70.1763 123.972Z" fill="#51B239"/>
<path d="M111.337 95.4102H101.653V125H111.337V95.4102Z" fill="#FF8710"/>
<path d="M121.353 105.381H91.6411V115.026H121.353V105.381Z" fill="#FF8710"/>
<path d="M46.57 56.8745H21.1396V82.2006H46.57V56.8745Z" fill="#F9D70B"/>
<path d="M99.4113 15.0025L92.5635 21.8223L113.572 42.7451L120.42 35.9254L99.4113 15.0025Z" fill="#C6172B"/>
<path d="M113.572 15L92.5635 35.9229L99.4113 42.7426L120.42 21.8197L113.572 15Z" fill="#C6172B"/>
</svg>
