<svg width="140" height="140" viewBox="0 0 140 140" fill="none" xmlns="http://www.w3.org/2000/svg">
<path d="M113.921 16.7681H98.866L91.3354 29.6651L98.866 42.559H113.921L121.451 29.6651L113.921 16.7681Z" fill="#9225E8"/>
<path d="M38.686 95.6519H29.0127V125H38.686V95.6519Z" fill="#9225E8"/>
<path d="M48.6875 115.107V105.542H19.01L19.01 115.107H48.6875Z" fill="#9225E8"/>
<path d="M38.6738 15H29.0005V44.348H38.6738V15Z" fill="#FF8710"/>
<path d="M48.6775 24.8921H19V34.458H48.6775V24.8921Z" fill="#FF8710"/>
<path d="M63.0529 15.9035L56.2129 22.6675L77.1979 43.4194L84.0379 36.6554L63.0529 15.9035Z" fill="#0669F7"/>
<path d="M84.0387 22.662L77.1987 15.8979L56.2137 36.6499L63.0537 43.4139L84.0387 22.662Z" fill="#0669F7"/>
<path d="M70.1206 96.1343L56.2822 123.498H83.9559L70.1206 96.1343Z" fill="#F9D70B"/>
<path d="M33.8387 55.7944L20.0034 83.1578H47.674L33.8387 55.7944Z" fill="#51B239"/>
<path d="M106.418 83.6282C114.044 83.6282 120.225 77.515 120.225 69.974C120.225 62.433 114.044 56.3198 106.418 56.3198C98.7922 56.3198 92.6104 62.433 92.6104 69.974C92.6104 77.515 98.7922 83.6282 106.418 83.6282Z" fill="#C6172B"/>
<path d="M82.8285 57.416H57.4272V82.5352H82.8285V57.416Z" fill="#FF8710"/>
<path d="M99.3307 96.5695L92.4907 103.333L113.476 124.085L120.316 117.321L99.3307 96.5695Z" fill="#51B239"/>
<path d="M113.474 96.5698L92.4888 117.322L99.3288 124.086L120.314 103.334L113.474 96.5698Z" fill="#51B239"/>
</svg>
