<svg width="140" height="140" viewBox="0 0 140 140" fill="none" xmlns="http://www.w3.org/2000/svg">
<path d="M116.835 33.394H100.509L92.3472 47.3741L100.509 61.3575H116.835L125 47.3741L116.835 33.394Z" fill="#51B239"/>
<path d="M74.5946 75.1982H64.1064V107.018H74.5946V75.1982Z" fill="#9225E8"/>
<path d="M85.4385 96.2936V85.9219H53.261V96.2936H85.4385Z" fill="#9225E8"/>
<path d="M101.016 76.1916L93.6001 83.5254L116.353 106.025L123.769 98.6916L101.016 76.1916Z" fill="#0669F7"/>
<path d="M116.353 76.1894L93.6001 98.6895L101.016 106.023L123.769 83.5232L116.353 76.1894Z" fill="#0669F7"/>
<path d="M30.0008 32L15 61.6684H45.0015L30.0008 32Z" fill="#F9D70B"/>
<path d="M69.3486 62.1776C77.6166 62.1776 84.3192 55.5495 84.3192 47.3732C84.3192 39.197 77.6166 32.5688 69.3486 32.5688C61.0805 32.5688 54.3779 39.197 54.3779 47.3732C54.3779 55.5495 61.0805 62.1776 69.3486 62.1776Z" fill="#C6172B"/>
<path d="M43.7832 77.4858H16.2422V104.721H43.7832V77.4858Z" fill="#FF8710"/>
</svg>
