<svg width="140" height="140" viewBox="0 0 140 140" fill="none" xmlns="http://www.w3.org/2000/svg">
<path d="M127.984 59.2393H106.05V80.93H127.984V59.2393Z" fill="#FF8710"/>
<path d="M16.9045 93.0434L10.998 98.8843L29.1188 116.804L35.0252 110.963L16.9045 93.0434Z" fill="#51B239"/>
<path d="M29.1168 93.0439L10.9961 110.963L16.9025 116.804L35.0232 98.8847L29.1168 93.0439Z" fill="#51B239"/>
<path d="M110.896 23.3945L104.99 29.2354L123.111 47.1549L129.017 41.3141L110.896 23.3945Z" fill="#0669F7"/>
<path d="M123.111 23.3924L104.99 41.312L110.896 47.1528L129.017 29.2333L123.111 23.3924Z" fill="#0669F7"/>
<path d="M89.8481 57.4121H81.4951V82.7544H89.8481V57.4121Z" fill="#0669F7"/>
<path d="M98.4862 65.9541H72.8594V74.2143H98.4862V65.9541Z" fill="#0669F7"/>
<path d="M58.521 92.248H50.168V117.59H58.521V92.248Z" fill="#F9D70B"/>
<path d="M67.1566 100.788H41.5298V109.048H67.1566V100.788Z" fill="#F9D70B"/>
<path d="M123.497 93.7827H110.497L103.994 104.919L110.497 116.053H123.497L130 104.919L123.497 93.7827Z" fill="#F9D70B"/>
<path d="M29.5054 24.1416H16.5027L10 35.2757L16.5027 46.4124H29.5054L36.0055 35.2757L29.5054 24.1416Z" fill="#9225E8"/>
<path d="M48.2311 23.3872L42.3247 29.228L60.4455 47.1476L66.3519 41.3067L48.2311 23.3872Z" fill="#C6172B"/>
<path d="M60.4455 23.3891L42.3247 41.3086L48.2311 47.1494L66.3519 29.2299L60.4455 23.3891Z" fill="#C6172B"/>
<path d="M85.6703 116.705C92.2551 116.705 97.5933 111.426 97.5933 104.914C97.5933 98.4023 92.2551 93.1235 85.6703 93.1235C79.0854 93.1235 73.7473 98.4023 73.7473 104.914C73.7473 111.426 79.0854 116.705 85.6703 116.705Z" fill="#C6172B"/>
<path d="M54.3431 81.8711C60.928 81.8711 66.2661 76.5923 66.2661 70.0806C66.2661 63.5689 60.928 58.29 54.3431 58.29C47.7582 58.29 42.4202 63.5689 42.4202 70.0806C42.4202 76.5923 47.7582 81.8711 54.3431 81.8711Z" fill="#51B239"/>
<path d="M22.8962 57.8311L10.9492 81.4596H34.8431L22.8962 57.8311Z" fill="#0669F7"/>
<path d="M85.67 23L73.7231 46.6286H97.617L85.67 23Z" fill="#9225E8"/>
</svg>
