<svg width="140" height="140" viewBox="0 0 140 140" fill="none" xmlns="http://www.w3.org/2000/svg">
<path d="M116.835 33.394H100.509L92.3472 47.3741L100.509 61.3575H116.835L125 47.3741L116.835 33.394Z" fill="#51B239"/>
<path d="M74.5946 75.1982H64.1064V107.018H74.5946V75.1982Z" fill="#9225E8"/>
<path d="M85.4375 96.2941V85.9224H53.26V96.2941H85.4375Z" fill="#9225E8"/>
<path d="M101.015 76.193L93.5986 83.5269L116.351 106.027L123.768 98.6931L101.015 76.193Z" fill="#0669F7"/>
<path d="M116.351 76.1904L93.5986 98.6904L101.015 106.024L123.768 83.5242L116.351 76.1904Z" fill="#0669F7"/>
<path d="M30.0008 32L15 61.6684H45.0015L30.0008 32Z" fill="#F9D70B"/>
<path d="M69.3486 62.1776C77.6166 62.1776 84.3192 55.5495 84.3192 47.3732C84.3192 39.197 77.6166 32.5688 69.3486 32.5688C61.0805 32.5688 54.3779 39.197 54.3779 47.3732C54.3779 55.5495 61.0805 62.1776 69.3486 62.1776Z" fill="#C6172B"/>
<path d="M43.7832 77.4858H16.2422V104.721H43.7832V77.4858Z" fill="#FF8710"/>
</svg>
