<svg width="140" height="140" viewBox="0 0 140 140" fill="none" xmlns="http://www.w3.org/2000/svg">
<path d="M127.988 59.2402H106.053V80.9314H127.988V59.2402Z" fill="#FF8710"/>
<path d="M16.9036 93.0458L10.9971 98.8867L29.1182 116.807L35.0247 110.966L16.9036 93.0458Z" fill="#51B239"/>
<path d="M29.1183 93.0434L10.9971 110.963L16.9036 116.804L35.0248 98.8844L29.1183 93.0434Z" fill="#51B239"/>
<path d="M110.899 23.3929L104.993 29.2339L123.114 47.1538L129.02 41.3129L110.899 23.3929Z" fill="#0669F7"/>
<path d="M123.114 23.3911L104.993 41.311L110.899 47.152L129.02 29.2321L123.114 23.3911Z" fill="#0669F7"/>
<path d="M89.8493 57.4131H81.4961V82.7559H89.8493V57.4131Z" fill="#0669F7"/>
<path d="M98.4854 65.9551H72.8579V74.2155H98.4854V65.9551Z" fill="#0669F7"/>
<path d="M58.5196 92.2495H50.1665V117.592H58.5196V92.2495Z" fill="#F9D70B"/>
<path d="M67.1582 100.79H41.5308V109.05H67.1582V100.79Z" fill="#F9D70B"/>
<path d="M123.5 93.7847H110.497L103.997 104.922L110.497 116.056H123.5L130 104.922L123.5 93.7847Z" fill="#F9D70B"/>
<path d="M29.5032 24.1416H16.5002L10 35.2759L16.5002 46.4128H29.5032L36.0061 35.2759L29.5032 24.1416Z" fill="#9225E8"/>
<path d="M48.2307 23.3871L42.3242 29.228L60.4454 47.148L66.3519 41.3071L48.2307 23.3871Z" fill="#C6172B"/>
<path d="M60.4474 23.3877L42.3262 41.3076L48.2327 47.1486L66.3539 29.2286L60.4474 23.3877Z" fill="#C6172B"/>
<path d="M85.6722 116.707C92.2572 116.707 97.5954 111.428 97.5954 104.916C97.5954 98.4044 92.2572 93.1255 85.6722 93.1255C79.0872 93.1255 73.749 98.4044 73.749 104.916C73.749 111.428 79.0872 116.707 85.6722 116.707Z" fill="#C6172B"/>
<path d="M54.3412 81.8721C60.9262 81.8721 66.2644 76.5932 66.2644 70.0813C66.2644 63.5695 60.9262 58.2905 54.3412 58.2905C47.7562 58.2905 42.418 63.5695 42.418 70.0813C42.418 76.5932 47.7562 81.8721 54.3412 81.8721Z" fill="#51B239"/>
<path d="M22.8935 57.8315L10.9463 81.4606H34.8407L22.8935 57.8315Z" fill="#0669F7"/>
<path d="M85.6721 23L73.7222 46.6291H97.6193L85.6721 23Z" fill="#9225E8"/>
</svg>
