<svg width="140" height="140" viewBox="0 0 140 140" fill="none" xmlns="http://www.w3.org/2000/svg">
<path d="M113.951 16.7827H98.7671L91.1768 29.7875L98.7671 42.7893H113.951L121.541 29.7875L113.951 16.7827Z" fill="#9225E8"/>
<path d="M40.7743 98.1182H25.5935L18 111.123L25.5935 124.125H40.7743L48.3678 111.123L40.7743 98.1182Z" fill="#9225E8"/>
<path d="M38.0754 15H28.3213V44.5933H38.0754V15Z" fill="#FF8710"/>
<path d="M48.1595 24.9751H18.2339V34.621H48.1595V24.9751Z" fill="#FF8710"/>
<path d="M62.6535 15.9133L55.7563 22.7339L76.9168 43.6593L83.8139 36.8388L62.6535 15.9133Z" fill="#0669F7"/>
<path d="M83.8146 22.7239L76.9175 15.9033L55.7571 36.8288L62.6542 43.6493L83.8146 22.7239Z" fill="#0669F7"/>
<path d="M69.7816 96.8125L55.8306 124.405H83.7325L69.7816 96.8125Z" fill="#F9D70B"/>
<path d="M33.1966 56.1353L19.2456 83.7274H47.1507L33.1966 56.1353Z" fill="#51B239"/>
<path d="M106.383 84.2022C114.072 84.2022 120.305 78.0379 120.305 70.4339C120.305 62.8298 114.072 56.6655 106.383 56.6655C98.6931 56.6655 92.4595 62.8298 92.4595 70.4339C92.4595 78.0379 98.6931 84.2022 106.383 84.2022Z" fill="#C6172B"/>
<path d="M82.5995 57.7705H56.9858V83.0997H82.5995V57.7705Z" fill="#FF8710"/>
<path d="M99.2361 97.2546L92.3389 104.075L113.499 125.001L120.396 118.18L99.2361 97.2546Z" fill="#51B239"/>
<path d="M113.499 97.2523L92.3389 118.178L99.236 124.998L120.396 104.073L113.499 97.2523Z" fill="#51B239"/>
</svg>
