<svg width="140" height="140" viewBox="0 0 140 140" fill="none" xmlns="http://www.w3.org/2000/svg">
<path d="M116.914 33.9165H100.749L92.6636 47.8746L100.749 61.8294H116.914L125 47.8746L116.914 33.9165Z" fill="#C6172B"/>
<path d="M36.1258 32H25.7393V63.7626H36.1258V32Z" fill="#FF8710"/>
<path d="M46.8657 53.0551V42.7021L14.9999 42.7021L14.9999 53.0551L46.8657 53.0551Z" fill="#FF8710"/>
<path d="M114.04 75.6455H103.654V107.408H114.04V75.6455Z" fill="#9225E8"/>
<path d="M124.782 96.7045V86.3516H92.916V96.7045H124.782Z" fill="#9225E8"/>
<path d="M62.2931 32.9925L54.9487 40.313L77.481 62.7723L84.8253 55.4518L62.2931 32.9925Z" fill="#F9D70B"/>
<path d="M77.481 32.9894L54.9487 55.4487L62.2931 62.7693L84.8253 40.31L77.481 32.9894Z" fill="#F9D70B"/>
<path d="M30.9209 76.1743L16.0654 105.792H45.7796L30.9209 76.1743Z" fill="#C6172B"/>
<path d="M69.8915 106.301C78.0795 106.301 84.7171 99.6846 84.7171 91.5232C84.7171 83.3618 78.0795 76.7456 69.8915 76.7456C61.7036 76.7456 55.0659 83.3618 55.0659 91.5232C55.0659 99.6846 61.7036 106.301 69.8915 106.301Z" fill="#51B239"/>
</svg>
