<svg width="140" height="140" viewBox="0 0 140 140" fill="none" xmlns="http://www.w3.org/2000/svg">
<path d="M127.985 59.1357H106.05V80.9995H127.985V59.1357Z" fill="#FF8710"/>
<path d="M96.6486 94.25H74.7139V116.114H96.6486V94.25Z" fill="#9225E8"/>
<path d="M79.563 58.0994L73.6565 63.9868L91.7777 82.0493L97.6842 76.1619L79.563 58.0994Z" fill="#51B239"/>
<path d="M91.7776 58.0977L73.6565 76.1602L79.563 82.0476L97.6842 63.9851L91.7776 58.0977Z" fill="#51B239"/>
<path d="M48.2322 93.2117L42.3257 99.0991L60.4469 117.162L66.3534 111.274L48.2322 93.2117Z" fill="#0669F7"/>
<path d="M60.4468 93.2095L42.3257 111.272L48.2322 117.159L66.3534 99.0969L60.4468 93.2095Z" fill="#0669F7"/>
<path d="M27.1862 57.2969H18.833V82.8413H27.1862V57.2969Z" fill="#0669F7"/>
<path d="M35.8247 65.9048H10.1973V74.2309H35.8247V65.9048Z" fill="#0669F7"/>
<path d="M121.183 92.4087H112.83V117.953H121.183V92.4087Z" fill="#F9D70B"/>
<path d="M129.822 101.016H104.194V109.342H129.822V101.016Z" fill="#F9D70B"/>
<path d="M123.5 23.7588H110.497L103.994 34.9843L110.497 46.2072H123.5L130 34.9843L123.5 23.7588Z" fill="#F9D70B"/>
<path d="M29.5032 93.9658H16.5001L10 105.189L16.5001 116.414H29.5032L36.0034 105.189L29.5032 93.9658Z" fill="#C6172B"/>
<path d="M16.8963 22.9998L10.9897 28.8872L29.1109 46.9497L35.0175 41.0623L16.8963 22.9998Z" fill="#C6172B"/>
<path d="M29.1128 23.0001L10.9917 41.0625L16.8982 46.9499L35.0194 28.8875L29.1128 23.0001Z" fill="#C6172B"/>
<path d="M54.3415 46.8527C60.9265 46.8527 66.2647 41.5318 66.2647 34.9681C66.2647 28.4044 60.9265 23.0835 54.3415 23.0835C47.7565 23.0835 42.4182 28.4044 42.4182 34.9681C42.4182 41.5318 47.7565 46.8527 54.3415 46.8527Z" fill="#FF8710"/>
<path d="M85.6694 46.8527C92.2544 46.8527 97.5926 41.5318 97.5926 34.9681C97.5926 28.4044 92.2544 23.0835 85.6694 23.0835C79.0844 23.0835 73.7461 28.4044 73.7461 34.9681C73.7461 41.5318 79.0844 46.8527 85.6694 46.8527Z" fill="#51B239"/>
<path d="M54.224 57.7168L42.2769 81.5338H66.1713L54.224 57.7168Z" fill="#9225E8"/>
</svg>
