<svg width="140" height="140" viewBox="0 0 140 140" fill="none" xmlns="http://www.w3.org/2000/svg">
<path d="M41.4079 16.7681H26.4683L19 29.6654L26.4683 42.5597H41.4079L48.8792 29.6654L41.4079 16.7681Z" fill="#0669F7"/>
<path d="M38.7608 95.6514H29.1636V125H38.7608V95.6514Z" fill="#C6172B"/>
<path d="M48.6865 115.109V105.543H19.2423V115.109H48.6865Z" fill="#C6172B"/>
<path d="M110.748 15H101.151V44.3488H110.748V15Z" fill="#FF8710"/>
<path d="M120.673 24.8896H91.229V34.4558H120.673V24.8896Z" fill="#FF8710"/>
<path d="M62.9351 56.2231L56.1489 62.9873L76.9689 83.7398L83.7551 76.9756L62.9351 56.2231Z" fill="#0669F7"/>
<path d="M83.7574 62.981L76.9712 56.2168L56.1512 76.9693L62.9374 83.7336L83.7574 62.981Z" fill="#0669F7"/>
<path d="M33.9516 55.793L20.2251 83.1601H47.6781L33.9516 55.793Z" fill="#51B239"/>
<path d="M105.96 83.63C113.526 83.63 119.659 77.5166 119.659 69.9754C119.659 62.4342 113.526 56.3208 105.96 56.3208C98.3945 56.3208 92.2612 62.4342 92.2612 69.9754C92.2612 77.5166 98.3945 83.63 105.96 83.63Z" fill="#F9D70B"/>
<path d="M69.9572 123.971C77.523 123.971 83.6562 117.858 83.6562 110.317C83.6562 102.775 77.523 96.6621 69.9572 96.6621C62.3915 96.6621 56.2583 102.775 56.2583 110.317C56.2583 117.858 62.3915 123.971 69.9572 123.971Z" fill="#51B239"/>
<path d="M118.559 97.7578H93.3579V122.878H118.559V97.7578Z" fill="#FF8710"/>
<path d="M82.5565 17.0947H57.355V42.2146H82.5565V17.0947Z" fill="#9225E8"/>
</svg>
