<svg width="140" height="140" viewBox="0 0 140 140" fill="none" xmlns="http://www.w3.org/2000/svg">
<path d="M127.985 59.1372H106.05V81.0004H127.985V59.1372Z" fill="#FF8710"/>
<path d="M96.6496 94.2505H74.7153V116.114H96.6496V94.2505Z" fill="#9225E8"/>
<path d="M79.5626 58.1006L73.6562 63.9878L91.777 82.0499L97.6834 76.1626L79.5626 58.1006Z" fill="#51B239"/>
<path d="M91.777 58.0981L73.6562 76.1602L79.5627 82.0474L97.6834 63.9853L91.777 58.0981Z" fill="#51B239"/>
<path d="M48.235 93.2099L42.3286 99.0972L60.4494 117.159L66.3557 111.272L48.235 93.2099Z" fill="#51B239"/>
<path d="M60.447 93.2099L42.3262 111.272L48.2326 117.159L66.3534 99.0972L60.447 93.2099Z" fill="#51B239"/>
<path d="M27.1889 57.2983H18.8359V82.8422H27.1889V57.2983Z" fill="#0669F7"/>
<path d="M35.8271 65.9058H10.2002V74.2317H35.8271V65.9058Z" fill="#0669F7"/>
<path d="M121.183 92.4092H112.83V117.953H121.183V92.4092Z" fill="#F9D70B"/>
<path d="M129.818 101.017H104.191V109.343H129.818V101.017Z" fill="#F9D70B"/>
<path d="M123.497 23.7603H110.495L103.995 34.9855L110.495 46.2081H123.497L130 34.9855L123.497 23.7603Z" fill="#F9D70B"/>
<path d="M29.5028 93.9663H16.5027L10 105.189L16.5027 116.414H29.5028L36.0055 105.189L29.5028 93.9663Z" fill="#C6172B"/>
<path d="M16.8995 23L10.9932 28.8872L29.1139 46.9493L35.0203 41.062L16.8995 23Z" fill="#C6172B"/>
<path d="M29.1154 22.9999L10.9946 41.062L16.901 46.9493L35.0218 28.8872L29.1154 22.9999Z" fill="#C6172B"/>
<path d="M54.3409 46.8541C60.9258 46.8541 66.2638 41.5333 66.2638 34.9698C66.2638 28.4062 60.9258 23.0854 54.3409 23.0854C47.756 23.0854 42.418 28.4062 42.418 34.9698C42.418 41.5333 47.756 46.8541 54.3409 46.8541Z" fill="#FF8710"/>
<path d="M85.67 46.8541C92.2549 46.8541 97.5929 41.5333 97.5929 34.9698C97.5929 28.4062 92.2549 23.0854 85.67 23.0854C79.0851 23.0854 73.7471 28.4062 73.7471 34.9698C73.7471 41.5333 79.0851 46.8541 85.67 46.8541Z" fill="#51B239"/>
<path d="M54.2258 57.7183L42.2788 81.5347H66.1727L54.2258 57.7183Z" fill="#9225E8"/>
</svg>
