<svg width="140" height="140" viewBox="0 0 140 140" fill="none" xmlns="http://www.w3.org/2000/svg">
<path d="M41.5948 15.8799H26.5326L19 28.8831L26.5326 41.8832H41.5948L49.1244 28.8831L41.5948 15.8799Z" fill="#0669F7"/>
<path d="M38.9265 95.4102H29.2505V125H38.9265V95.4102Z" fill="#C6172B"/>
<path d="M48.9316 115.03V105.385H19.2458L19.2458 115.03H48.9316Z" fill="#C6172B"/>
<path d="M63.2945 55.6607L56.4526 62.4805L77.4435 83.4033L84.2853 76.5836L63.2945 55.6607Z" fill="#0669F7"/>
<path d="M84.2877 62.4701L77.4458 55.6504L56.455 76.5732L63.2969 83.3929L84.2877 62.4701Z" fill="#0669F7"/>
<path d="M99.5939 15.0108L92.752 21.8306L113.743 42.7534L120.585 35.9337L99.5939 15.0108Z" fill="#FF8710"/>
<path d="M120.584 21.8197L113.742 15L92.7514 35.9228L99.5933 42.7426L120.584 21.8197Z" fill="#FF8710"/>
<path d="M34.0776 55.2251L20.2354 82.8168H47.9168L34.0776 55.2251Z" fill="#51B239"/>
<path d="M106.677 83.2906C114.304 83.2906 120.488 77.1271 120.488 69.524C120.488 61.9209 114.304 55.7573 106.677 55.7573C99.0488 55.7573 92.8652 61.9209 92.8652 69.524C92.8652 77.1271 99.0488 83.2906 106.677 83.2906Z" fill="#F9D70B"/>
<path d="M70.3788 123.962C78.0066 123.962 84.1901 117.799 84.1901 110.196C84.1901 102.593 78.0066 96.4292 70.3788 96.4292C62.751 96.4292 56.5674 102.593 56.5674 110.196C56.5674 117.799 62.751 123.962 70.3788 123.962Z" fill="#51B239"/>
<path d="M119.38 97.5347H93.9712V122.861H119.38V97.5347Z" fill="#FF8710"/>
<path d="M83.0817 16.209H57.6733V41.535H83.0817V16.209Z" fill="#9225E8"/>
</svg>
