<svg width="140" height="140" viewBox="0 0 140 140" fill="none" xmlns="http://www.w3.org/2000/svg">
<path d="M116.914 34.9165H100.746L92.6636 48.8745L100.746 62.8293H116.914L125 48.8745L116.914 34.9165Z" fill="#C6172B"/>
<path d="M36.1258 33H25.7393V64.7625H36.1258V33Z" fill="#FF8710"/>
<path d="M46.8657 54.055V43.7021L15 43.7021L15 54.055L46.8657 54.055Z" fill="#FF8710"/>
<path d="M62.2921 33.9935L54.9478 41.314L77.48 63.7732L84.8243 56.4527L62.2921 33.9935Z" fill="#F9D70B"/>
<path d="M77.48 33.991L54.9478 56.4502L62.2921 63.7707L84.8243 41.3115L77.48 33.991Z" fill="#F9D70B"/>
<path d="M101.246 77.639L93.9014 84.9595L116.434 107.419L123.778 100.098L101.246 77.639Z" fill="#9225E8"/>
<path d="M116.436 77.6394L93.9038 100.099L101.248 107.419L123.78 84.9599L116.436 77.6394Z" fill="#9225E8"/>
<path d="M30.9213 77.1743L16.0659 106.792H45.7767L30.9213 77.1743Z" fill="#C6172B"/>
<path d="M69.891 107.301C78.0789 107.301 84.7166 100.685 84.7166 92.5232C84.7166 84.3617 78.0789 77.7456 69.891 77.7456C61.7031 77.7456 55.0654 84.3617 55.0654 92.5232C55.0654 100.685 61.7031 107.301 69.891 107.301Z" fill="#51B239"/>
</svg>
