<svg width="190" height="190" viewBox="0 0 190 190" fill="none" xmlns="http://www.w3.org/2000/svg">
<path d="M159.288 101.642H130.41L115.971 126.598L130.41 151.555H159.288L173.726 126.598L159.288 101.642Z" fill="#22AEB4"/>
<path d="M159.288 134.087H130.41L115.971 159.043L130.41 184H159.288L173.726 159.043L159.288 134.087Z" fill="#CF8289"/>
<path d="M159.288 117.864H130.41L115.971 142.821L130.41 167.777H159.288L173.726 142.821L159.288 117.864Z" fill="#EECD4D"/>
<path d="M34.821 23.8762L44.0595 5L53.4555 23.7976L74.3028 26.7296L59.2895 41.4585L62.9369 62.1496L44.2597 52.4527L25.6679 62.3069L29.1381 41.5862L14 26.9884L34.821 23.8762Z" fill="#22AEB4"/>
<path d="M34.821 36.3089L44.0595 17.4326L53.4555 36.2302L74.3028 39.1622L59.2895 53.8911L62.9369 74.579L44.2597 64.882L25.6679 74.7395L29.1381 54.0189L14 39.4178L34.821 36.3089Z" fill="#EECD4D"/>
<path d="M34.821 48.7409L44.0595 29.8613L53.4555 48.6622L74.3028 51.5942L59.2895 66.3198L62.9369 87.0109L44.2597 77.314L25.6679 87.1682L29.1381 66.4476L14 51.8498L34.821 48.7409Z" fill="#CF8289"/>
<path d="M135.518 23.8762L144.753 5L154.153 23.7976L175 26.7296L159.987 41.4585L163.634 62.1496L144.957 52.4527L126.365 62.3069L129.835 41.5862L114.697 26.9884L135.518 23.8762Z" fill="#22AEB4"/>
<path d="M135.518 48.7409L144.753 29.8613L154.153 48.6622L175 51.5942L159.987 66.3198L163.634 87.0109L144.957 77.314L126.365 87.1682L129.835 66.4476L114.697 51.8498L135.518 48.7409Z" fill="#CF8289"/>
<path d="M135.518 36.3089L144.753 17.4326L154.153 36.2302L175 39.1622L159.987 53.8911L163.634 74.579L144.957 64.882L126.365 74.7395L129.835 54.0189L114.697 39.4178L135.518 36.3089Z" fill="#EECD4D"/>
<path d="M56.7977 126.968C56.7977 129.154 55.8554 131.24 53.9743 133.232C52.1325 134.834 50.2874 136.452 48.4456 138.09C47.0733 139.339 46.269 141.992 46.0359 146.051C45.9571 147.689 45.2512 148.508 43.9183 148.508C42.5066 148.508 41.8008 147.689 41.8008 146.051C41.8008 142.814 42.1127 140.531 42.743 139.204C43.2519 138.074 45.0937 136.102 48.2683 133.294C50.9342 130.952 52.2671 128.846 52.2671 126.975C52.2671 125.104 51.3446 123.64 49.5028 122.467C47.9335 121.412 46.072 120.888 43.9183 120.888C41.4101 120.888 39.2531 121.589 37.4507 122.995C35.6484 124.4 34.5879 126.254 34.2761 128.554C34.0791 130.077 33.5505 130.837 32.6871 130.837C31.1572 130.837 30.3955 129.979 30.3955 128.262C30.3955 125.101 31.7087 122.353 34.3351 120.01C36.804 117.825 39.9984 116.731 43.9183 116.731C47.3294 116.731 50.2874 117.648 52.7957 119.483C55.4615 121.435 56.7944 123.932 56.7944 126.975L56.7977 126.968ZM47.9794 157.517C47.9794 158.608 47.5855 159.545 46.8041 160.328C46.0195 161.107 45.0772 161.497 43.9807 161.497C42.8842 161.497 41.9813 161.107 41.1573 160.328C40.412 159.548 40.0411 158.611 40.0411 157.517C40.0411 156.423 40.412 155.489 41.1573 154.709C41.9813 153.93 42.9203 153.54 43.9807 153.54C45.0411 153.54 46.0195 153.93 46.8041 154.709C47.5888 155.489 47.9794 156.426 47.9794 157.517Z" fill="white"/>
</svg>
