<svg width="190" height="190" viewBox="0 0 190 190" fill="none" xmlns="http://www.w3.org/2000/svg">
<path d="M62.8408 58.915C62.8408 71.2997 52.7721 81.3358 40.3505 81.3358C27.9289 81.3358 17.8633 71.2967 17.8633 58.915C17.8633 46.5333 27.932 36.4941 40.3505 36.4941C52.7691 36.4941 62.8408 46.5333 62.8408 58.915Z" fill="#EAC445"/>
<path d="M62.8408 31.143C62.8408 43.5278 52.7721 53.5638 40.3505 53.5638C27.9289 53.5638 17.8633 43.5247 17.8633 31.143C17.8633 18.7613 27.932 8.72217 40.3505 8.72217C52.7691 8.72217 62.8408 18.7613 62.8408 31.143Z" fill="#1FA3A8"/>
<path d="M163.114 31.143C163.114 43.5278 153.046 53.5638 140.624 53.5638C128.202 53.5638 118.137 43.5247 118.137 31.143C118.137 18.7613 128.205 8.72217 140.624 8.72217C153.042 8.72217 163.114 18.7613 163.114 31.143Z" fill="#1FA3A8"/>
<path d="M163.114 45.3378C163.114 57.7226 153.046 67.7586 140.624 67.7586C128.202 67.7586 118.137 57.7195 118.137 45.3378C118.137 32.9561 128.205 22.917 140.624 22.917C153.042 22.917 163.114 32.9561 163.114 45.3378Z" fill="#C37A81"/>
<path d="M163.114 58.915C163.114 71.2997 153.046 81.3358 140.624 81.3358C128.202 81.3358 118.137 71.2967 118.137 58.915C118.137 46.5333 128.205 36.4941 140.624 36.4941C153.042 36.4941 163.114 46.5333 163.114 58.915Z" fill="#EAC445"/>
<path d="M142.999 149.717L114.998 121.801L142.999 93.8843L171 121.801L142.999 149.717Z" fill="#1FA3A8"/>
<path d="M142.999 165.141L114.998 137.225L142.999 109.308L171 137.225L142.999 165.141Z" fill="#C37A81"/>
<path d="M142.999 180.993L114.998 153.077L142.999 125.16L171 153.077L142.999 180.993Z" fill="#EAC445"/>
<path d="M62.8408 45.3378C62.8408 57.7226 52.7721 67.7586 40.3505 67.7586C27.9289 67.7586 17.8633 57.7195 17.8633 45.3378C17.8633 32.9561 27.932 22.917 40.3505 22.917C52.7691 22.917 62.8408 32.9561 62.8408 45.3378Z" fill="#C37A81"/>
<path d="M56.7977 126.968C56.7977 129.154 55.8554 131.24 53.9743 133.232C52.1325 134.834 50.2874 136.452 48.4456 138.09C47.0733 139.339 46.269 141.992 46.0359 146.051C45.9571 147.689 45.2512 148.508 43.9183 148.508C42.5066 148.508 41.8008 147.689 41.8008 146.051C41.8008 142.814 42.1127 140.531 42.743 139.204C43.2519 138.074 45.0937 136.102 48.2683 133.294C50.9342 130.952 52.2671 128.846 52.2671 126.975C52.2671 125.104 51.3446 123.64 49.5028 122.467C47.9335 121.412 46.072 120.888 43.9183 120.888C41.4101 120.888 39.2531 121.589 37.4507 122.995C35.6484 124.4 34.5879 126.254 34.2761 128.554C34.0791 130.077 33.5505 130.837 32.6871 130.837C31.1572 130.837 30.3955 129.979 30.3955 128.262C30.3955 125.101 31.7087 122.353 34.3351 120.01C36.804 117.825 39.9984 116.731 43.9183 116.731C47.3294 116.731 50.2874 117.648 52.7957 119.483C55.4615 121.435 56.7944 123.932 56.7944 126.975L56.7977 126.968ZM47.9794 157.517C47.9794 158.608 47.5855 159.545 46.8041 160.328C46.0195 161.107 45.0772 161.497 43.9807 161.497C42.8842 161.497 41.9813 161.107 41.1573 160.328C40.412 159.548 40.0411 158.611 40.0411 157.517C40.0411 156.423 40.412 155.489 41.1573 154.709C41.9813 153.93 42.9203 153.54 43.9807 153.54C45.0411 153.54 46.0195 153.93 46.8041 154.709C47.5888 155.489 47.9794 156.426 47.9794 157.517Z" fill="white"/>
</svg>
