<svg width="190" height="190" viewBox="0 0 190 190" fill="none" xmlns="http://www.w3.org/2000/svg">
<path d="M56.7977 126.968C56.7977 129.154 55.8554 131.24 53.9743 133.232C52.1325 134.834 50.2874 136.452 48.4456 138.09C47.0733 139.339 46.269 141.992 46.0359 146.051C45.9571 147.689 45.2512 148.508 43.9183 148.508C42.5066 148.508 41.8008 147.689 41.8008 146.051C41.8008 142.814 42.1127 140.531 42.743 139.204C43.2519 138.074 45.0937 136.102 48.2683 133.294C50.9342 130.952 52.2671 128.846 52.2671 126.975C52.2671 125.104 51.3446 123.64 49.5028 122.467C47.9335 121.412 46.072 120.888 43.9183 120.888C41.4101 120.888 39.2531 121.589 37.4507 122.995C35.6484 124.4 34.5879 126.254 34.2761 128.554C34.0791 130.077 33.5505 130.837 32.6871 130.837C31.1572 130.837 30.3955 129.979 30.3955 128.262C30.3955 125.101 31.7087 122.353 34.3351 120.01C36.804 117.825 39.9984 116.731 43.9183 116.731C47.3294 116.731 50.2874 117.648 52.7957 119.483C55.4615 121.435 56.7944 123.932 56.7944 126.975L56.7977 126.968ZM47.9794 157.517C47.9794 158.608 47.5855 159.545 46.8041 160.328C46.0195 161.107 45.0772 161.497 43.9807 161.497C42.8842 161.497 41.9813 161.107 41.1573 160.328C40.412 159.548 40.0411 158.611 40.0411 157.517C40.0411 156.423 40.412 155.489 41.1573 154.709C41.9813 153.93 42.9203 153.54 43.9807 153.54C45.0411 153.54 46.0195 153.93 46.8041 154.709C47.5888 155.489 47.9794 156.426 47.9794 157.517Z" fill="white"/>
<path fill-rule="evenodd" clip-rule="evenodd" d="M151.991 42.0172C152.088 41.9238 152.171 41.8498 152.252 41.7694C153.233 40.7911 154.204 39.8031 155.195 38.8345C157.163 36.9101 159.508 35.6905 162.216 35.2174C169.491 33.9495 176.229 38.635 177.673 45.6117C178.65 50.323 177.438 54.5065 174.042 57.9337C166.802 65.2387 159.508 72.4955 152.236 79.7715C152.162 79.8455 152.085 79.9131 151.991 80C151.905 79.9196 151.827 79.8552 151.757 79.7812C144.491 72.5116 137.226 65.2452 129.964 57.9756C127.928 55.9385 126.654 53.4992 126.185 50.6577C125.377 45.7791 127.243 40.8715 131.257 37.779C132.984 36.4499 134.926 35.6036 137.068 35.2142C138.062 35.034 139.069 34.9599 140.075 35.0211C143.475 35.2303 146.415 36.4982 148.852 38.8924C149.811 39.8321 150.753 40.7911 151.702 41.7436C151.792 41.8305 151.885 41.9142 151.991 42.0172Z" fill="#C37A81"/>
<path fill-rule="evenodd" clip-rule="evenodd" d="M151.991 28.0172C152.088 27.9238 152.171 27.8498 152.252 27.7694C153.233 26.7911 154.204 25.8031 155.195 24.8345C157.163 22.9101 159.508 21.6904 162.216 21.2174C169.491 19.9495 176.229 24.635 177.673 31.6117C178.65 36.323 177.438 40.5065 174.042 43.9337C166.802 51.2387 159.508 58.4955 152.236 65.7715C152.162 65.8455 152.085 65.9131 151.991 66C151.905 65.9195 151.827 65.8552 151.757 65.7812C144.491 58.5116 137.226 51.2452 129.964 43.9756C127.928 41.9385 126.654 39.4992 126.185 36.6577C125.377 31.7791 127.243 26.8715 131.257 23.779C132.984 22.4499 134.926 21.6036 137.068 21.2142C138.062 21.034 139.069 20.9599 140.075 21.0211C143.475 21.2303 146.415 22.4982 148.852 24.8924C149.811 25.8321 150.753 26.7911 151.702 27.7404C151.792 27.8305 151.885 27.9142 151.991 28.0172Z" fill="#1FA3A8"/>
<path fill-rule="evenodd" clip-rule="evenodd" d="M151.991 13.0172C152.088 12.9238 152.171 12.8498 152.252 12.7694C153.233 11.7911 154.204 10.8031 155.195 9.8345C157.163 7.9101 159.508 6.69045 162.216 6.2174C169.491 4.94948 176.229 9.63498 177.673 16.6117C178.65 21.323 177.438 25.5065 174.042 28.9337C166.802 36.2387 159.508 43.4955 152.236 50.7715C152.162 50.8455 152.085 50.9131 151.991 51C151.905 50.9195 151.827 50.8552 151.757 50.7812C144.491 43.5116 137.226 36.2452 129.964 28.9756C127.928 26.9385 126.654 24.4992 126.185 21.6577C125.377 16.7791 127.243 11.8715 131.257 8.77898C132.984 7.44991 134.926 6.60356 137.068 6.21418C138.062 6.03397 139.069 5.95995 140.075 6.02109C143.475 6.23027 146.415 7.49819 148.852 9.89243C149.811 10.8321 150.753 11.7911 151.702 12.7404C151.792 12.8305 151.885 12.9142 151.991 13.0172Z" fill="#EAC445"/>
<path fill-rule="evenodd" clip-rule="evenodd" d="M43.9914 28.0172C44.0878 27.9238 44.1715 27.8498 44.2519 27.7694C45.2328 26.7911 46.2041 25.8031 47.1947 24.8345C49.163 22.9101 51.5076 21.6904 54.2156 21.2174C61.4906 19.9495 68.2285 24.635 69.6726 31.6117C70.6503 36.323 69.4378 40.5065 66.0415 43.9337C58.8019 51.2387 51.5076 58.4955 44.2358 65.7715C44.1618 65.8455 44.0846 65.9131 43.9914 66C43.9045 65.9195 43.8273 65.8552 43.7566 65.7812C36.4912 58.5116 29.2259 51.2452 21.9637 43.9756C19.9311 41.9385 18.6543 39.4992 18.1847 36.6577C17.3775 31.7791 19.2428 26.8715 23.2566 23.779C24.9837 22.4499 26.9263 21.6036 29.0683 21.2142C30.0621 21.034 31.0687 20.9599 32.0754 21.0211C35.4749 21.2303 38.4145 22.4982 40.8524 24.8924C41.8108 25.8321 42.7531 26.7911 43.7019 27.7404C43.792 27.8305 43.8852 27.9142 43.9914 28.0172Z" fill="#1FA3A8"/>
<path fill-rule="evenodd" clip-rule="evenodd" d="M43.9908 13.0172C44.0873 12.9238 44.1709 12.8498 44.2514 12.7694C45.2323 11.7911 46.2036 10.8031 47.1942 9.8345C49.1626 7.9101 51.5072 6.69045 54.2153 6.2174C61.4904 4.94948 68.2285 9.63498 69.6726 16.6117C70.6503 21.323 69.4378 25.5065 66.0414 28.9337C58.8017 36.2387 51.5072 43.4955 44.2353 50.7715C44.1613 50.8455 44.0841 50.9131 43.9908 51C43.904 50.9195 43.8268 50.8552 43.756 50.7812C36.4938 43.5116 29.2283 36.2452 21.966 28.9756C19.9301 26.9385 18.6532 24.4992 18.1837 21.6577C17.3796 16.7791 19.2418 11.8715 23.2557 8.77898C24.9828 7.44991 26.9254 6.60356 29.0674 6.21418C30.0613 6.03397 31.068 5.95995 32.0746 6.02109C35.4742 6.23027 38.4139 7.49819 40.8518 9.89243C41.8102 10.8321 42.7526 11.7911 43.7014 12.7404C43.7914 12.8305 43.8847 12.9142 43.9908 13.0172Z" fill="#EAC445"/>
<path d="M150.459 128L124 147.067L134.181 178H166.861L177 147.045" fill="#C37A81"/>
<path fill-rule="evenodd" clip-rule="evenodd" d="M43.9914 42.0172C44.0878 41.9238 44.1715 41.8498 44.2519 41.7694C45.2328 40.7911 46.2041 39.8031 47.1947 38.8345C49.163 36.9101 51.5076 35.6905 54.2156 35.2174C61.4906 33.9495 68.2285 38.635 69.6726 45.6117C70.6503 50.323 69.4378 54.5065 66.0415 57.9337C58.8019 65.2387 51.5076 72.4955 44.2358 79.7715C44.1618 79.8455 44.0846 79.9131 43.9914 80C43.9045 79.9196 43.8273 79.8552 43.7566 79.7812C36.4912 72.5116 29.2259 65.2452 21.9637 57.9756C19.9311 55.9385 18.6543 53.496 18.1847 50.6577C17.3775 45.7791 19.2428 40.8715 23.2566 37.779C24.9837 36.4499 26.9263 35.6036 29.0683 35.2142C30.0621 35.034 31.0687 34.9599 32.0754 35.0211C35.4749 35.2303 38.4145 36.4982 40.8524 38.8924C41.8108 39.8321 42.7531 40.7911 43.7019 41.7436C43.792 41.8305 43.8852 41.9142 43.9914 42.0172Z" fill="#C37A81"/>
<path d="M150.459 114L124 133.069L134.181 164H166.861L177 133.047" fill="#22AEB4"/>
<path d="M150.459 100L124 119.451L134.181 151H166.861L177 119.428" fill="#EAC445"/>
</svg>
