<svg width="190" height="191" viewBox="0 0 190 191" fill="none" xmlns="http://www.w3.org/2000/svg">
<path d="M56.7977 127.968C56.7977 130.154 55.8554 132.24 53.9743 134.232C52.1325 135.834 50.2874 137.452 48.4456 139.09C47.0733 140.339 46.269 142.992 46.0359 147.051C45.9571 148.689 45.2512 149.508 43.9183 149.508C42.5066 149.508 41.8008 148.689 41.8008 147.051C41.8008 143.814 42.1127 141.531 42.743 140.204C43.2519 139.074 45.0937 137.102 48.2683 134.294C50.9342 131.952 52.2671 129.846 52.2671 127.975C52.2671 126.104 51.3446 124.64 49.5028 123.467C47.9335 122.412 46.072 121.888 43.9183 121.888C41.4101 121.888 39.2531 122.589 37.4507 123.995C35.6484 125.4 34.5879 127.254 34.2761 129.554C34.0791 131.077 33.5505 131.837 32.6871 131.837C31.1572 131.837 30.3955 130.979 30.3955 129.262C30.3955 126.101 31.7087 123.353 34.3351 121.01C36.804 118.825 39.9984 117.731 43.9183 117.731C47.3294 117.731 50.2874 118.648 52.7957 120.483C55.4615 122.435 56.7944 124.932 56.7944 127.975L56.7977 127.968ZM47.9794 158.517C47.9794 159.608 47.5855 160.545 46.8041 161.328C46.0195 162.107 45.0772 162.497 43.9807 162.497C42.8842 162.497 41.9813 162.107 41.1573 161.328C40.412 160.548 40.0411 159.611 40.0411 158.517C40.0411 157.423 40.412 156.489 41.1573 155.709C41.9813 154.93 42.9203 154.54 43.9807 154.54C45.0411 154.54 46.0195 154.93 46.8041 155.709C47.5888 156.489 47.9794 157.426 47.9794 158.517Z" fill="white"/>
<g clip-path="url(#clip0_7_7870)">
<path fill-rule="evenodd" clip-rule="evenodd" d="M148.163 82.9955C149.092 81.3716 149.466 79.4313 150.072 77.6316C150.187 77.2928 150.216 76.9252 150.302 76.4745C150.818 78.2965 151.135 80.0131 151.785 81.5922C152.932 84.3732 154.934 86.2784 158.105 86.4478C161.657 86.6396 164.392 85.118 166.032 81.9886C167.637 78.9326 166.766 76.0877 164.742 73.5272C163.851 72.3988 162.826 71.3759 162.067 70.5352C163.473 70.8389 165.184 71.3727 166.932 71.5485C170.722 71.9289 173.726 69.9279 174.821 66.5075C176.785 60.3733 172.118 55.1181 165.728 56.3136C164.303 56.5789 162.919 57.0744 161.237 57.5411C161.785 57.084 162.169 56.8475 162.445 56.5182C163.672 55.0638 165.135 53.7244 166.02 52.0814C167.9 48.5747 166.471 44.5438 162.893 42.4341C159.296 40.3115 155.043 40.9445 152.903 44.2849C151.808 45.9919 151.388 48.1336 150.68 50.0835C150.565 50.4 150.546 50.7484 150.517 50.9082C149.78 48.8944 149.297 46.7175 148.243 44.8635C146.094 41.0819 141.776 40.1837 137.888 42.4181C134.114 44.5854 132.782 48.7921 134.934 52.5225C135.828 54.0696 137.263 55.3035 138.464 56.6684C138.698 56.9306 138.993 57.1415 139.108 57.2438C137.157 56.8986 135.12 56.2849 133.067 56.2209C128.538 56.0803 125.367 59.4974 125.489 64.0781C125.61 68.6269 128.99 71.865 133.49 71.5645C135.027 71.4622 136.539 70.9412 138.061 70.6023C138.368 70.5352 138.669 70.4329 138.97 70.3466C138.464 71.0658 137.856 71.5805 137.279 72.1271C135.69 73.6327 134.435 75.3588 134.05 77.5581C133.419 81.1862 135.517 84.565 139.198 85.9587C142.74 87.2981 146.305 86.2496 148.163 82.9955Z" fill="#1FA3A8"/>
<path fill-rule="evenodd" clip-rule="evenodd" d="M148.163 65.7338C149.092 64.1099 149.466 62.1696 150.072 60.3699C150.187 60.0311 150.216 59.6635 150.302 59.2127C150.818 61.0348 151.135 62.7514 151.785 64.3305C152.932 67.1115 154.934 69.0166 158.105 69.1861C161.657 69.3779 164.392 67.8563 166.032 64.7268C167.637 61.6709 166.766 58.8259 164.742 56.2655C163.851 55.1371 162.826 54.1142 162.067 53.2735C163.473 53.5772 165.184 54.111 166.932 54.2868C170.722 54.6672 173.726 52.6661 174.821 49.2458C176.785 43.1116 172.118 37.8564 165.728 39.0519C164.303 39.3172 162.919 39.8127 161.237 40.2794C161.785 39.8223 162.169 39.5857 162.445 39.2565C163.672 37.802 165.135 36.4627 166.02 34.8196C167.9 31.313 166.471 27.2821 162.893 25.1724C159.296 23.0498 155.043 23.6827 152.903 27.0232C151.808 28.7301 151.388 30.8719 150.68 32.8218C150.565 33.1382 150.546 33.4867 150.517 33.6465C149.78 31.6326 149.297 29.4558 148.243 27.6018C146.094 23.8202 141.776 22.922 137.888 25.1564C134.114 27.3237 132.782 31.5304 134.934 35.2608C135.828 36.8079 137.263 38.0418 138.464 39.4067C138.698 39.6688 138.993 39.8798 139.108 39.9821C137.157 39.6369 135.12 39.0231 133.067 38.9592C128.538 38.8186 125.367 42.2357 125.489 46.8164C125.61 51.3651 128.99 54.6033 133.49 54.3028C135.027 54.2005 136.539 53.6795 138.061 53.3406C138.368 53.2735 138.669 53.1712 138.97 53.0849C138.464 53.8041 137.856 54.3188 137.279 54.8654C135.69 56.371 134.435 58.0971 134.05 60.2964C133.419 63.9245 135.517 67.3033 139.198 68.697C142.74 70.0364 146.305 68.9879 148.163 65.7338Z" fill="#EAC445"/>
<path fill-rule="evenodd" clip-rule="evenodd" d="M148.163 48.7919C149.092 47.168 149.467 45.2277 150.072 43.428C150.187 43.0892 150.216 42.7216 150.303 42.2708C150.818 44.0929 151.135 45.8095 151.786 47.3886C152.932 50.1696 154.934 52.0748 158.105 52.2442C161.657 52.436 164.393 50.9144 166.033 47.7849C167.637 44.729 166.766 41.8841 164.742 39.3236C163.851 38.1952 162.826 37.1723 162.067 36.3316C163.473 36.6353 165.184 37.1691 166.933 37.3449C170.722 37.7253 173.726 35.7242 174.822 32.3039C176.785 26.1697 172.118 20.9145 165.728 22.11C164.303 22.3753 162.919 22.8708 161.238 23.3375C161.785 22.8804 162.17 22.6438 162.445 22.3146C163.672 20.8601 165.136 19.5208 166.02 17.8777C167.9 14.3711 166.471 10.3402 162.894 8.23046C159.297 6.10793 155.043 6.74085 152.903 10.0813C151.808 11.7883 151.388 13.93 150.681 15.8799C150.565 16.1963 150.546 16.5448 150.517 16.7046C149.781 14.6907 149.297 12.5139 148.243 10.6599C146.097 6.87831 141.779 5.97687 137.891 8.21448C134.118 10.3818 132.785 14.5885 134.938 18.3189C135.831 19.866 137.266 21.0999 138.468 22.4648C138.701 22.727 138.996 22.9379 139.111 23.0402C137.161 22.695 135.124 22.0812 133.07 22.0173C128.541 21.8767 125.37 25.2938 125.492 29.8745C125.614 34.4232 128.993 37.6614 133.493 37.3609C135.031 37.2586 136.543 36.7376 138.064 36.3987C138.371 36.3316 138.672 36.2293 138.974 36.143C138.468 36.8622 137.859 37.3769 137.282 37.9235C135.694 39.4291 134.438 41.1552 134.054 43.3545C133.423 46.9826 135.521 50.3614 139.201 51.7551C142.74 53.0945 146.305 52.046 148.163 48.7919Z" fill="#C37A81"/>
<path fill-rule="evenodd" clip-rule="evenodd" d="M39.6769 48.792C40.6026 47.1681 40.9806 45.2278 41.5859 43.4281C41.7012 43.0893 41.7301 42.7217 41.8165 42.271C42.3322 44.093 42.6493 45.8096 43.2995 47.3887C44.4462 50.1697 46.4481 52.0749 49.619 52.2443C53.1712 52.4361 55.9065 50.9145 57.5465 47.7851C59.1512 44.7291 58.28 41.8842 56.2557 39.3237C55.3652 38.1953 54.3403 37.1724 53.5812 36.3317C54.9873 36.6354 56.6977 37.1692 58.4465 37.345C62.2357 37.7254 65.2401 35.7244 66.3355 32.304C68.2989 26.1698 63.6322 20.9146 57.2422 22.1101C55.8168 22.3754 54.4332 22.8709 52.7516 23.3376C53.2993 22.8805 53.6836 22.644 53.9591 22.3147C55.1859 20.8603 56.6496 19.5209 57.5337 17.8779C59.4138 14.3712 57.9853 10.3403 54.4075 8.23057C50.8106 6.10485 46.5602 6.74097 44.4206 10.0782C43.3251 11.7852 42.9024 13.9269 42.1977 15.8768C42.0824 16.1933 42.0632 16.5417 42.0343 16.7015C41.2977 14.6877 40.814 12.5108 39.7602 10.6568C37.6078 6.87842 33.2934 5.97698 29.4017 8.21459C25.6286 10.3819 24.2961 14.5886 26.4485 18.319C27.3422 19.8661 28.7771 21.1 29.9782 22.4649C30.2121 22.7271 30.5067 22.938 30.6221 23.0403C28.6714 22.6951 26.6343 22.0814 24.5812 22.0174C20.0522 21.8768 16.8812 25.2939 17.0029 29.8746C17.1246 34.4234 20.5038 37.6615 25.004 37.361C26.5414 37.2587 28.0532 36.7377 29.5747 36.3988C29.8822 36.3317 30.1832 36.2294 30.4843 36.1431C29.9782 36.8623 29.3697 37.377 28.7931 37.9236C27.2045 39.4292 25.9489 41.1553 25.5645 43.3546C24.9335 46.9827 27.0315 50.3615 30.7117 51.7552C34.2543 53.0946 37.816 52.0461 39.6769 48.792Z" fill="#C37A81"/>
<path fill-rule="evenodd" clip-rule="evenodd" d="M171.557 143.967H119.768L129.211 103.051H181L171.557 143.967Z" fill="#C37A81"/>
<path fill-rule="evenodd" clip-rule="evenodd" d="M171.557 158.991H119.768L129.211 118.075H181L171.557 158.991Z" fill="#EAC445"/>
<path fill-rule="evenodd" clip-rule="evenodd" d="M171.557 175H119.768L129.211 134.084H181L171.557 175Z" fill="#1FA3A8"/>
<path fill-rule="evenodd" clip-rule="evenodd" d="M39.6774 82.9955C40.6031 81.3716 40.981 79.4313 41.5864 77.6316C41.7017 77.2928 41.7305 76.9252 41.817 76.4745C42.3327 78.2965 42.6498 80.0131 43.3 81.5922C44.4467 84.3732 46.4486 86.2784 49.6195 86.4478C53.1717 86.6396 55.907 85.118 57.547 81.9886C59.1517 78.9326 58.2804 76.0877 56.2561 73.5272C55.3657 72.3988 54.3408 71.3759 53.5816 70.5352C54.9878 70.8389 56.6982 71.3727 58.447 71.5485C62.2361 71.9289 65.2406 69.9279 66.336 66.5075C68.2994 60.3733 63.6327 55.1181 57.2427 56.3136C55.8173 56.5789 54.4336 57.0744 52.7521 57.5411C53.2998 57.084 53.6841 56.8475 53.9596 56.5182C55.1863 55.0638 56.6501 53.7244 57.5341 52.0814C59.4143 48.5747 57.9858 44.5438 54.408 42.4341C50.811 40.3115 46.5575 40.9445 44.4179 44.2849C43.3224 45.9919 42.8996 48.1336 42.195 50.0835C42.0797 50.4 42.0605 50.7484 42.0316 50.9082C41.2949 48.8944 40.8113 46.7175 39.7575 44.8635C37.6051 41.0819 33.2906 40.1837 29.4022 42.4181C25.6291 44.5854 24.2966 48.7921 26.449 52.5225C27.3427 54.0696 28.7776 55.3035 29.9787 56.6684C30.2126 56.9306 30.5072 57.1415 30.6225 57.2438C28.6719 56.8986 26.6348 56.2849 24.5817 56.2209C20.0526 56.0803 16.8817 59.4974 17.0034 64.0781C17.1251 68.6269 20.5043 71.865 25.0045 71.5645C26.5419 71.4622 28.0537 70.9412 29.5752 70.6023C29.8826 70.5352 30.1837 70.4329 30.4848 70.3466C29.9787 71.0658 29.3702 71.5805 28.7936 72.1271C27.2049 73.6327 25.9494 75.3588 25.565 77.5581C24.934 81.1862 27.032 84.565 30.7122 85.9587C34.2547 87.2981 37.8165 86.2496 39.6774 82.9955Z" fill="#1FA3A8"/>
<path fill-rule="evenodd" clip-rule="evenodd" d="M39.6774 65.7338C40.6031 64.1099 40.981 62.1696 41.5864 60.3699C41.7017 60.0311 41.7305 59.6635 41.817 59.2127C42.3327 61.0348 42.6498 62.7514 43.3 64.3305C44.4467 67.1115 46.4486 69.0166 49.6195 69.1861C53.1717 69.3779 55.907 67.8563 57.547 64.7268C59.1517 61.6709 58.2804 58.8259 56.2561 56.2655C55.3657 55.1371 54.3408 54.1142 53.5816 53.2735C54.9878 53.5772 56.6982 54.111 58.447 54.2868C62.2361 54.6672 65.2406 52.6661 66.336 49.2458C68.2994 43.1116 63.6327 37.8564 57.2427 39.0519C55.8173 39.3172 54.4336 39.8127 52.7521 40.2794C53.2998 39.8223 53.6841 39.5857 53.9596 39.2565C55.1863 37.802 56.6501 36.4627 57.5341 34.8196C59.4143 31.313 57.9858 27.2821 54.408 25.1724C50.811 23.0498 46.5575 23.6827 44.4179 27.0232C43.3224 28.7301 42.8996 30.8719 42.195 32.8218C42.0797 33.1382 42.0605 33.4867 42.0316 33.6465C41.2949 31.6326 40.8113 29.4558 39.7575 27.6018C37.6083 23.8202 33.2938 22.9188 29.4022 25.1564C25.6291 27.3237 24.2966 31.5304 26.449 35.2608C27.3427 36.8079 28.7776 38.0418 29.9787 39.4067C30.2126 39.6688 30.5072 39.8798 30.6225 39.9821C28.6719 39.6369 26.6348 39.0231 24.5817 38.9592C20.0526 38.8186 16.8817 42.2357 17.0034 46.8164C17.1251 51.3651 20.5043 54.6033 25.0045 54.3028C26.5419 54.2005 28.0537 53.6795 29.5752 53.3406C29.8826 53.2735 30.1837 53.1712 30.4848 53.0849C29.9787 53.8041 29.3702 54.3188 28.7936 54.8654C27.2049 56.371 25.9494 58.0971 25.565 60.2964C24.934 63.9245 27.032 67.3033 30.7122 68.697C34.2547 70.0364 37.8165 68.9879 39.6774 65.7338Z" fill="#EAC445"/>
</g>
<defs>
<clipPath id="clip0_7_7870">
<rect width="164" height="175" fill="white" transform="translate(17)"/>
</clipPath>
</defs>
</svg>
