<svg width="190" height="191" viewBox="0 0 190 191" fill="none" xmlns="http://www.w3.org/2000/svg">
<path d="M56.7977 127.968C56.7977 130.154 55.8554 132.24 53.9743 134.232C52.1325 135.834 50.2874 137.452 48.4456 139.09C47.0733 140.339 46.269 142.992 46.0359 147.051C45.9571 148.689 45.2512 149.508 43.9183 149.508C42.5066 149.508 41.8008 148.689 41.8008 147.051C41.8008 143.814 42.1127 141.531 42.743 140.204C43.2519 139.074 45.0937 137.102 48.2683 134.294C50.9342 131.952 52.2671 129.846 52.2671 127.975C52.2671 126.104 51.3446 124.64 49.5028 123.467C47.9335 122.412 46.072 121.888 43.9183 121.888C41.4101 121.888 39.2531 122.589 37.4507 123.995C35.6484 125.4 34.5879 127.254 34.2761 129.554C34.0791 131.077 33.5505 131.837 32.6871 131.837C31.1572 131.837 30.3955 130.979 30.3955 129.262C30.3955 126.101 31.7087 123.353 34.3351 121.01C36.804 118.825 39.9984 117.731 43.9183 117.731C47.3294 117.731 50.2874 118.648 52.7957 120.483C55.4615 122.435 56.7944 124.932 56.7944 127.975L56.7977 127.968ZM47.9794 158.517C47.9794 159.608 47.5855 160.545 46.8041 161.328C46.0195 162.107 45.0772 162.497 43.9807 162.497C42.8842 162.497 41.9813 162.107 41.1573 161.328C40.412 160.548 40.0411 159.611 40.0411 158.517C40.0411 157.423 40.412 156.489 41.1573 155.709C41.9813 154.93 42.9203 154.54 43.9807 154.54C45.0411 154.54 46.0195 154.93 46.8041 155.709C47.5888 156.489 47.9794 157.426 47.9794 158.517Z" fill="white"/>
<path d="M77.514 70.6711L67.3934 60.5373L77.514 50.4009L68.9463 41.8198L58.8283 51.9562L48.7078 41.8198L40.1401 50.4009L50.2607 60.5373L40.1401 70.6711L48.7078 79.2522L58.8283 69.1158L68.9463 79.2522L77.514 70.6711Z" fill="#1FA3A8"/>
<path d="M77.514 40.8513L67.3934 30.7149L77.514 20.5811L68.9463 12L58.8283 22.1338L48.7078 12L40.1401 20.5811L50.2607 30.7149L40.1401 40.8513L48.7078 49.4323L58.8283 39.296L68.9463 49.4323L77.514 40.8513Z" fill="#EAC445"/>
<path d="M60.3738 58.0183L50.2533 47.8819L60.3738 37.7481L51.8062 29.167L41.6882 39.3008L31.5677 29.167L23 37.7481L33.1205 47.8819L23 58.0183L31.5677 66.5993L41.6882 56.463L51.8062 66.5993L60.3738 58.0183Z" fill="#C37A81"/>
<path d="M175.515 40.8513L165.397 30.7149L175.515 20.5811L166.95 12L156.829 22.1338L146.709 12L138.141 20.5811L148.262 30.7149L138.141 40.8513L146.709 49.4323L156.829 39.296L166.95 49.4323L175.515 40.8513Z" fill="#EAC445"/>
<path d="M158.374 58.0183L148.256 47.8819L158.374 37.7481L149.809 29.167L139.688 39.3008L129.568 29.167L121 37.7481L131.121 47.8819L121 58.0183L129.568 66.5993L139.688 56.463L149.809 66.5993L158.374 58.0183Z" fill="#C37A81"/>
<path d="M175.515 70.6711L165.397 60.5373L175.515 50.4009L166.95 41.8198L156.829 51.9562L146.709 41.8198L138.141 50.4009L148.262 60.5373L138.141 70.6711L146.709 79.2522L156.829 69.1158L166.95 79.2522L175.515 70.6711Z" fill="#1FA3A8"/>
<path d="M157.277 96C147.011 96 138.688 104.335 138.688 114.62C138.688 124.903 147.011 133.24 157.277 133.24C167.543 133.24 175.868 124.905 175.868 114.62C175.868 104.335 167.546 96 157.277 96ZM157.277 123.363C152.457 123.363 148.548 119.447 148.548 114.62C148.548 109.79 152.457 105.878 157.277 105.878C162.099 105.878 166.006 109.793 166.006 114.62C166.008 119.447 162.099 123.363 157.277 123.363Z" fill="#EAC445"/>
<path d="M138.591 114.276C128.325 114.276 120 122.611 120 132.896C120 143.179 128.322 151.517 138.591 151.517C148.857 151.517 157.182 143.181 157.182 132.896C157.182 122.611 148.857 114.276 138.591 114.276ZM138.591 141.639C133.771 141.639 129.862 137.724 129.862 132.896C129.862 128.067 133.771 124.154 138.591 124.154C143.413 124.154 147.32 128.069 147.32 132.896C147.32 137.724 143.413 141.639 138.591 141.639Z" fill="#C37A81"/>
<path d="M157.277 128.226C147.011 128.226 138.688 136.561 138.688 146.846C138.688 157.128 147.011 165.466 157.277 165.466C167.543 165.466 175.868 157.131 175.868 146.846C175.868 136.563 167.546 128.226 157.277 128.226ZM157.277 155.588C152.457 155.588 148.548 151.673 148.548 146.846C148.548 142.016 152.457 138.103 157.277 138.103C162.099 138.103 166.006 142.018 166.006 146.846C166.008 151.676 162.099 155.588 157.277 155.588Z" fill="#1FA3A8"/>
</svg>
