<svg width="100" height="100" viewBox="0 0 100 100" fill="none" xmlns="http://www.w3.org/2000/svg">
<path d="M37.0217 28.4009C23.2031 28.4009 12 39.5628 12 53.3305C12 67.0981 23.2031 78.26 37.0217 78.26C50.8402 78.26 62.0433 67.0981 62.0433 53.3305C62.0433 39.5628 50.8402 28.4009 37.0217 28.4009ZM37.0217 65.0387C30.5325 65.0387 25.2736 59.7958 25.2736 53.3305C25.2736 46.8652 30.5325 41.6222 37.0217 41.6222C43.5108 41.6222 48.7732 46.8652 48.7732 53.3305C48.7732 59.7993 43.5108 65.0387 37.0217 65.0387Z" fill="#EAC445"/>
<path d="M62.1735 47.0786C48.355 47.0786 37.1519 58.2405 37.1519 72.0082C37.1519 85.7758 48.355 96.9378 62.1735 96.9378C75.992 96.9378 87.1952 85.7758 87.1952 72.0082C87.1987 58.2405 75.9955 47.0786 62.1735 47.0786ZM62.1735 83.7165C55.6843 83.7165 50.4255 78.4735 50.4255 72.0082C50.4255 65.5429 55.6843 60.2999 62.1735 60.2999C68.6627 60.2999 73.925 65.5429 73.925 72.0082C73.925 78.477 68.6662 83.7165 62.1735 83.7165Z" fill="#1FA3A8"/>
<path d="M62.1735 4C48.355 4 37.1519 15.1619 37.1519 28.9296C37.1519 42.6972 48.355 53.8591 62.1735 53.8591C75.992 53.8591 87.1952 42.6972 87.1952 28.9296C87.1987 15.1619 75.9955 4 62.1735 4ZM62.1735 40.6379C55.6843 40.6379 50.4255 35.3949 50.4255 28.9296C50.4255 22.4643 55.6843 17.2213 62.1735 17.2213C68.6627 17.2213 73.925 22.4643 73.925 28.9296C73.925 35.3949 68.6662 40.6379 62.1735 40.6379Z" fill="#C37A81"/>
</svg>
