<svg width="100" height="100" viewBox="0 0 100 100" fill="none" xmlns="http://www.w3.org/2000/svg">
<path d="M62.1764 47.0781C48.3579 47.0781 37.1548 58.24 37.1548 72.0077C37.1548 85.7754 48.3579 96.9373 62.1764 96.9373C75.9949 96.9373 87.1981 85.7754 87.1981 72.0077C87.1981 58.24 75.9949 47.0781 62.1764 47.0781ZM62.1764 83.716C55.6873 83.716 50.4284 78.4765 50.4284 72.0077C50.4284 65.5424 55.6873 60.2994 62.1764 60.2994C68.6656 60.2994 73.928 65.5424 73.928 72.0077C73.9245 78.4765 68.6656 83.716 62.1764 83.716Z" fill="#1FA3A8"/>
<path d="M62.1764 4C48.3579 4 37.1548 15.1619 37.1548 28.9296C37.1548 42.6972 48.3579 53.8591 62.1764 53.8591C75.9949 53.8591 87.1981 42.6972 87.1981 28.9296C87.1981 15.1619 75.9949 4 62.1764 4ZM62.1764 40.6379C55.6873 40.6379 50.4284 35.3949 50.4284 28.9296C50.4284 22.4643 55.6873 17.2213 62.1764 17.2213C68.6656 17.2213 73.928 22.4643 73.928 28.9296C73.9245 35.3949 68.6656 40.6379 62.1764 40.6379Z" fill="#EAC445"/>
<path d="M37.0217 28.4004C23.2031 28.4004 12 39.5623 12 53.33C12 67.0976 23.2031 78.2595 37.0217 78.2595C50.8402 78.2595 62.0433 67.0976 62.0433 53.33C62.0468 39.5623 50.8437 28.4004 37.0217 28.4004ZM37.0217 65.0382C30.5325 65.0382 25.2736 59.7953 25.2736 53.33C25.2736 46.8647 30.5325 41.6217 37.0217 41.6217C43.5108 41.6217 48.7732 46.8647 48.7732 53.33C48.7732 59.7988 43.5143 65.0382 37.0217 65.0382Z" fill="#C37A81"/>
</svg>
