<svg width="100" height="100" viewBox="0 0 100 100" fill="none" xmlns="http://www.w3.org/2000/svg">
<path d="M62.173 4C48.3545 4 37.1514 15.1619 37.1514 28.9296C37.1514 42.6972 48.3545 53.8591 62.173 53.8591C75.9915 53.8591 87.1947 42.6972 87.1947 28.9296C87.1982 15.1619 75.995 4 62.173 4ZM62.173 40.6379C55.6838 40.6379 50.425 35.3949 50.425 28.9296C50.425 22.4643 55.6838 17.2213 62.173 17.2213C68.6622 17.2213 73.9245 22.4643 73.9245 28.9296C73.9245 35.3949 68.6657 40.6379 62.173 40.6379Z" fill="#EAC445"/>
<path d="M37.0217 28.4009C23.2031 28.4009 12 39.5628 12 53.3305C12 67.0981 23.2031 78.26 37.0217 78.26C50.8402 78.26 62.0433 67.0981 62.0433 53.3305C62.0433 39.5628 50.8437 28.4009 37.0217 28.4009ZM37.0217 65.0387C30.5325 65.0387 25.2736 59.7958 25.2736 53.3305C25.2736 46.8652 30.5325 41.6222 37.0217 41.6222C43.5108 41.6222 48.7732 46.8652 48.7732 53.3305C48.7732 59.7993 43.5108 65.0387 37.0217 65.0387Z" fill="#1FA3A8"/>
<path d="M62.173 47.0786C48.3545 47.0786 37.1514 58.2405 37.1514 72.0082C37.1514 85.7758 48.3545 96.9378 62.173 96.9378C75.9915 96.9378 87.1947 85.7758 87.1947 72.0082C87.1982 58.2405 75.995 47.0786 62.173 47.0786ZM62.173 83.7165C55.6838 83.7165 50.425 78.4735 50.425 72.0082C50.425 65.5429 55.6838 60.2999 62.173 60.2999C68.6622 60.2999 73.9245 65.5429 73.9245 72.0082C73.9245 78.477 68.6657 83.7165 62.173 83.7165Z" fill="#C37A81"/>
</svg>
