<svg width="100" height="100" viewBox="0 0 100 100" fill="none" xmlns="http://www.w3.org/2000/svg">
<path d="M62.1764 4C48.3579 4 37.1548 15.1619 37.1548 28.9296C37.1548 42.6972 48.3579 53.8591 62.1764 53.8591C75.9949 53.8591 87.1981 42.6972 87.1981 28.9296C87.1981 15.1619 75.9949 4 62.1764 4ZM62.1764 40.6379C55.6873 40.6379 50.4284 35.3949 50.4284 28.9296C50.4284 22.4643 55.6873 17.2213 62.1764 17.2213C68.6656 17.2213 73.928 22.4643 73.928 28.9296C73.9245 35.3949 68.6656 40.6379 62.1764 40.6379Z" fill="#1FA3A8"/>
<path d="M62.1764 47.0786C48.3579 47.0786 37.1548 58.2405 37.1548 72.0082C37.1548 85.7758 48.3579 96.9378 62.1764 96.9378C75.9949 96.9378 87.1981 85.7758 87.1981 72.0082C87.1981 58.2405 75.9949 47.0786 62.1764 47.0786ZM62.1764 83.7165C55.6873 83.7165 50.4284 78.4735 50.4284 72.0082C50.4284 65.5429 55.6873 60.2999 62.1764 60.2999C68.6656 60.2999 73.928 65.5429 73.928 72.0082C73.9245 78.477 68.6656 83.7165 62.1764 83.7165Z" fill="#EAC445"/>
<path d="M37.0217 28.4009C23.2031 28.4009 12 39.5628 12 53.3305C12 67.0981 23.2031 78.26 37.0217 78.26C50.8402 78.26 62.0433 67.0981 62.0433 53.3305C62.0433 39.5628 50.8437 28.4009 37.0217 28.4009ZM37.0217 65.0387C30.5325 65.0387 25.2736 59.7958 25.2736 53.3305C25.2736 46.8652 30.5325 41.6222 37.0217 41.6222C43.5108 41.6222 48.7732 46.8652 48.7732 53.3305C48.7732 59.7993 43.5143 65.0387 37.0217 65.0387Z" fill="#C37A81"/>
</svg>
