<svg width="100" height="100" viewBox="0 0 100 100" fill="none" xmlns="http://www.w3.org/2000/svg">
<path d="M31.6934 41.6077L5 68.3604L31.6934 95.1103L58.3868 68.3604L31.6934 41.6077ZM31.6934 79.3005C25.6661 79.3005 20.7776 74.4041 20.7776 68.3604C20.7776 62.3168 25.6632 57.4204 31.6934 57.4204C37.7206 57.4204 42.6091 62.3168 42.6091 68.3604C42.6091 74.4041 37.7206 79.3005 31.6934 79.3005Z" fill="#C37A81"/>
<path d="M49.8076 23.4294L23.1143 50.1822L49.8076 76.9321L76.501 50.1822L49.8076 23.4294ZM49.8076 61.1223C43.7804 61.1223 38.8919 56.2259 38.8919 50.1822C38.8919 44.1416 43.7774 39.2422 49.8076 39.2422C55.8349 39.2422 60.7234 44.1386 60.7234 50.1822C60.7234 56.2229 55.8349 61.1223 49.8076 61.1223Z" fill="#1FA3A8"/>
<path d="M68.0991 5L41.4058 31.7528L68.0991 58.5026L94.7925 31.7528L68.0991 5ZM68.0991 42.6898C62.0719 42.6898 57.1834 37.7934 57.1834 31.7498C57.1834 25.7062 62.0689 20.8098 68.0991 20.8098C74.1264 20.8098 79.0149 25.7062 79.0149 31.7498C79.0149 37.7934 74.1264 42.6898 68.0991 42.6898Z" fill="#EAC445"/>
</svg>
