<svg width="190" height="191" viewBox="0 0 190 191" fill="none" xmlns="http://www.w3.org/2000/svg">
<path d="M56.7977 127.968C56.7977 130.154 55.8554 132.24 53.9743 134.232C52.1325 135.834 50.2874 137.452 48.4456 139.09C47.0733 140.339 46.269 142.992 46.0359 147.051C45.9571 148.689 45.2512 149.508 43.9183 149.508C42.5066 149.508 41.8008 148.689 41.8008 147.051C41.8008 143.814 42.1127 141.531 42.743 140.204C43.2519 139.074 45.0937 137.102 48.2683 134.294C50.9342 131.952 52.2671 129.846 52.2671 127.975C52.2671 126.104 51.3446 124.64 49.5028 123.467C47.9335 122.412 46.072 121.888 43.9183 121.888C41.4101 121.888 39.2531 122.589 37.4507 123.995C35.6484 125.4 34.5879 127.254 34.2761 129.554C34.0791 131.077 33.5505 131.837 32.6871 131.837C31.1572 131.837 30.3955 130.979 30.3955 129.262C30.3955 126.101 31.7087 123.353 34.3351 121.01C36.804 118.825 39.9984 117.731 43.9183 117.731C47.3294 117.731 50.2874 118.648 52.7957 120.483C55.4615 122.435 56.7944 124.932 56.7944 127.975L56.7977 127.968ZM47.9794 158.517C47.9794 159.608 47.5855 160.545 46.8041 161.328C46.0195 162.107 45.0772 162.497 43.9807 162.497C42.8842 162.497 41.9813 162.107 41.1573 161.328C40.412 160.548 40.0411 159.611 40.0411 158.517C40.0411 157.423 40.412 156.489 41.1573 155.709C41.9813 154.93 42.9203 154.54 43.9807 154.54C45.0411 154.54 46.0195 154.93 46.8041 155.709C47.5888 156.489 47.9794 157.426 47.9794 158.517Z" fill="white"/>
<path d="M150.593 15C140.76 15 132.787 22.9779 132.787 32.8221C132.787 42.6663 140.758 50.6442 150.593 50.6442C160.426 50.6442 168.399 42.6663 168.399 32.8221C168.399 22.9779 160.426 15 150.593 15ZM157.537 39.7724H143.649V25.8718H157.537V39.7724Z" fill="#EAC445"/>
<path d="M127.029 44.2778C117.196 44.2778 109.223 52.2557 109.223 62.1C109.223 71.9442 117.194 79.9221 127.029 79.9221C136.862 79.9221 144.835 71.9442 144.835 62.1C144.835 52.2557 136.862 44.2778 127.029 44.2778ZM133.973 69.0503H120.085V55.1496H133.973V69.0503Z" fill="#C37A81"/>
<path d="M138.771 29.4082C128.938 29.4082 120.965 37.3861 120.965 47.2303C120.965 57.0746 128.935 65.0524 138.771 65.0524C148.603 65.0524 156.576 57.0746 156.576 47.2303C156.576 37.3861 148.603 29.4082 138.771 29.4082ZM145.715 54.1806H131.827V40.28H145.715V54.1806Z" fill="#1FA3A8"/>
<path d="M47.8058 47.4609C37.9706 47.4609 30 55.4388 30 65.2806C30 75.1224 37.9706 83.1027 47.8058 83.1027C57.6386 83.1027 65.6116 75.1248 65.6116 65.2806C65.6092 55.4388 57.6386 47.4609 47.8058 47.4609ZM54.7498 72.2334H40.8594V58.3328H54.7473V72.2334H54.7498Z" fill="#C37A81"/>
<path d="M59.5451 32.5894C49.7123 32.5894 41.7393 40.5672 41.7393 50.4115C41.7393 60.2533 49.7099 68.2336 59.5451 68.2336C69.3778 68.2336 77.3509 60.2557 77.3509 50.4115C77.3509 40.5697 69.3778 32.5894 59.5451 32.5894ZM66.489 57.3618H52.6011V43.4612H66.489V57.3618Z" fill="#1FA3A8"/>
<path d="M71.3673 18.1807C61.5346 18.1807 53.5615 26.1586 53.5615 36.0028C53.5615 45.8446 61.5321 53.8249 71.3673 53.8249C81.2001 53.8249 89.1732 45.847 89.1732 36.0028C89.1732 26.161 81.2001 18.1807 71.3673 18.1807ZM78.3113 42.9531H64.4234V29.0525H78.3113V42.9531Z" fill="#EAC445"/>
<path d="M151.406 91L129.236 113.19L151.406 135.377L173.575 113.19L151.406 91ZM151.406 122.262C146.4 122.262 142.34 118.2 142.34 113.188C142.34 108.175 146.397 104.113 151.406 104.113C156.411 104.113 160.471 108.175 160.471 113.188C160.471 118.2 156.411 122.262 151.406 122.262Z" fill="#EAC445"/>
<path d="M121.17 121.364L99 143.554L121.17 165.742L143.339 143.554L121.17 121.364ZM121.17 152.626C116.164 152.626 112.104 148.564 112.104 143.552C112.104 138.539 116.161 134.477 121.17 134.477C126.175 134.477 130.236 138.539 130.236 143.552C130.236 148.564 126.175 152.626 121.17 152.626Z" fill="#C37A81"/>
<path d="M136.214 106.286L114.044 128.476L136.214 150.664L158.384 128.476L136.214 106.286ZM136.214 137.548C131.208 137.548 127.148 133.487 127.148 128.474C127.148 123.461 131.206 119.4 136.214 119.4C141.22 119.4 145.28 123.461 145.28 128.474C145.28 133.487 141.22 137.548 136.214 137.548Z" fill="#1FA3A8"/>
</svg>
