<svg width="100" height="100" viewBox="0 0 100 100" fill="none" xmlns="http://www.w3.org/2000/svg">
<path d="M31.6934 41.6079L5 68.3607L31.6934 95.1105L58.3868 68.3607L31.6934 41.6079ZM31.6904 79.3007C25.6632 79.3007 20.7747 74.4043 20.7747 68.3607C20.7747 62.3171 25.6602 57.4207 31.6904 57.4207C37.7177 57.4207 42.6062 62.3171 42.6062 68.3607C42.6062 74.4043 37.7206 79.3007 31.6904 79.3007Z" fill="#EAC445"/>
<path d="M49.8076 23.4297L23.1143 50.1825L49.8076 76.9323L76.501 50.1825L49.8076 23.4297ZM49.8076 61.1225C43.7804 61.1225 38.8919 56.2261 38.8919 50.1825C38.8919 44.1388 43.7804 39.2424 49.8076 39.2424C55.8349 39.2424 60.7234 44.1388 60.7234 50.1825C60.7234 56.2261 55.8349 61.1225 49.8076 61.1225Z" fill="#C37A81"/>
<path d="M68.0991 5L41.4058 31.7528L68.0991 58.5026L94.7925 31.7528L68.0991 5ZM68.0991 42.6898C62.0719 42.6898 57.1834 37.7934 57.1834 31.7498C57.1834 25.7062 62.0719 20.8098 68.0991 20.8098C74.1264 20.8098 79.0149 25.7062 79.0149 31.7498C79.0149 37.7934 74.1264 42.6898 68.0991 42.6898Z" fill="#1FA3A8"/>
</svg>
