<svg width="80" height="86" viewBox="0 0 80 86" fill="none" xmlns="http://www.w3.org/2000/svg">
<g clip-path="url(#clip0_325_1291)">
<path d="M79.4806 33.0892C76.9176 18.1411 66.8052 6.33353 52.3186 1.86071C43.4629 -0.829954 32.9441 -0.626776 26.4394 2.63859C20.0277 5.61951 14.2778 9.35508 9.60177 14.6377C-2.13903 27.8966 -3.32617 48.763 7.22459 63.1335C9.09541 65.67 11.2702 67.9676 13.7002 69.9748C12.9426 71.4261 8.58588 77.2021 4.74291 78.7143C3.34388 79.2658 2.88818 80.4239 3.08846 81.4776C1.95356 83.2888 1.8897 85.8314 4.75742 85.8314C10.9689 85.8314 20.4834 82.5892 23.354 80.7723C25.1159 79.6577 26.6891 78.4792 28.0446 77.7072C36.9728 80.4675 46.7921 80.2643 55.4707 76.3255C71.6553 68.9734 82.5573 50.9689 79.4806 33.0892Z" fill="#FF6D58"/>
<path d="M34.1193 53.2212C31.7769 54.2661 29.5013 55.4475 27.278 56.7043C26.3434 53.732 25.4939 50.725 24.7295 47.6831C25.5161 47.4945 26.2969 47.2971 27.0748 47.1026C30.1573 46.3567 33.8261 46.2174 36.7374 45.007C41.0651 43.2074 40.74 36.816 35.5909 36.5577C32.1862 36.3864 28.1836 38.6301 25.0924 39.9188C24.4209 40.1975 23.7524 40.4877 23.0867 40.7896C22.8806 39.8898 22.6716 38.99 22.4743 38.0873C22.0244 36.0033 21.9489 34.6565 21.3597 32.6015C23.2376 32.4128 35.2629 30.0386 39.2365 28.6715C43.0098 27.374 41.0419 21.9956 37.672 23.0028C33.6839 23.8039 29.7655 25.0926 25.7716 25.9692C22.3146 26.7268 18.3759 27.1999 15.1018 28.6366C14.8133 28.6975 14.5456 28.8323 14.3248 29.0276C14.104 29.223 13.9377 29.4723 13.8421 29.7512L13.816 29.8238C13.5547 30.5639 14.1062 31.6408 14.9189 31.7685C15.3456 31.8352 15.7752 32.111 16.2106 32.1458C15.8216 36.1426 16.3731 40.2207 17.032 44.2436C16.5908 44.5803 16.1612 44.9315 15.7462 45.3089C14.2804 46.6585 15.6852 49.2505 17.5573 48.8877L17.8476 48.8674C18.7677 53.8262 19.9507 58.7326 21.3916 63.5659C21.5344 64.0584 21.7729 64.5179 22.0934 64.9181C22.414 65.3183 22.8103 65.6514 23.2597 65.8984C23.7091 66.1453 24.2027 66.3012 24.7124 66.3572C25.2221 66.4132 25.7379 66.3681 26.2302 66.2246C26.5201 66.1456 26.7997 66.0326 27.0632 65.8879C31.9975 62.9592 37.1728 61.1306 42.3335 58.7564C44.3101 57.845 44.9951 54.7741 43.837 53.0296C41.3524 49.2766 37.254 51.8193 34.1193 53.2212Z" fill="white"/>
<path d="M64.8107 49.2886C62.2362 47.2307 59.6848 45.1438 57.1364 43.0539C58.8547 40.2694 60.5711 37.4839 62.2855 34.6975C65.0168 30.2827 58.2219 26.4281 55.3803 30.663C53.7956 33.0169 52.2804 35.4202 50.8553 37.8758C47.8337 35.3506 44.6264 32.7238 41.1085 31.2493C39.1783 30.4395 37.8402 32.9734 38.6152 34.4914C40.5338 38.2473 44.1707 41.6317 47.2735 44.5894C47.0965 44.9522 46.9136 45.3179 46.7424 45.6807C45.561 48.1827 41.1521 56.0573 45.1982 57.8714C46.156 58.2981 47.5899 57.8976 47.7205 56.7394C47.7989 56.7394 48.0108 56.4927 48.3301 55.9964C48.7453 55.6117 49.118 55.1835 49.4417 54.7193C50.0629 53.953 50.6666 53.1374 51.2384 52.3334C51.8102 51.5294 52.3269 50.737 52.8522 49.9214C54.7873 51.7558 56.7387 53.5834 58.7067 55.4043C62.8428 59.2327 69.0804 52.6991 64.8107 49.2886Z" fill="white"/>
</g>
<defs>
<clipPath id="clip0_325_1291">
<rect width="80" height="85.8283" fill="white"/>
</clipPath>
</defs>
</svg>
