<?xml version="1.0" encoding="utf-8"?>
<!-- Generator: Adobe Illustrator 26.3.1, SVG Export Plug-In . SVG Version: 6.00 Build 0)  -->
<svg version="1.1" id="圖層_1" xmlns="http://www.w3.org/2000/svg" xmlns:xlink="http://www.w3.org/1999/xlink" x="0px" y="0px"
	 viewBox="0 0 57 61" style="enable-background:new 0 0 57 61;" xml:space="preserve">
<style type="text/css">
	.st0{clip-path:url(#SVGID_00000176020460809339755360000009608797078781815964_);}
	.st1{fill:#E65642;}
	.st2{fill:#FFFFFF;}
</style>
<g>
	<defs>
		<rect id="SVGID_1_" width="57" height="61"/>
	</defs>
	<clipPath id="SVGID_00000072252527234167077590000017744786272087521935_">
		<use xlink:href="#SVGID_1_"  style="overflow:visible;"/>
	</clipPath>
	<g style="clip-path:url(#SVGID_00000072252527234167077590000017744786272087521935_);">
		<path class="st1" d="M56.6,23.5c-1.8-10.6-9-19-19.4-22.2C31-0.6,23.5-0.4,18.8,1.9c-4.6,2.1-8.7,4.8-12,8.5
			c-8.4,9.4-9.2,24.3-1.7,34.5c1.3,1.8,2.9,3.4,4.6,4.9c-0.5,1-3.6,5.1-6.4,6.2c-1,0.4-1.3,1.2-1.2,2C1.4,59.2,1.3,61,3.4,61
			c4.4,0,11.2-2.3,13.2-3.6c1.2-0.8,2.4-1.6,3.3-2.2c6.4,2,13.4,1.8,19.5-1C51,49,58.8,36.2,56.6,23.5"/>
		<path class="st2" d="M38.6,19.5c-1.6-2.4-4.1-4.1-6.9-4.7c-2.7-0.6-6.4-0.3-8.8,1.1c-5,3-8.1,8.4-7.6,14.3
			c0.2,2.9,1.6,5.6,3.5,7.8c1.7,2,4.2,3.3,6.8,3.6c2.7,0.3,5.7-0.7,8-2.1c2.2-1.3,4-3.2,5.3-5.3C41.5,29.8,41.5,23.8,38.6,19.5z
			 M26.4,35.6c-3.8-0.7-6.5-5.8-4.2-10.5c0.9-2,3.2-5.6,6.1-5.7c4.5-0.1,5.7,4,5.9,5.9C34.6,29.9,32.1,36.6,26.4,35.6z"/>
		<path class="st2" d="M33.3,37.9c1.1,0.8,2.2,1.8,3.4,2.4c1.5,0.7,3.1,1,5.3,0.2c1.4-0.5,2.8-2.2,1.7-4.5c-0.9-1.7-2.8-1.3-3.8-1
			c-1.1,0.3-2.5-0.4-3.7-1.4c-1.5-1.2-3-2.2-4.7-3.1c-1.1-0.6-2.6-1-3.2,0.2c-0.6,1.1,0,2.3,0.8,3.3C30.2,35.4,32.4,37.1,33.3,37.9z
			"/>
	</g>
</g>
</svg>
