<svg width="113" height="80" viewBox="0 0 113 80" fill="none" xmlns="http://www.w3.org/2000/svg">
<path opacity="0.9" d="M71.9295 17.8941C70.0844 15.7616 66.6117 17.5439 66.5736 20.114C66.5265 23.5663 65.1657 24.8278 61.6415 25.1915C60.046 25.3482 58.4353 25.1725 56.9111 24.6752C62.8409 22.0332 74.3843 14.875 67.0197 8.87504C60.442 3.52153 50.6674 7.49233 47.8516 14.9019C46.5065 18.4261 46.3159 23.1241 48.4614 26.3968C50.775 29.9187 55.6982 31.665 59.7134 31.9479C63.5246 32.215 67.9142 31.2633 70.7659 28.5584C73.8037 25.6763 74.743 21.1511 71.9295 17.8941ZM55.8238 14.5473C57.2182 13.3621 60.4757 12.5159 62.3566 13.6158C61.2357 14.783 59.2606 16.049 58.523 16.6864C56.7967 18.1814 54.9696 19.5798 53.4765 21.3239C53.4653 21.2745 53.4474 21.2296 53.4384 21.1803C53.0102 18.8997 54.111 16.0175 55.8327 14.5495" fill="#26B7BC"/>
<path opacity="0.9" d="M95.0434 17.8941C93.1983 15.7616 89.7234 17.5439 89.6876 20.114C89.6405 23.5663 88.2796 24.8278 84.7554 25.1915C83.1599 25.3482 81.5493 25.1725 80.025 24.6752C85.9526 22.0332 97.496 14.875 90.1247 8.87504C83.5493 3.52153 73.7791 7.49233 70.9588 14.9019C69.6137 18.4261 69.4209 23.1241 71.5686 26.3968C73.88 29.9187 78.8032 31.665 82.8207 31.9479C86.6319 32.215 91.0215 31.2633 93.8732 28.5584C96.9109 25.6763 97.8503 21.1511 95.0367 17.8941M78.94 14.5473C80.3344 13.3621 83.5919 12.5159 85.4706 13.6158C84.3496 14.783 82.3768 16.049 81.6392 16.6864C79.9107 18.1814 78.0836 19.5798 76.5905 21.3239C76.5792 21.2745 76.5613 21.2296 76.5523 21.1803C76.1241 18.8997 77.2249 16.0175 78.9467 14.5495" fill="#26B7BC"/>
<path opacity="0.9" d="M92.4647 48.6869C90.5771 45.587 87.1963 43.6791 83.6452 43.2436C80.6881 42.8822 75.4937 43.4142 74.5072 46.8216C74.4701 46.9585 74.4438 47.0981 74.4288 47.2391C72.8191 49.2256 71.7744 52.2222 71.53 54.1684C70.5279 62.1795 78.4462 68.1391 85.979 66.065C93.2337 64.0763 96.2916 54.9562 92.4647 48.6779M86.8847 59.1268C84.9051 61.3423 81.1275 61.358 78.8744 59.5286C77.2379 58.1998 76.6325 55.9529 76.9307 53.917C77.0876 52.8777 77.5831 51.8631 78.0158 50.9181C78.1593 50.6263 78.3005 50.3345 78.4417 50.0404C78.5798 49.9154 78.6971 49.7691 78.7892 49.6072C81.1342 48.7295 83.9859 48.3749 86.3578 50.2671C88.9943 52.3726 89.0952 56.6509 86.8847 59.1268Z" fill="#26B7BC"/>
<path opacity="0.9" d="M111.342 46.6283C109.452 43.5284 106.074 41.6227 102.522 41.185C99.5632 40.8236 94.371 41.3556 93.3845 44.763C93.3463 44.8996 93.3201 45.0393 93.3061 45.1805C91.6941 47.167 90.6494 50.1659 90.4073 52.1098C89.4029 60.1209 97.3235 66.0805 104.856 64.0064C112.109 62.0177 115.169 52.8976 111.342 46.6193M105.76 57.0682C103.782 59.2837 100.003 59.2994 97.7517 57.47C96.1151 56.1412 95.5098 53.8943 95.808 51.8584C95.9649 50.8191 96.4604 49.8045 96.8931 48.8595C97.0343 48.5677 97.1778 48.2759 97.319 47.9818C97.4558 47.8556 97.5729 47.7095 97.6665 47.5486C100.012 46.671 102.863 46.3163 105.233 48.2085C107.872 50.314 107.972 54.5924 105.76 57.0682Z" fill="#26B7BC"/>
<path opacity="0.9" d="M47.753 19.2097C44.9036 9.87641 38.0188 2.48476 28.2486 0.473542C23.5407 -0.493906 1.48723 -0.720617 0.13089 7.32199C-0.620142 11.7776 2.07012 25.5329 2.88841 30.2175C4.45773 39.241 6.34988 48.2129 8.08286 57.2073C8.97961 61.8043 14.6695 64.7246 18.9627 63.3913C28.1545 60.5361 37.2229 55.9345 43.2468 48.2174C49.8044 39.8134 50.8132 29.2725 47.7485 19.2097M22.2628 42.7719C20.6778 37.7461 19.8124 33.8449 18.2521 28.8101C17.1692 25.3152 16.1447 20.7293 15.147 17.2142C18.7139 15.7507 22.8098 15.1177 26.3565 16.5677C30.4883 18.2535 31.6653 22.8012 32.08 26.8932C32.896 34.8617 28.2486 39.5059 22.2628 42.7719Z" fill="#26B7BC"/>
<path opacity="0.9" d="M75.1037 51.2341C74.1352 49.5483 72.2341 48.1162 70.5033 47.5124C68.7726 46.9086 57.8322 46.5899 54.9984 47.9883C52.8036 49.0725 51.2724 50.7088 51.5325 54.1297C51.7993 57.6156 54.79 58.4574 56.8009 58.3137C58.7738 58.1746 62.3541 57.0747 63.0782 58.4349C65.2394 62.1207 61.6524 66.3541 57.7761 66.8906C53.048 67.546 48.5441 64.0758 47.3716 59.8693C45.9749 54.8435 46.0578 48.1028 49.5462 43.7818C53.8058 38.5024 62.585 40.9737 67.6449 43.3194C69.8151 44.3228 72.9223 39.7773 70.8127 37.9547C62.8383 31.0568 51.1984 28.4845 42.0202 35.9883C33.149 43.2408 32.889 57.3485 37.1867 67.1577C41.7399 77.5482 53.7318 82.7042 64.3807 78.574C75.1418 74.3989 81.1142 61.7054 75.1014 51.2341" fill="#26B7BC"/>
<path opacity="0.9" d="M80.1909 74.6254C85.8741 77.7073 91.9742 79.5457 98.4622 78.374C101.241 77.8854 103.873 76.7768 106.165 75.1304C108.071 73.7432 110.795 71.5861 110.503 68.9621C110.409 68.1114 109.676 67.2943 108.726 67.6153C106.739 68.2708 105.656 70.2281 104.002 71.4312C102.005 72.8408 99.7367 73.8171 97.3413 74.2977C92.0056 75.42 86.2328 74.0373 81.2535 72.0956C79.7873 71.5255 78.8323 73.8914 80.1909 74.6231" fill="#26B7BC"/>
<path opacity="0.9" d="M86.6724 57.0749C87.3229 57.0669 87.9453 56.808 88.4099 56.3521C88.7492 56.0064 88.9794 55.5684 89.0718 55.0926C89.1642 54.6168 89.1147 54.1243 88.9294 53.6765C88.7442 53.2287 88.4314 52.8454 88.03 52.5743C87.6287 52.3033 87.1565 52.1565 86.6724 52.1523C86.0224 52.1604 85.4003 52.4184 84.935 52.8729C84.4773 53.3363 84.219 53.9607 84.2153 54.6125C84.2736 55.9458 85.2937 57.0816 86.6814 57.0816" fill="#26B7BC"/>
<path opacity="0.9" d="M106.311 53.2749C106.182 53.3145 106.042 53.3017 105.921 53.2392C105.801 53.1766 105.71 53.0694 105.668 52.9404" fill="#26B7BC"/>
<path opacity="0.9" d="M105.752 55.582C106.408 55.5739 107.035 55.3135 107.503 54.8547C107.963 54.3876 108.223 53.7596 108.227 53.1039C108.167 51.7571 107.14 50.6348 105.761 50.6348C105.107 50.6427 104.48 50.9032 104.013 51.362C103.663 51.7069 103.424 52.1485 103.326 52.6303C103.228 53.1121 103.276 53.6122 103.464 54.0664C103.652 54.5207 103.971 54.9084 104.38 55.1801C104.789 55.4517 105.27 55.5947 105.761 55.591" fill="#26B7BC"/>
<path d="M8.9998 65.6568L1.57227 62.5075L20.1515 51.9414L38.8857 61.9912C38.8857 61.9912 36.5365 63.6823 34.9586 64.8596C34.073 63.9605 32.0537 62.7835 30.5098 61.9912C24.2564 58.7829 13.2542 58.6546 8.9998 65.6568Z" fill="#D8D8D8"/>
<path fill-rule="evenodd" clip-rule="evenodd" d="M2.91353 62.751C2.91353 62.751 2.91372 62.7507 3.29582 63.0251C3.67792 63.2995 3.67807 63.2993 3.67807 63.2993L3.67585 63.3025C3.67359 63.3057 3.66979 63.3111 3.66457 63.3186C3.65413 63.3338 3.63799 63.3575 3.61701 63.3894C3.57505 63.4532 3.51383 63.5495 3.44021 63.6749C3.2928 63.9259 3.0967 64.2918 2.906 64.745C2.52306 65.6549 2.17106 66.8951 2.25901 68.2548C2.34681 69.6122 2.81891 70.5869 3.26208 71.2195C3.48436 71.5368 3.69989 71.7687 3.85684 71.919C3.93524 71.9941 3.99875 72.0486 4.04076 72.083C4.06175 72.1002 4.07734 72.1123 4.0867 72.1194C4.09137 72.1229 4.09448 72.1253 4.09593 72.1263L4.0955 72.126C4.0955 72.126 4.09515 72.1258 3.82185 72.5082C3.54855 72.8906 3.54815 72.8903 3.54815 72.8903L3.54771 72.89L3.54671 72.8893L3.54419 72.8875L3.53718 72.8824C3.53163 72.8783 3.52436 72.8729 3.51548 72.8661C3.49773 72.8526 3.47351 72.8337 3.4437 72.8093C3.38412 72.7606 3.30206 72.6899 3.20461 72.5965C3.00985 72.41 2.75253 72.132 2.49018 71.7575C1.96408 71.0065 1.41984 69.8696 1.3193 68.3153C1.21892 66.7633 1.62025 65.3734 2.03773 64.3814C2.24724 63.8836 2.46311 63.4804 2.62763 63.2002C2.70998 63.0599 2.77971 62.9501 2.8297 62.8741C2.85471 62.8361 2.8748 62.8065 2.88909 62.7858C2.89624 62.7754 2.90194 62.7673 2.90608 62.7614L2.91111 62.7544L2.91272 62.7521L2.91353 62.751ZM4.09593 72.1263C4.09665 72.1268 4.09683 72.127 4.09683 72.127L4.09632 72.1266L4.09593 72.1263ZM3.67807 63.2993L3.67819 63.2992L3.6783 63.299L3.67807 63.2993Z" fill="#D8D8D8"/>
<path d="M3.3005 71.416C3.3005 71.416 2.58405 73.9998 3.70358 74.8536C3.70358 74.8536 6.08871 74.2777 5.84565 73.4148C5.26982 72.6383 4.55883 71.8082 3.3005 71.416Z" fill="#D8D8D8"/>
<path d="M12.6255 62.42C12.6255 62.42 14.4966 58.7301 19.8585 58.6097C25.2203 58.4893 28.7904 60.4893 28.2013 60.9527C27.6121 61.4161 12.6255 62.42 12.6255 62.42Z" fill="#7C7C7C"/>
<path d="M29.3988 64.4708C29.7687 64.4708 30.0686 64.17 30.0686 63.7989C30.0686 63.4278 29.7687 63.127 29.3988 63.127C29.0289 63.127 28.729 63.4278 28.729 63.7989C28.729 64.17 29.0289 64.4708 29.3988 64.4708Z" fill="white"/>
<path d="M21.368 64.7482C21.7379 64.7482 22.0378 64.4473 22.0378 64.0762C22.0378 63.7051 21.7379 63.4043 21.368 63.4043C20.9981 63.4043 20.6982 63.7051 20.6982 64.0762C20.6982 64.4473 20.9981 64.7482 21.368 64.7482Z" fill="white"/>
<path d="M37.4475 70.5632C37.4475 71.4468 37.4475 75.5016 35.6855 76.1078C32.7549 77.116 30.0478 76.8158 23.2592 76.3622C19.4656 76.1087 15.746 77.2088 12.7125 77.1136C11.7371 77.083 9.21616 77.051 8.85167 75.6108C5.424 62.0673 14.2945 59.9404 22.5494 59.9404C30.8043 59.9404 37.4475 65.1111 37.4475 70.5632Z" fill="#ECCB4D"/>
<path d="M20.4288 67.6207C21.6109 67.6207 22.5691 66.6126 22.5691 65.369C22.5691 64.1253 21.6109 63.1172 20.4288 63.1172C19.2468 63.1172 18.2886 64.1253 18.2886 65.369C18.2886 66.6126 19.2468 67.6207 20.4288 67.6207Z" fill="white"/>
<path d="M18.8887 63.8355C18.8887 63.8252 18.8887 63.816 18.8887 63.8063C19.0791 63.5955 19.3103 63.4259 19.5682 63.3076C19.8262 63.1894 20.1054 63.1251 20.3888 63.1186C21.5702 63.0955 22.5461 64.0842 22.5679 65.3284C22.5807 65.9196 22.367 66.4933 21.9709 66.9313C21.9618 66.9313 21.9527 66.9313 21.943 66.9313C20.287 66.9654 18.919 65.5783 18.8887 63.8355Z" fill="black"/>
<path d="M28.9284 67.4561C30.1104 67.433 31.0499 66.4059 31.0287 65.1624C31.0075 63.9188 30.0304 62.9294 28.8466 62.9525C27.6628 62.9757 26.7251 64.0027 26.747 65.2463C26.7688 66.4898 27.7471 67.4792 28.9284 67.4561Z" fill="white"/>
<path d="M27.3481 63.6695C27.3481 63.6598 27.3481 63.65 27.3481 63.6403C27.5386 63.4295 27.7698 63.2599 28.0277 63.1416C28.2856 63.0234 28.5648 62.9591 28.8483 62.9525C30.0297 62.9294 31.0055 63.9188 31.0304 65.1624C31.0436 65.7538 30.8297 66.3277 30.4328 66.7653H30.4055C28.7471 66.8 27.3791 65.4129 27.3481 63.6695Z" fill="black"/>
<path d="M25.2763 65.7982C24.9769 66.1929 24.4338 66.2178 24.118 65.8298C23.7889 65.4261 23.2361 66.0123 23.5634 66.4136C24.1338 67.1141 25.28 67.1081 25.8303 66.382C26.1425 65.9709 25.5909 65.3829 25.2763 65.7982Z" fill="black"/>
</svg>
