<svg width="57" height="61" viewBox="0 0 57 61" fill="none" xmlns="http://www.w3.org/2000/svg">
<g clip-path="url(#clip0_420_12835)">
<path d="M56.6295 23.5156C54.7984 12.8931 47.601 4.50033 37.2767 1.32109C30.9689 -0.590618 23.4736 -0.44724 18.8385 1.86966C14.2701 3.98916 10.1725 6.64892 6.84146 10.3892C-1.52251 19.8272 -2.37036 34.6616 5.14784 44.8705C6.48071 46.6729 8.03038 48.3052 9.76208 49.7308C9.22254 50.7698 6.1186 54.8696 3.37922 55.9439C2.38346 56.3345 2.05848 57.1574 2.20014 57.9075C1.38978 59.1938 1.34603 60.9995 3.38963 60.9995C7.81431 60.9995 14.5951 58.6951 16.6387 57.4047C17.8886 56.613 19.0156 55.7756 19.9718 55.227C26.3359 57.1886 33.3312 57.0431 39.5141 54.2421C51.0445 49.0202 58.8127 36.2242 56.6191 23.5156" fill="#E65642"/>
<path d="M28.6416 17.4137C27.0073 15.0147 24.5272 13.3223 21.6984 12.6758C19.0194 12.09 15.3259 12.3673 12.9157 13.7576C7.96398 16.7655 4.83088 22.1788 5.31834 28.107C5.55582 30.9919 6.94947 33.662 8.84725 35.8632C10.5892 37.8803 13.025 39.1688 15.6718 39.4735C18.4111 39.7862 21.3338 38.8231 23.6607 37.4141C25.8457 36.0967 27.6735 34.262 28.9833 32.0716C31.5977 27.6651 31.6206 21.6785 28.6416 17.4137ZM16.5259 33.4953C12.7074 32.8387 10.0201 27.7005 12.2907 22.9813C13.2282 21.024 15.453 17.3866 18.4361 17.3012C22.915 17.1803 24.1086 21.3033 24.2878 23.2148C24.7211 27.8464 22.1838 34.4687 16.5259 33.4953Z" fill="white"/>
<path d="M23.4004 35.7815C24.4566 36.5986 25.5919 37.5596 26.8064 38.1411C28.3125 38.8623 29.902 39.1292 32.0769 38.3371C33.5184 37.8139 34.8996 36.1025 33.7434 33.8826C32.8601 32.1775 30.9061 32.6319 29.902 32.8987C28.8417 33.176 27.4126 32.5048 26.1898 31.5438C24.7185 30.353 23.1404 29.3007 21.4755 28.4005C20.409 27.8127 18.8424 27.4437 18.2445 28.5735C17.6696 29.6657 18.2737 30.8268 19.0778 31.8502C20.2569 33.3511 22.4484 35.0457 23.4004 35.7815Z" fill="white"/>
<path d="M37.5641 18.7181C37.3755 20.5419 36.9182 22.3276 36.2072 24.0172C35.8207 24.9378 35.9379 26.0026 36.8754 26.5525C37.6464 27.0076 39.0157 26.814 39.4084 25.8852C40.3845 23.6033 41.0084 21.1859 41.2587 18.716C41.3615 17.7192 40.3335 16.8624 39.4084 16.8624C38.3228 16.8624 37.6608 17.7171 37.558 18.716L37.5641 18.7181Z" fill="white"/>
<path d="M38.7607 19.7561C42.5519 19.6901 46.3425 19.6901 50.1323 19.7561L48.5431 16.9654C44.3119 23.5435 44.1207 31.6271 44.1165 39.2082C44.1165 41.5952 47.8173 41.5993 47.8173 39.2082C47.8132 32.2697 47.8523 24.8554 51.7298 18.8354C52.5111 17.6224 51.4811 16.0695 50.1323 16.0469C46.3425 15.9837 42.5519 15.9844 38.7607 16.0489C36.3819 16.0881 36.3737 19.7972 38.7607 19.7561Z" fill="white"/>
</g>
<defs>
<clipPath id="clip0_420_12835">
<rect width="57" height="61" fill="white"/>
</clipPath>
</defs>
</svg>
