<?xml version="1.0" encoding="UTF-8"?>
<svg id="_層_1" data-name="圖層 1" xmlns="http://www.w3.org/2000/svg" viewBox="0 0 180 180">
  <defs>
    <style>
      .cls-1 {
        fill: #c6172b;
      }

      .cls-2 {
        fill: #f9d70b;
      }

      .cls-3 {
        fill: #ff8710;
      }

      .cls-4 {
        fill: #0669f7;
      }

      .cls-5 {
        fill: #51b239;
      }

      .cls-6 {
        fill: #9225e8;
      }
    </style>
  </defs>
  <path class="cls-3" d="M164.94,27.82c6.9,0,12.5-5.6,12.5-12.5s-5.6-12.5-12.5-12.5-12.5,5.6-12.5,12.5,5.6,12.5,12.5,12.5Z"/>
  <path class="cls-6" d="M134.94,27.82c6.9,0,12.5-5.6,12.5-12.5s-5.6-12.5-12.5-12.5-12.5,5.6-12.5,12.5,5.6,12.5,12.5,12.5Z"/>
  <path class="cls-2" d="M104.94,27.82c6.9,0,12.5-5.6,12.5-12.5s-5.6-12.5-12.5-12.5-12.5,5.6-12.5,12.5,5.6,12.5,12.5,12.5Z"/>
  <path class="cls-5" d="M74.94,27.82c6.9,0,12.5-5.6,12.5-12.5s-5.6-12.5-12.5-12.5-12.5,5.6-12.5,12.5,5.6,12.5,12.5,12.5Z"/>
  <path class="cls-4" d="M44.94,27.82c6.9,0,12.5-5.6,12.5-12.5s-5.6-12.5-12.5-12.5-12.5,5.6-12.5,12.5,5.6,12.5,12.5,12.5Z"/>
  <path class="cls-1" d="M14.94,27.82c6.9,0,12.5-5.6,12.5-12.5S21.84,2.82,14.94,2.82,2.44,8.42,2.44,15.32s5.6,12.5,12.5,12.5Z"/>
  <path class="cls-3" d="M177.35,32.9h-25v25h25v-25Z"/>
  <path class="cls-3" d="M165.18,62l-13,26h26l-13-26Z"/>
  <path class="cls-3" d="M172.23,93.64h-13.86l-6.93,12,6.93,12h13.86l6.93-12-6.93-12Z"/>
  <polygon class="cls-3" points="177.64 131.77 169.21 131.77 169.21 123.35 161.06 123.35 161.06 131.77 152.64 131.77 152.64 139.92 161.06 139.92 161.06 148.35 169.21 148.35 169.21 139.92 177.64 139.92 177.64 131.77"/>
  <polygon class="cls-3" points="177.34 159.19 171.2 153.05 164.84 159.4 158.49 153.05 152.34 159.19 158.7 165.55 152.34 171.9 158.49 178.05 164.84 171.69 171.2 178.05 177.34 171.9 170.99 165.55 177.34 159.19"/>
  <path class="cls-6" d="M147.35,32.9h-25v25h25v-25Z"/>
  <path class="cls-6" d="M135.18,62l-13,26h26l-13-26Z"/>
  <path class="cls-6" d="M142.23,93.64h-13.86l-6.93,12,6.93,12h13.86l6.93-12-6.93-12Z"/>
  <polygon class="cls-6" points="147.64 131.77 139.21 131.77 139.21 123.35 131.06 123.35 131.06 131.77 122.64 131.77 122.64 139.92 131.06 139.92 131.06 148.35 139.21 148.35 139.21 139.92 147.64 139.92 147.64 131.77"/>
  <polygon class="cls-6" points="147.34 159.19 141.2 153.05 134.84 159.4 128.49 153.05 122.34 159.19 128.7 165.55 122.34 171.9 128.49 178.05 134.84 171.69 141.2 178.05 147.34 171.9 140.99 165.55 147.34 159.19"/>
  <path class="cls-2" d="M117.35,32.9h-25v25h25v-25Z"/>
  <path class="cls-2" d="M105.18,62l-13,26h26l-13-26Z"/>
  <path class="cls-2" d="M112.23,93.64h-13.86l-6.93,12,6.93,12h13.86l6.93-12-6.93-12Z"/>
  <polygon class="cls-2" points="117.64 131.77 109.21 131.77 109.21 123.35 101.06 123.35 101.06 131.77 92.64 131.77 92.64 139.92 101.06 139.92 101.06 148.35 109.21 148.35 109.21 139.92 117.64 139.92 117.64 131.77"/>
  <polygon class="cls-2" points="117.34 159.19 111.2 153.05 104.84 159.4 98.49 153.05 92.34 159.19 98.7 165.55 92.34 171.9 98.49 178.05 104.84 171.69 111.2 178.05 117.34 171.9 110.99 165.55 117.34 159.19"/>
  <path class="cls-5" d="M87.35,32.9h-25v25h25v-25Z"/>
  <path class="cls-5" d="M75.18,62l-13,26h26l-13-26Z"/>
  <path class="cls-5" d="M82.23,93.64h-13.86l-6.93,12,6.93,12h13.86l6.93-12-6.93-12Z"/>
  <polygon class="cls-5" points="87.64 131.77 79.21 131.77 79.21 123.35 71.06 123.35 71.06 131.77 62.64 131.77 62.64 139.92 71.06 139.92 71.06 148.35 79.21 148.35 79.21 139.92 87.64 139.92 87.64 131.77"/>
  <polygon class="cls-5" points="87.34 159.19 81.2 153.05 74.84 159.4 68.49 153.05 62.34 159.19 68.7 165.55 62.34 171.9 68.49 178.05 74.84 171.69 81.2 178.05 87.34 171.9 80.99 165.55 87.34 159.19"/>
  <path class="cls-4" d="M57.35,32.9h-25v25h25v-25Z"/>
  <path class="cls-4" d="M45.18,62l-13,26h26l-13-26Z"/>
  <path class="cls-4" d="M52.23,93.64h-13.86l-6.93,12,6.93,12h13.86l6.93-12-6.93-12Z"/>
  <polygon class="cls-4" points="57.64 131.77 49.21 131.77 49.21 123.35 41.06 123.35 41.06 131.77 32.64 131.77 32.64 139.92 41.06 139.92 41.06 148.35 49.21 148.35 49.21 139.92 57.64 139.92 57.64 131.77"/>
  <polygon class="cls-4" points="57.34 159.19 51.2 153.05 44.84 159.4 38.49 153.05 32.34 159.19 38.7 165.55 32.34 171.9 38.49 178.05 44.84 171.69 51.2 178.05 57.34 171.9 50.99 165.55 57.34 159.19"/>
  <path class="cls-1" d="M27.35,32.9H2.35v25H27.35v-25Z"/>
  <path class="cls-1" d="M15.18,62L2.18,88H28.18l-13-26Z"/>
  <path class="cls-1" d="M22.23,93.64H8.37l-6.93,12,6.93,12h13.86l6.93-12-6.93-12Z"/>
  <polygon class="cls-1" points="27.64 131.77 19.21 131.77 19.21 123.35 11.06 123.35 11.06 131.77 2.64 131.77 2.64 139.92 11.06 139.92 11.06 148.35 19.21 148.35 19.21 139.92 27.64 139.92 27.64 131.77"/>
  <polygon class="cls-1" points="27.34 159.19 21.2 153.05 14.84 159.4 8.49 153.05 2.34 159.19 8.7 165.55 2.34 171.9 8.49 178.05 14.84 171.69 21.2 178.05 27.34 171.9 20.99 165.55 27.34 159.19"/>
</svg>