<svg width="362" height="499" viewBox="0 0 362 499" fill="none" xmlns="http://www.w3.org/2000/svg">
<path d="M11.06 16.96V18.68H20.42V16.96H11.06ZM10.84 25.78V27.54H20.56V25.78H10.84ZM21.96 16.64V18.7H27.18V16.64H21.96ZM14.84 15.9V29.8H16.84V15.9H14.84ZM21.06 16.64V26.2C21.06 28.66 21.74 29.32 23.9 29.32C24.36 29.32 26.22 29.32 26.72 29.32C28.62 29.32 29.24 28.46 29.5 25.64C28.86 25.5 27.94 25.12 27.42 24.76C27.34 26.76 27.2 27.18 26.52 27.18C26.1 27.18 24.58 27.18 24.22 27.18C23.46 27.18 23.34 27.04 23.34 26.18V16.64H21.06ZM25.98 16.64V22.3C25.98 22.52 25.92 22.58 25.66 22.6C25.4 22.6 24.56 22.6 23.78 22.56C24.08 23.16 24.46 24.12 24.58 24.78C25.8 24.78 26.7 24.74 27.38 24.36C28.1 24 28.28 23.36 28.28 22.36V16.64H25.98ZM13.5 22.88H18.04V23.68H13.5V22.88ZM13.5 20.74H18.04V21.54H13.5V20.74ZM11.64 19.32V25.12H20.02V19.32H11.64ZM13.46 12.22V14.06H19.74V12.22H13.46ZM21.74 12.24V14.06H29.24V12.24H21.74ZM13.58 10.84C12.96 12.42 11.84 14 10.68 15.04C11.14 15.42 11.94 16.26 12.28 16.68C13.56 15.4 14.9 13.4 15.7 11.46L13.58 10.84ZM21.86 10.84C21.34 12.5 20.38 14.18 19.24 15.24C19.76 15.56 20.64 16.26 21.04 16.64C22.24 15.38 23.4 13.38 24.04 11.38L21.86 10.84ZM14.76 14.72C15.48 15.34 16.4 16.22 16.82 16.8L18.32 15.4C17.86 14.84 16.92 14.02 16.18 13.48L14.76 14.72ZM23.48 14.78C24.2 15.32 25.1 16.14 25.52 16.68L27.12 15.28C26.66 14.76 25.72 14 25.02 13.5L23.48 14.78ZM36.22 11.9V14H43.34V11.9H36.22ZM38.24 16.16L37.58 18.24H41.64V16.16H38.24ZM37 21.66C37.8 22.28 38.78 23.16 39.22 23.76L40.28 21.74C39.82 21.2 38.82 20.4 38.02 19.86L37 21.66ZM43.2 13.34V25.06H45.32V13.34H43.2ZM46.56 11.4V27.08C46.56 27.4 46.44 27.5 46.12 27.52C45.76 27.52 44.74 27.52 43.64 27.48C43.96 28.14 44.28 29.18 44.38 29.82C45.96 29.82 47.08 29.74 47.82 29.36C48.54 28.98 48.78 28.36 48.78 27.08V11.4H46.56ZM37.7 12.64C37.38 15.7 36.58 19.66 34.72 21.9C35.16 22.3 35.82 23.1 36.14 23.58C38.36 20.98 39.4 16.62 39.98 12.96L37.7 12.64ZM40.74 16.16V16.62C40.18 22.12 38.4 26 35.52 27.96C35.98 28.32 36.7 29.26 37.02 29.8C40.1 27.56 42.2 23.02 42.92 16.5L41.54 16.08L41.16 16.16H40.74ZM34.18 11.04C33.32 13.96 31.84 16.88 30.22 18.78C30.6 19.4 31.18 20.78 31.38 21.36C33.42 18.98 35.26 15.2 36.4 11.7L34.18 11.04ZM32.6 16.54V29.78H34.8V14.44L34.74 14.4L32.6 16.54Z" fill="#239EE1"/>
<rect x="0.5" y="0.5" width="59" height="39" stroke="#239EE1"/>
<path d="M80.42 18.54H90.482V20.196H80.42V18.54ZM89.906 18.54H91.688C91.688 18.54 91.688 19.08 91.67 19.314C91.436 24.84 91.184 26.946 90.554 27.666C90.158 28.188 89.708 28.332 89.06 28.404C88.448 28.476 87.35 28.458 86.252 28.404C86.216 27.9 86 27.18 85.694 26.694C86.792 26.784 87.836 26.802 88.268 26.802C88.61 26.802 88.826 26.766 89.006 26.568C89.474 26.082 89.708 24.048 89.906 18.846V18.54ZM83.966 19.008H85.802C85.424 23.004 84.56 26.73 79.376 28.62C79.178 28.17 78.674 27.468 78.278 27.09C83.048 25.524 83.642 22.32 83.966 19.008ZM82.076 12.42L83.858 12.852C82.85 15.966 81.032 18.648 78.926 20.34C78.62 19.998 77.9 19.368 77.486 19.08C79.592 17.604 81.23 15.192 82.076 12.42ZM85.082 12.114H89.096V13.698H85.082V12.114ZM87.476 12.114H89.366C90.248 14.868 92.156 17.46 94.55 18.756C94.19 19.116 93.614 19.836 93.344 20.304C90.806 18.702 88.862 15.876 87.872 13.032H87.476V12.114ZM97.52 16.416H102.632V17.694H97.52V16.416ZM97.52 19.422H102.632V20.664H97.52V19.422ZM97.52 22.5H102.632V23.796H97.52V22.5ZM105.242 20.34H112.064V21.798H105.242V20.34ZM98.438 13.446H101.354V14.76H98.438V13.446ZM104 12.726H110.894V14.148H104V12.726ZM103.874 23.742H112.388V25.236H103.874V23.742ZM107.492 18.594H109.112V28.458H107.492V18.594ZM99.626 17.064H100.796V23.004H99.626V17.064ZM110.39 12.726H111.92C111.92 12.726 111.902 13.122 111.884 13.32C111.776 16.272 111.614 17.46 111.218 17.91C110.966 18.234 110.642 18.378 110.192 18.414C109.814 18.468 109.076 18.468 108.338 18.432C108.302 18 108.158 17.424 107.942 17.046C108.608 17.1 109.184 17.118 109.436 17.118C109.67 17.118 109.814 17.1 109.94 16.938C110.156 16.686 110.282 15.678 110.39 12.942V12.726ZM105.116 18.738L106.556 19.026C106.196 20.682 105.584 22.338 104.864 23.4C104.576 23.202 103.928 22.878 103.568 22.716C104.324 21.726 104.846 20.232 105.116 18.738ZM98.222 11.79L99.77 12.132C99.104 14.598 98.006 16.956 96.71 18.486C96.458 18.216 95.81 17.694 95.468 17.478C96.728 16.11 97.7 13.986 98.222 11.79ZM96.872 16.416H98.258V21.186C98.258 23.436 98.042 26.55 96.746 28.548C96.494 28.332 95.864 27.936 95.54 27.792C96.764 25.902 96.872 23.22 96.872 21.186V16.416ZM102.164 16.416H103.586V26.784C103.586 27.522 103.424 27.972 102.938 28.224C102.434 28.476 101.696 28.494 100.508 28.494C100.454 28.098 100.202 27.45 100.004 27.054C100.832 27.09 101.606 27.09 101.84 27.072C102.074 27.072 102.164 27 102.164 26.766V16.416ZM106.394 13.194H107.924C107.654 15.75 106.952 17.784 104.36 18.936C104.18 18.576 103.784 18.036 103.442 17.784C105.638 16.866 106.16 15.192 106.394 13.194ZM100.94 13.446H101.282L101.498 13.374L102.488 14.004C102.092 15.138 101.408 16.506 100.868 17.37C100.58 17.154 100.094 16.866 99.788 16.722C100.22 15.912 100.706 14.598 100.94 13.716V13.446ZM122.81 19.098L124.358 19.548C123.26 21.852 121.442 23.958 119.57 25.308C119.354 24.984 118.778 24.354 118.436 24.066C120.236 22.914 121.892 21.096 122.81 19.098ZM126.086 16.974L127.4 16.308C128.39 17.496 129.668 19.17 130.262 20.214L128.858 21.024C128.318 19.944 127.076 18.216 126.086 16.974ZM120.362 21.042C122.036 24.156 125.546 26.316 130.1 27.09C129.74 27.45 129.29 28.116 129.074 28.566C124.376 27.594 120.92 25.2 118.976 21.51L120.362 21.042ZM122.612 21.114H127.706V22.5H121.37L122.612 21.114ZM127.13 21.114H127.472L127.742 21.042L128.822 21.546C127.148 25.56 123.188 27.648 118.868 28.584C118.724 28.17 118.346 27.504 118.058 27.144C122.054 26.424 125.798 24.516 127.13 21.348V21.114ZM117.59 15.57L119.12 16.11C117.968 18.288 116.204 20.538 114.512 21.978C114.35 21.618 113.864 20.79 113.576 20.43C115.088 19.242 116.654 17.424 117.59 15.57ZM117.212 11.808L118.724 12.402C117.716 13.95 116.114 15.642 114.656 16.758C114.44 16.416 114.008 15.822 113.738 15.516C115.034 14.58 116.474 13.05 117.212 11.808ZM115.97 19.152L117.41 17.73L117.59 17.802V28.566H115.97V19.152ZM119.624 16.956C119.552 16.596 119.282 15.786 119.084 15.336C119.444 15.282 119.822 15.03 120.29 14.724C120.758 14.382 122.306 13.194 123.35 11.916L125.042 12.672C123.692 14.022 122.09 15.318 120.614 16.128V16.182C120.614 16.182 119.624 16.632 119.624 16.956ZM119.624 16.956V15.858L120.452 15.408L125.168 15.282C124.934 15.66 124.646 16.254 124.52 16.578C120.614 16.722 120.002 16.812 119.624 16.956ZM119.228 20.304C119.156 19.98 118.904 19.152 118.742 18.72C119.282 18.648 119.894 18.342 120.74 17.856C121.676 17.37 124.754 15.462 126.878 13.482L128.444 14.346C125.834 16.506 122.936 18.306 120.236 19.53V19.584C120.236 19.584 119.228 19.998 119.228 20.304ZM119.228 20.304L119.192 19.134L120.128 18.648L128.354 18.198C128.372 18.612 128.462 19.188 128.534 19.512C120.704 19.998 119.822 20.07 119.228 20.304ZM133.448 14.724H138.938V26.64H133.448V25.128H137.39V16.218H133.448V14.724ZM132.44 14.724H134.006V28.026H132.44V14.724ZM133.358 19.638H138.164V21.132H133.358V19.638ZM135.122 11.79L136.958 12.078C136.58 13.248 136.13 14.508 135.77 15.336L134.402 15.012C134.69 14.112 134.996 12.744 135.122 11.79ZM141.422 14.634H146.84V16.2H141.422V14.634ZM146.246 14.634H147.83C147.83 14.634 147.83 15.228 147.812 15.444C147.56 23.634 147.326 26.46 146.588 27.378C146.156 27.972 145.706 28.152 145.022 28.242C144.374 28.314 143.294 28.278 142.268 28.242C142.232 27.756 142.016 27.036 141.71 26.586C142.88 26.676 143.96 26.694 144.392 26.694C144.752 26.694 144.968 26.64 145.166 26.388C145.76 25.758 146.03 22.716 146.246 14.976V14.634ZM141.656 11.772L143.294 12.15C142.61 14.832 141.494 17.514 140.27 19.224C139.964 18.954 139.262 18.468 138.866 18.252C140.09 16.686 141.08 14.22 141.656 11.772ZM140.81 19.53L142.142 18.774C143.096 20.034 144.32 21.78 144.896 22.842L143.438 23.724C142.916 22.626 141.746 20.844 140.81 19.53ZM155.75 15.57V16.542H160.124V15.57H155.75ZM154.382 14.634H161.582V17.478H154.382V14.634ZM155.102 20.826V24.606H160.772V20.826H155.102ZM153.77 19.836H162.176V25.596H153.77V19.836ZM157.046 22.284V23.148H158.792V22.284H157.046ZM156.074 21.492H159.836V23.94H156.074V21.492ZM152.726 18.18H163.292V19.17H152.726V18.18ZM157.19 16.866H158.648V18.63H157.19V16.866ZM150.386 12.492H165.65V28.512H163.994V13.914H151.988V28.512H150.386V12.492ZM151.394 26.406H164.84V27.828H151.394V26.406ZM167.972 12.906H177.332V14.49H167.972V12.906ZM167.666 18.81H177.566V20.394H167.666V18.81ZM174.038 13.32H175.712V28.512H174.038V13.32ZM169.898 13.32H171.5V19.224C171.5 22.608 171.212 26.046 168.782 28.638C168.512 28.296 167.918 27.738 167.522 27.486C169.664 25.164 169.898 22.158 169.898 19.224V13.32ZM182.03 12.096L183.65 12.744C182.3 14.454 180.302 16.056 178.466 17.1C178.178 16.722 177.674 16.218 177.242 15.894C178.934 15.048 180.968 13.554 182.03 12.096ZM182.498 17.046L184.046 17.694C182.66 19.494 180.554 21.222 178.664 22.32C178.376 21.96 177.89 21.456 177.458 21.132C179.24 20.196 181.346 18.612 182.498 17.046ZM182.858 21.888L184.46 22.518C182.93 25.074 180.446 27.18 177.728 28.494C177.458 28.08 176.954 27.486 176.522 27.126C179.078 26.046 181.562 24.12 182.858 21.888ZM186.044 19.638H201.974V21.15H186.044V19.638ZM194.072 22.878H200.804V24.354H194.072V22.878ZM193.298 20.376H195.026V27.126H193.298V20.376ZM190.094 23.274C191.138 26.082 193.478 26.586 196.844 26.604C197.672 26.604 201.308 26.604 202.406 26.568C202.154 26.946 201.884 27.702 201.794 28.206H196.772C192.578 28.206 190.13 27.45 188.69 23.76L190.094 23.274ZM188.978 21.654L190.67 21.888C190.094 24.876 188.798 27.126 186.818 28.548C186.566 28.242 185.9 27.612 185.522 27.36C187.394 26.172 188.528 24.192 188.978 21.654ZM189.482 16.128V17.352H198.374V16.128H189.482ZM189.482 13.752V14.958H198.374V13.752H189.482ZM187.844 12.492H200.102V18.594H187.844V12.492ZM208.814 12.654H213.548V14.112H208.814V12.654ZM208.814 16.884H213.584V18.324H208.814V16.884ZM208.796 21.186H213.692V22.626H208.796V21.186ZM212.9 12.654H214.304C214.304 12.654 214.304 13.248 214.286 13.446C214.232 23.562 214.232 26.82 213.782 27.63C213.476 28.17 213.17 28.332 212.702 28.404C212.252 28.494 211.676 28.494 211.046 28.458C211.01 28.026 210.866 27.378 210.65 26.964C211.226 27 211.712 27 212 27C212.234 27.018 212.36 26.946 212.504 26.64C212.81 26.046 212.864 22.878 212.9 13.068V12.654ZM210.218 13.392H211.604V18.234C211.604 21.276 211.226 25.704 208.688 28.566C208.49 28.278 207.95 27.72 207.68 27.522C210.002 24.84 210.218 21.06 210.218 18.216V13.392ZM215.258 12.654H218.966V14.058H216.68V28.53H215.258V12.654ZM218.678 12.654H218.948L219.146 12.6L220.208 13.194C219.758 14.958 219.146 17.28 218.624 18.882C219.74 20.52 219.956 21.96 219.974 23.202C219.974 24.354 219.758 25.182 219.272 25.578C219.038 25.776 218.732 25.884 218.372 25.938C218.084 25.974 217.724 25.992 217.364 25.974C217.364 25.578 217.256 24.948 217.04 24.534C217.328 24.552 217.58 24.552 217.796 24.552C217.976 24.534 218.138 24.48 218.264 24.354C218.498 24.156 218.552 23.616 218.552 22.986C218.552 21.906 218.354 20.574 217.292 19.026C217.832 17.19 218.39 14.472 218.678 13.176V12.654ZM204.944 13.482H208.238V23.778H204.944V22.194H206.906V15.048H204.944V13.482ZM204.242 13.482H205.538V25.506H204.242V13.482ZM221.738 19.062H238.298V20.916H221.738V19.062ZM245.12 12.834H255.776V28.368H254.156V14.328H246.686V28.512H245.12V12.834ZM247.316 16.758H253.634V18.036H247.316V16.758ZM245.948 25.938H254.984V27.45H245.948V25.938ZM249.746 14.814H251.096V20.556H249.746V14.814ZM249.206 21.06V23.454H251.708V21.06H249.206ZM247.928 19.836H253.04V24.678H247.928V19.836ZM243.104 11.88L244.652 12.348C243.626 15.444 241.934 18.63 240.098 20.736C239.954 20.322 239.522 19.35 239.234 18.918C240.8 17.208 242.24 14.544 243.104 11.88ZM241.61 16.524L243.212 14.922L243.23 14.94V28.548H241.61V16.524ZM264.83 22.536C264.362 19.62 268.412 18.882 268.412 16.956C268.412 15.786 267.53 15.012 265.892 15.012C264.704 15.012 263.678 15.534 262.706 16.56L261.518 15.462C262.688 14.166 264.164 13.32 266.108 13.32C268.682 13.32 270.428 14.58 270.428 16.794C270.428 19.476 266.288 19.926 266.684 22.536H264.83ZM265.784 27.126C265.01 27.126 264.434 26.586 264.434 25.776C264.434 24.948 265.028 24.39 265.784 24.39C266.54 24.39 267.116 24.948 267.116 25.776C267.116 26.586 266.54 27.126 265.784 27.126Z" fill="#333C3E"/>
<rect x="113" y="52" width="128" height="128" fill="white" stroke="#666666" stroke-width="2"/>
<rect x="188" y="208" width="128" height="128" rx="9" fill="white" stroke="#29BCC2" stroke-width="2"/>
<rect x="40" y="208" width="128" height="128" rx="9" fill="white" stroke="#29BCC2" stroke-width="2"/>
<rect x="40" y="352" width="128" height="128" rx="9" fill="white" stroke="#29BCC2" stroke-width="2"/>
<rect x="188" y="352" width="128" height="128" rx="9" fill="white" stroke="#29BCC2" stroke-width="2"/>
<rect x="207" y="217" width="40" height="50" fill="#29BCC2"/>
<rect x="59" y="217" width="40" height="50" fill="#29BCC2"/>
<rect x="59" y="361" width="40" height="50" fill="#29BCC2"/>
<rect x="59" y="421" width="40" height="50" fill="#29BCC2"/>
<rect x="109" y="421" width="40" height="50" fill="#29BCC2"/>
<path d="M257 217H297L257 267V217Z" fill="#29BCC2"/>
<path d="M109 217H149L109 267V217Z" fill="#29BCC2"/>
<path d="M257 277H297L257 327V277Z" fill="#29BCC2"/>
<path d="M109 277H149L109 327V277Z" fill="#29BCC2"/>
<path d="M109 411H149L109 361V411Z" fill="#29BCC2"/>
<path d="M257 411H297L257 361V411Z" fill="#29BCC2"/>
<path d="M257 421H297L257 471V421Z" fill="#29BCC2"/>
<rect x="207" y="277" width="40" height="50" fill="#29BCC2"/>
<rect x="59" y="277" width="40" height="50" fill="#29BCC2"/>
<path d="M177 116H217L177 66V116Z" fill="#29BCC2"/>
<path d="M177 116H217L177 166V116Z" fill="#29BCC2"/>
<rect x="137" y="116" width="40" height="50" fill="#29BCC2"/>
<rect x="137" y="66" width="40" height="50" fill="#29BCC2"/>
<rect x="207" y="361" width="40" height="50" fill="#29BCC2"/>
<rect x="207" y="421" width="40" height="50" fill="#29BCC2"/>
<path opacity="0.45" d="M302.706 418.387C301.716 416.319 300.198 414.549 298.306 413.258C296.413 411.967 294.214 411.2 291.93 411.034C289.646 410.868 287.359 411.31 285.301 412.315C283.242 413.319 281.485 414.851 280.208 416.754C278.931 418.658 278.179 420.866 278.028 423.154C277.877 425.442 278.333 427.73 279.349 429.785C280.365 431.841 281.906 433.59 283.814 434.857C285.723 436.124 287.932 436.863 290.218 437L286.732 429.104C285.998 427.574 285.901 425.814 286.463 424.212C287.024 422.61 288.198 421.297 289.726 420.562L290.052 420.408C291.257 419.83 292.641 419.756 293.901 420.2C295.161 420.645 296.193 421.573 296.769 422.779L301.226 432.074C302.728 430.16 303.663 427.863 303.925 425.443C304.186 423.023 303.764 420.578 302.706 418.387Z" fill="#FFF164"/>
<g filter="url(#filter0_d_1016_2509)">
<path d="M295.974 420.956C295.382 419.711 294.323 418.754 293.031 418.296C291.738 417.837 290.318 417.914 289.082 418.51L288.748 418.669C287.18 419.427 285.975 420.781 285.399 422.433C284.823 424.086 284.922 425.9 285.675 427.479L289.294 435.635L297.188 453.585C297.322 454.196 303.109 466.522 303.109 466.522C301.579 465.959 299.854 465.299 298.251 464.645C294.547 463.104 289.252 463.422 286.149 464.51C284.509 465.079 283.428 465.868 282.93 466.84C282.761 467.163 282.615 467.498 282.493 467.842C281.704 470.08 281.716 473.07 283.623 474.341C284.536 474.839 285.549 475.123 286.586 475.173C288.043 475.356 290.29 475.24 292.549 476.395C296.35 478.285 305.028 482.424 310.099 484.417C311.003 484.521 313.183 485.291 314.058 485.328C316.821 485.664 319.159 486.104 320.088 486.508C320.81 486.826 324.253 486.911 324.253 486.911C327.174 487.26 331.88 486.618 336.574 484.35C341.269 482.081 345.683 480.302 347.505 475.986L347.681 475.9V475.65C348.604 473.412 349.052 471.006 348.995 468.584C348.939 466.162 348.379 463.779 347.353 461.588L344.475 455.56L337.024 439.939C336.52 438.875 334.595 435.433 331.109 435.8C329.611 435.967 328.236 436.712 327.271 437.879L327.01 438.025L326.925 438.074C326.308 437.264 325.461 436.661 324.495 436.347C323.53 436.032 322.493 436.021 321.521 436.313C320.601 436.539 319.738 436.952 318.984 437.527C318.229 438.102 317.601 438.828 317.137 439.658C315.193 438.056 312.764 437.909 310.275 439.376C309.447 439.867 308.728 440.523 308.161 441.304C307.595 442.086 307.194 442.976 306.983 443.919L300.625 430.597L295.974 420.956Z" fill="#EDC8A9"/>
</g>
<rect x="309" y="331" width="2" height="21" fill="#F9C540"/>
<rect x="340" y="360" width="2" height="21" transform="rotate(90 340 360)" fill="#F9C540"/>
<rect x="332.85" y="337" width="2" height="21" transform="rotate(45 332.85 337)" fill="#F9C540"/>
<defs>
<filter id="filter0_d_1016_2509" x="275" y="410" width="87" height="89" filterUnits="userSpaceOnUse" color-interpolation-filters="sRGB">
<feFlood flood-opacity="0" result="BackgroundImageFix"/>
<feColorMatrix in="SourceAlpha" type="matrix" values="0 0 0 0 0 0 0 0 0 0 0 0 0 0 0 0 0 0 127 0" result="hardAlpha"/>
<feOffset dx="3" dy="2"/>
<feGaussianBlur stdDeviation="5"/>
<feColorMatrix type="matrix" values="0 0 0 0 0 0 0 0 0 0 0 0 0 0 0 0 0 0 0.25 0"/>
<feBlend mode="normal" in2="BackgroundImageFix" result="effect1_dropShadow_1016_2509"/>
<feBlend mode="normal" in="SourceGraphic" in2="effect1_dropShadow_1016_2509" result="shape"/>
</filter>
</defs>
</svg>
