<?xml version="1.0" encoding="utf-8"?>
<!-- Generator: Adobe Illustrator 26.3.1, SVG Export Plug-In . SVG Version: 6.00 Build 0)  -->
<svg version="1.1" id="圖層_1" xmlns="http://www.w3.org/2000/svg" xmlns:xlink="http://www.w3.org/1999/xlink" x="0px" y="0px"
	 viewBox="0 0 354 461" style="enable-background:new 0 0 354 461;" xml:space="preserve">
<style type="text/css">
	.st0{fill:#FFFFFF;stroke:#666666;stroke-width:2;}
	.st1{fill:#FFFFFF;stroke:#29BCC2;stroke-width:2;}
	.st2{fill:#29BCC2;}
	.st3{opacity:0.45;fill:#FFF164;enable-background:new    ;}
	.st4{fill:#EDC8A9;}
	.st5{fill:#F9C540;}
</style>
<rect x="105" y="14" class="st0" width="128" height="128"/>
<path class="st1" d="M189,170h110c5,0,9,4,9,9v110c0,5-4,9-9,9H189c-5,0-9-4-9-9V179C180,174,184,170,189,170z"/>
<path class="st1" d="M41,170h110c5,0,9,4,9,9v110c0,5-4,9-9,9H41c-5,0-9-4-9-9V179C32,174,36,170,41,170z"/>
<path class="st1" d="M41,314h110c5,0,9,4,9,9v110c0,5-4,9-9,9H41c-5,0-9-4-9-9V323C32,318,36,314,41,314z"/>
<path class="st1" d="M189,314h110c5,0,9,4,9,9v110c0,5-4,9-9,9H189c-5,0-9-4-9-9V323C180,318,184,314,189,314z"/>
<rect x="199" y="179" class="st2" width="40" height="50"/>
<rect x="51" y="179" class="st2" width="40" height="50"/>
<rect x="51" y="323" class="st2" width="40" height="50"/>
<rect x="51" y="383" class="st2" width="40" height="50"/>
<rect x="101" y="383" class="st2" width="40" height="50"/>
<path class="st2" d="M249,179h40l-40,50V179z"/>
<path class="st2" d="M101,179h40l-40,50V179z"/>
<path class="st2" d="M249,239h40l-40,50V239z"/>
<path class="st2" d="M101,239h40l-40,50V239z"/>
<path class="st2" d="M101,373h40l-40-50V373z"/>
<path class="st2" d="M249,373h40l-40-50V373z"/>
<path class="st2" d="M249,383h40l-40,50V383z"/>
<rect x="199" y="239" class="st2" width="40" height="50"/>
<rect x="51" y="239" class="st2" width="40" height="50"/>
<path class="st2" d="M169,78h40l-40-50V78z"/>
<path class="st2" d="M169,78h40l-40,50V78z"/>
<rect x="129" y="78" class="st2" width="40" height="50"/>
<rect x="129" y="28" class="st2" width="40" height="50"/>
<rect x="199" y="323" class="st2" width="40" height="50"/>
<rect x="199" y="383" class="st2" width="40" height="50"/>
<path class="st3" d="M294.7,380.4c-1-2.1-2.5-3.8-4.4-5.1c-1.9-1.3-4.1-2.1-6.4-2.2c-2.3-0.2-4.6,0.3-6.6,1.3
	c-2.1,1-3.8,2.5-5.1,4.4c-1.3,1.9-2,4.1-2.2,6.4s0.3,4.6,1.3,6.6c1,2.1,2.6,3.8,4.5,5.1c1.9,1.3,4.1,2,6.4,2.1l-3.5-7.9
	c-0.7-1.5-0.8-3.3-0.3-4.9c0.6-1.6,1.7-2.9,3.3-3.6l0.3-0.2c1.2-0.6,2.6-0.7,3.8-0.2c1.3,0.4,2.3,1.4,2.9,2.6l4.5,9.3
	c1.5-1.9,2.4-4.2,2.7-6.6C296.2,385,295.8,382.6,294.7,380.4z"/>
<g>
	<path class="st4" d="M288,383c-0.6-1.2-1.7-2.2-2.9-2.7c-1.3-0.5-2.7-0.4-3.9,0.2l-0.3,0.2c-1.6,0.8-2.8,2.1-3.3,3.8
		c-0.6,1.7-0.5,3.5,0.3,5l3.6,8.2l7.9,17.9c0.1,0.6,5.9,12.9,5.9,12.9c-1.5-0.6-3.3-1.2-4.9-1.9c-3.7-1.5-9-1.2-12.1-0.1
		c-1.6,0.6-2.7,1.4-3.2,2.3c-0.2,0.3-0.3,0.7-0.4,1c-0.8,2.2-0.8,5.2,1.1,6.5c0.9,0.5,1.9,0.8,3,0.8c1.5,0.2,3.7,0.1,6,1.2
		c3.8,1.9,12.5,6,17.5,8c0.9,0.1,3.1,0.9,4,0.9c2.8,0.3,5.1,0.8,6,1.2c0.7,0.3,4.2,0.4,4.2,0.4c2.9,0.3,7.6-0.3,12.3-2.6
		c4.7-2.3,9.1-4,10.9-8.4l0.2-0.1v-0.2c0.9-2.2,1.4-4.6,1.3-7.1c-0.1-2.4-0.6-4.8-1.6-7l-2.9-6l-7.5-15.6c-0.5-1.1-2.4-4.5-5.9-4.1
		c-1.5,0.2-2.9,0.9-3.8,2.1L319,400l-0.1,0c-0.6-0.8-1.5-1.4-2.4-1.7c-1-0.3-2-0.3-3,0c-0.9,0.2-1.8,0.6-2.5,1.2
		c-0.8,0.6-1.4,1.3-1.8,2.1c-1.9-1.6-4.4-1.7-6.9-0.3c-0.8,0.5-1.5,1.1-2.1,1.9c-0.6,0.8-1,1.7-1.2,2.6l-6.4-13.3L288,383z"/>
</g>
<rect x="301" y="293" class="st5" width="2" height="21"/>
<rect x="311" y="322" class="st5" width="21" height="2"/>
<rect x="307.6" y="306.1" transform="matrix(0.7071 -0.7071 0.7071 0.7071 -123.9961 314.9104)" class="st5" width="21" height="2"/>
</svg>
