<?xml version="1.0" encoding="utf-8"?>
<!-- Generator: Adobe Illustrator 26.3.1, SVG Export Plug-In . SVG Version: 6.00 Build 0)  -->
<svg version="1.1" id="圖層_1" xmlns="http://www.w3.org/2000/svg" xmlns:xlink="http://www.w3.org/1999/xlink" x="0px" y="0px"
	 viewBox="0 0 357 241" style="enable-background:new 0 0 357 241;" xml:space="preserve">
<style type="text/css">
	.st0{opacity:0.45;fill:#FFFCDE;enable-background:new    ;}
	.st1{fill:#EDC8A9;}
	.st2{opacity:0.7;}
	.st3{fill:#FED63E;}
	.st4{fill:none;stroke:#FED63E;stroke-width:2;}
	.st5{fill:#9225E8;}
	.st6{fill:#F9D70B;}
	.st7{fill:#C6172B;}
	.st8{fill:#FF8710;}
	.st9{fill:#FFFFFF;}
	.st10{fill:#51B239;}
</style>
<g>
	<path class="st0" d="M297.7,160.4c-1-2.1-2.5-3.8-4.4-5.1c-1.9-1.3-4.1-2.1-6.4-2.2s-4.6,0.3-6.6,1.3c-2.1,1-3.8,2.5-5.1,4.4
		c-1.3,1.9-2,4.1-2.2,6.4c-0.2,2.3,0.3,4.6,1.3,6.6c1,2.1,2.6,3.8,4.5,5.1c1.9,1.3,4.1,2,6.4,2.1l-3.5-7.9c-0.7-1.5-0.8-3.3-0.3-4.9
		c0.6-1.6,1.7-2.9,3.3-3.7l0.3-0.2c1.2-0.6,2.6-0.7,3.8-0.2c1.3,0.4,2.3,1.4,2.9,2.6l4.5,9.3c1.5-1.9,2.4-4.2,2.7-6.6
		C299.2,165,298.8,162.6,297.7,160.4L297.7,160.4z"/>
	<g>
		<path class="st1" d="M291,163c-0.6-1.2-1.7-2.2-2.9-2.7c-1.3-0.5-2.7-0.4-3.9,0.2l-0.3,0.2c-1.6,0.8-2.8,2.1-3.3,3.8
			c-0.6,1.7-0.5,3.5,0.3,5l3.6,8.2l7.9,18c0.1,0.6,5.9,12.9,5.9,12.9c-1.5-0.6-3.3-1.2-4.9-1.9c-3.7-1.5-9-1.2-12.1-0.1
			c-1.6,0.6-2.7,1.4-3.2,2.3c-0.2,0.3-0.3,0.7-0.4,1c-0.8,2.2-0.8,5.2,1.1,6.5c0.9,0.5,1.9,0.8,3,0.8c1.5,0.2,3.7,0.1,6,1.2
			c3.8,1.9,12.5,6,17.5,8c0.9,0.1,3.1,0.9,4,0.9c2.8,0.3,5.1,0.8,6,1.2c0.7,0.3,4.2,0.4,4.2,0.4c2.9,0.3,7.6-0.3,12.3-2.6
			c4.7-2.3,9.1-4,10.9-8.4l0.2-0.1v-0.2c0.9-2.2,1.4-4.6,1.3-7.1c-0.1-2.4-0.6-4.8-1.6-7l-2.9-6l-7.5-15.6c-0.5-1.1-2.4-4.5-5.9-4.1
			c-1.5,0.2-2.9,0.9-3.8,2.1L322,180l-0.1,0c-0.6-0.8-1.5-1.4-2.4-1.7c-1-0.3-2-0.3-3,0c-0.9,0.2-1.8,0.6-2.5,1.2
			c-0.8,0.6-1.4,1.3-1.8,2.1c-1.9-1.6-4.4-1.7-6.9-0.3c-0.8,0.5-1.5,1.1-2.1,1.9c-0.6,0.8-1,1.7-1.2,2.6l-6.4-13.3L291,163z"/>
	</g>
	<g class="st2">
		<path class="st3" d="M70,130h70c13.8,0,25,11.2,25,25l0,0c0,13.8-11.2,25-25,25H70c-13.8,0-25-11.2-25-25l0,0
			C45,141.2,56.2,130,70,130z"/>
		<path d="M94.3,151.4v3.1h8.3v-3.1H94.3z M94.3,157v3.1h8.3V157H94.3z M94.3,162.6v3.1h8.3v-3.1H94.3z M92.6,145.7v21.4H96V149h4.7
			v17.9h3.5v-21.2H92.6z M82.6,149.3v3.3h9.3v-3.3H82.6z M85.8,144.5v22.8h3.3v-22.8H85.8z M85.6,151.6c-0.6,2.9-2,6.4-3.7,8.4
			c0.5,0.9,1.3,2.3,1.6,3.3c1.9-2.5,3.3-7.1,4.1-11L85.6,151.6z M88.9,153.4l-1.6,1.6c0.9,1.3,2.4,3.9,3.1,5.5l1.9-2.8
			C91.9,157,89.6,154.1,88.9,153.4z M111.6,150.1v2.9h11.9v-2.9H111.6z M112.7,154.4v9.8h3.2v-9.8H112.7z M114.4,154.4v2.8h4.9v2.6
			h-4.9v2.9h8.1v-8.3H114.4z M107.2,145.6v21.7h3.4v-18.4h15.8v-3.3H107.2z M124.6,145.6v17.8c0,0.4-0.1,0.5-0.6,0.6
			c-0.4,0-1.8,0-2.9-0.1c0.5,0.9,1,2.5,1.2,3.5c2,0,3.4-0.1,4.4-0.7c1-0.6,1.3-1.5,1.3-3.2v-17.9H124.6z"/>
	</g>
	<g class="st2">
		<path class="st4" d="M204,131h70c13.3,0,24,10.7,24,24l0,0c0,13.3-10.7,24-24,24h-70c-13.3,0-24-10.7-24-24l0,0
			C180,141.7,190.7,131,204,131z"/>
		<path class="st3" d="M205.1,146v3.6h21.1V146H205.1z M216.6,154.7c2.5,2.1,6.1,5.1,7.6,7.1l3-2.7c-1.7-1.9-5.4-4.8-7.9-6.6
			L216.6,154.7z M215.3,147.4c-1.9,4.2-6,8.8-11.1,11.1c0.7,0.8,1.8,2.3,2.4,3.2c5.6-2.9,9.9-7.8,12.6-13L215.3,147.4z M213.7,153.8
			v13.5h3.8v-17.3L213.7,153.8z M228.4,153.7v3.8h22.4v-3.8H228.4z M260.3,160v2.3h3.6V160H260.3z M262.5,157.2v2.3h5.4v-2.3H262.5z
			 M261.3,147.1v2.4h13.2v-2.4H261.3z M260.6,153v2.5H275V153H260.6z M262.1,150.1v2.3H274v-2.3H262.1z M266.1,148.6v5.6h3.3v-5.6
			H266.1z M266.1,157.2v7c0,0.3-0.1,0.3-0.4,0.3c-0.3,0-1.2,0-1.8,0c0.4,0.8,0.7,2,0.8,2.8c1.5,0,2.6,0,3.5-0.5
			c0.9-0.5,1.1-1.2,1.1-2.6v-7.1H266.1z M264.8,156.2c1.9,0.6,4.3,1.5,5.6,2.3l1.8-2.1c-1.3-0.7-3.9-1.6-5.7-2.1L264.8,156.2z
			 M262.6,145.4c0.5,0.8,1.1,1.9,1.3,2.6l2.7-1.1c-0.3-0.7-0.9-1.7-1.4-2.4L262.6,145.4z M263.3,160v0.4c-0.5,1.8-2,3.6-3.7,4.4
			c0.6,0.5,1.4,1.6,1.8,2.2c2.3-1.2,4-3.4,4.8-6.4l-1.9-0.8l-0.5,0.1H263.3z M272.5,157.7c-0.9,1-2.4,2.3-3.5,3l1.8,1.5
			c1.2-0.6,2.7-1.7,4.2-2.7L272.5,157.7z M270.2,144.5c-0.3,0.7-0.8,1.8-1.2,2.5l2.4,0.8c0.5-0.6,1.1-1.4,1.9-2.4L270.2,144.5z
			 M269.3,158.7l-2.1,0.6c1.2,3.2,3.3,6,6.1,7.4c0.5-0.8,1.4-2,2.1-2.6C272.7,163.2,270.4,161.1,269.3,158.7z M252.6,149.3v3.2h8
			v-3.2H252.6z M255.3,144.5v22.8h3.1v-22.8H255.3z M255.2,151.6c-0.5,2.8-1.7,6.4-3.2,8.4c0.5,0.8,1.2,2.2,1.5,3.1
			c1.7-2.5,3-7.1,3.6-10.9L255.2,151.6z M258.3,153.2l-1.4,1.4c0.7,1.2,2,3.9,2.5,5.4l1.8-2.5C260.7,156.8,258.8,153.8,258.3,153.2z
			"/>
	</g>
	<g class="st2">
		<path class="st5" d="M124,59h-15v45h15V59z"/>
		<path class="st5" d="M139,89V74H94v15H139z"/>
		<path class="st6" d="M62.5,0L42,41h41L62.5,0z"/>
		<path class="st7" d="M117.5,42c11.3,0,20.5-9.2,20.5-20.5S128.8,1,117.5,1S97,10.2,97,21.5S106.2,42,117.5,42z"/>
		<path class="st8" d="M82,63H44v37h38V63z"/>
	</g>
	<path class="st9" d="M139.9,54.9l2-3.9c0.4-0.8-0.4-1.7-1.4-1.9c-1.1-0.2-2,0.3-2.4,1.1l-2,3.9c-0.4,0.8,0.4,1.7,1.4,1.9
		C138.6,56.2,139.5,55.6,139.9,54.9z"/>
	<path class="st9" d="M144.4,63.8l8.8-4.7c1.8-1,0.2-3.8-1.6-2.9l-8.8,4.7C141,61.9,142.6,64.8,144.4,63.8z"/>
	<path class="st9" d="M94.7,97.2l-3,1.7c-0.7,0.4-0.9,1.6-0.5,2.3c0.2,0.4,0.5,0.7,0.9,0.8c0.4,0.1,0.8,0.1,1.1-0.2l3-1.7
		c0.7-0.4,0.9-1.6,0.5-2.3c-0.2-0.4-0.5-0.7-0.9-0.8C95.5,96.9,95.1,97,94.7,97.2L94.7,97.2z"/>
	<path class="st9" d="M97.6,105l-2.5,6.1c-0.8,1.9,2.5,2.7,3.3,0.8l2.5-6.1C101.6,104,98.4,103.2,97.6,105L97.6,105z"/>
	<g class="st2">
		<path class="st10" d="M284,59h-15v45h15V59z"/>
		<path class="st10" d="M299,74h-45v15h45V74z"/>
		<path class="st6" d="M222.5,0L202,41h41L222.5,0z"/>
		<path class="st7" d="M275.5,42c11.3,0,20.5-9.2,20.5-20.5S286.8,1,275.5,1S255,10.2,255,21.5S264.2,42,275.5,42z"/>
		<path class="st8" d="M242,63h-38v37h38V63z"/>
	</g>
	<path class="st9" d="M293.8,60.2c1.3-3.5,3.2-6.8,5.5-9.6c1.3-1.6-0.9-4.2-2.2-2.6c-2.6,3.3-4.8,7-6.3,11.1
		C289.9,61,293,62.1,293.8,60.2L293.8,60.2z"/>
	<path class="st9" d="M298.5,66.4l14.1-3c2-0.4,1.3-3.7-0.7-3.2l-14.1,3C295.8,63.6,296.5,66.8,298.5,66.4z"/>
	<path class="st9" d="M253.7,97.2c-3.6,1.9-7,4.3-10.2,7.1c-1.5,1.3,0.6,3.7,2.1,2.4c3-2.6,6.2-4.8,9.6-6.5
		C257,99.2,255.5,96.3,253.7,97.2L253.7,97.2z"/>
	<path class="st9" d="M262.2,103.3c-0.5,4.2-1.3,8.4-2.2,12.6c-0.5,2.2,2.3,3.1,2.8,0.9c0.9-4.2,1.6-8.4,2.2-12.6
		C265.3,102,262.5,101.1,262.2,103.3z"/>
</g>
</svg>
