<?xml version="1.0" encoding="utf-8"?>
<!-- Generator: Adobe Illustrator 26.3.1, SVG Export Plug-In . SVG Version: 6.00 Build 0)  -->
<svg version="1.1" id="圖層_1" xmlns="http://www.w3.org/2000/svg" xmlns:xlink="http://www.w3.org/1999/xlink" x="0px" y="0px"
	 viewBox="0 0 140 140" style="enable-background:new 0 0 140 140;" xml:space="preserve">
<style type="text/css">
	.st0{fill:#9225E8;}
	.st1{fill:#FF8710;}
	.st2{fill:#51B239;}
	.st3{fill:#0669F7;}
	.st4{fill:#F9D70B;}
	.st5{fill:#C6172B;}
</style>
<path class="st0" d="M34.5,42.7C42,42.7,48,36.6,48,29.1c0-7.5-6-13.5-13.5-13.5c-7.5,0-13.5,6.1-13.5,13.5
	C21,36.6,27.1,42.7,34.5,42.7z"/>
<path class="st1" d="M82.4,16.7H57.6v24.9h24.8V16.7z"/>
<path class="st2" d="M105.5,55.1L92,82.2H119L105.5,55.1z"/>
<path class="st3" d="M63.1,55.5l-6.7,6.7l20.5,20.6l6.7-6.7L63.1,55.5z"/>
<path class="st3" d="M83.6,62.2l-6.7-6.7L56.4,76.1l6.7,6.7L83.6,62.2z"/>
<path class="st3" d="M39.2,94.6h-9.5v29.1h9.5V94.6z"/>
<path class="st3" d="M49,113.9v-9.5H20v9.5H49z"/>
<path class="st2" d="M70,122.7c7.5,0,13.5-6.1,13.5-13.5c0-7.5-6-13.5-13.5-13.5c-7.5,0-13.5,6.1-13.5,13.5
	C56.5,116.7,62.5,122.7,70,122.7z"/>
<path class="st1" d="M110.2,94.6h-9.5v29.1h9.5V94.6z"/>
<path class="st1" d="M120,104.4H91v9.5h29V104.4z"/>
<path class="st4" d="M46.9,56.7H22.1v24.9h24.8V56.7z"/>
<path class="st5" d="M98.6,15.5l-6.7,6.7l20.5,20.6l6.7-6.7L98.6,15.5z"/>
<path class="st5" d="M112.4,15.5L91.9,36.1l6.7,6.7l20.5-20.6L112.4,15.5z"/>
</svg>
