<?xml version="1.0" encoding="utf-8"?>
<!-- Generator: Adobe Illustrator 26.3.1, SVG Export Plug-In . SVG Version: 6.00 Build 0)  -->
<svg version="1.1" id="圖層_1" xmlns="http://www.w3.org/2000/svg" xmlns:xlink="http://www.w3.org/1999/xlink" x="0px" y="0px"
	 viewBox="0 0 140 140" style="enable-background:new 0 0 140 140;" xml:space="preserve">
<style type="text/css">
	.st0{fill:#FF8710;}
	.st1{fill:#0669F7;}
	.st2{fill:#9225E8;}
	.st3{fill:#C6172B;}
	.st4{fill:#51B239;}
	.st5{fill:#F9D70B;}
	.st6{fill:#EECD4D;}
</style>
<path class="st0" d="M22.8,46.4c6.6,0,11.9-5.3,11.9-11.9c0-6.6-5.3-11.9-11.9-11.9c-6.6,0-11.9,5.3-11.9,11.9
	C10.9,41,16.2,46.4,22.8,46.4z"/>
<path class="st1" d="M65.2,23.4h-22v22h22V23.4z"/>
<path class="st2" d="M85.6,22l-12,23.9h23.9L85.6,22z"/>
<path class="st3" d="M123.5,23.1h-13L104,34.4l6.5,11.3h13l6.5-11.3L123.5,23.1z"/>
<path class="st4" d="M85.6,81.6c6.6,0,11.9-5.3,11.9-11.9c0-6.6-5.3-11.9-11.9-11.9s-11.9,5.3-11.9,11.9
	C73.7,76.3,79,81.6,85.6,81.6z"/>
<path class="st1" d="M27,56.9h-8.4v25.7H27V56.9z"/>
<path class="st1" d="M35.7,73.9v-8.4H10v8.4H35.7z"/>
<path class="st5" d="M58.4,92.1H50v25.7h8.4V92.1z"/>
<path class="st5" d="M67.1,100.8H41.4v8.4h25.7V100.8z"/>
<path class="st3" d="M48.1,57.7l-5.9,5.9l18.2,18.2l5.9-5.9L48.1,57.7z"/>
<path class="st3" d="M60.3,57.7L42.2,75.8l5.9,5.9l18.2-18.2L60.3,57.7z"/>
<path class="st0" d="M85.6,92.6l-12,23.9h23.9L85.6,92.6z"/>
<path class="st2" d="M123.5,93.7h-13L104,105l6.5,11.3h13L130,105L123.5,93.7z"/>
<path class="st4" d="M16.7,92.9l-5.9,5.9L29,117l5.9-5.9L16.7,92.9z"/>
<path class="st4" d="M29,92.9l-18.2,18.2l5.9,5.9l18.2-18.2L29,92.9z"/>
<path class="st6" d="M116.9,57.3l-12,23.9h23.9L116.9,57.3z"/>
</svg>
