<?xml version="1.0" encoding="utf-8"?>
<!-- Generator: Adobe Illustrator 26.3.1, SVG Export Plug-In . SVG Version: 6.00 Build 0)  -->
<svg version="1.1" id="圖層_1" xmlns="http://www.w3.org/2000/svg" xmlns:xlink="http://www.w3.org/1999/xlink" x="0px" y="0px"
	 viewBox="0 0 140 140" style="enable-background:new 0 0 140 140;" xml:space="preserve">
<style type="text/css">
	.st0{fill:#9225E8;}
	.st1{fill:#FF8710;}
	.st2{fill:#51B239;}
	.st3{fill:#0669F7;}
	.st4{fill:#F9D70B;}
	.st5{fill:#C6172B;}
</style>
<path class="st0" d="M34.6,42.4c7.5,0,13.6-6.1,13.6-13.7c0-7.5-6.1-13.7-13.6-13.7c-7.5,0-13.6,6.1-13.6,13.7
	C21,36.3,27.1,42.4,34.6,42.4z"/>
<path class="st1" d="M83,16.2H57.9v25.1H83V16.2z"/>
<path class="st2" d="M106.3,54.9L92.6,82.3h27.3L106.3,54.9z"/>
<path class="st3" d="M63.5,55.4l-6.8,6.8l20.7,20.8l6.8-6.8L63.5,55.4z"/>
<path class="st3" d="M84.2,62.2l-6.8-6.8L56.7,76.2l6.8,6.8L84.2,62.2z"/>
<path class="st3" d="M39.4,94.9h-9.6v29.4h9.6V94.9z"/>
<path class="st3" d="M49.3,114.3v-9.6H20v9.6H49.3z"/>
<path class="st2" d="M70.5,123.2c7.5,0,13.6-6.1,13.6-13.7c0-7.5-6.1-13.7-13.6-13.7c-7.5,0-13.6,6.1-13.6,13.7
	C56.8,117.1,62.9,123.2,70.5,123.2z"/>
<path class="st1" d="M113.2,95.8l-20.7,20.8l6.8,6.8l20.7-20.8L113.2,95.8z"/>
<path class="st1" d="M99.3,95.8l-6.8,6.8l20.7,20.8l6.8-6.8L99.3,95.8z"/>
<path class="st4" d="M47.2,56.6H22.1v25.1h25.1V56.6z"/>
<path class="st5" d="M99.3,15l-6.8,6.8l20.7,20.8l6.8-6.8L99.3,15z"/>
<path class="st5" d="M113.2,15L92.5,35.8l6.8,6.8L120,21.8L113.2,15z"/>
</svg>
