<svg width="372" height="364" viewBox="0 0 372 364" fill="none" xmlns="http://www.w3.org/2000/svg">
<g opacity="0.2">
<rect x="2.5" y="176.5" width="63" height="37" rx="18.5" fill="#23ACB2" stroke="white"/>
<path d="M29.6494 203H37.6774V200.858H35.1754V189.68H33.2134C32.3494 190.202 31.4494 190.544 30.0994 190.796V192.434H32.5294V200.858H29.6494V203Z" fill="white"/>
</g>
<rect x="2.5" y="276.5" width="63" height="37" rx="18.5" fill="#EB4452" stroke="white"/>
<path d="M31.862 287.79C30.548 288.168 28.568 288.51 26.858 288.726C27.056 289.14 27.29 289.806 27.344 290.22C29.108 290.094 31.25 289.824 32.888 289.392L31.862 287.79ZM26.858 288.726V294.666H28.982V289.104L26.858 288.726ZM26.858 293.784V295.458H40.34V288.492H34.238V290.148H38.198V293.784H26.858ZM28.064 291.12V292.74H33.212V291.12H28.064ZM33.968 291.12V292.74H38.846V291.12H33.968ZM37.316 295.89C37.37 301.308 37.874 304.548 40.052 304.548C41.24 304.548 41.816 303.972 41.978 301.812C41.528 301.65 40.952 301.308 40.574 300.948C40.538 302.1 40.43 302.514 40.214 302.514C39.674 302.514 39.314 300.264 39.44 295.89H37.316ZM27.038 304.386C27.038 303.738 29.018 302.712 29.018 302.712V295.908H26.984V301.452C26.984 302.208 26.624 302.586 26.282 302.766C26.57 303.126 26.93 303.936 27.038 304.386ZM27.038 304.386C27.434 304.188 28.082 304.026 31.52 303.504C31.484 303.072 31.484 302.298 31.538 301.758L27.866 302.208L26.966 302.82L27.038 304.386ZM32.366 304.476C32.366 303.828 34.274 302.784 34.274 302.784V295.908H32.312V301.506C32.312 302.28 31.934 302.676 31.592 302.874C31.862 303.234 32.258 304.026 32.366 304.476ZM32.366 304.476C32.78 304.26 33.446 304.098 37.262 303.522C37.244 303.108 37.226 302.37 37.28 301.848L33.176 302.388L32.312 302.982L32.366 304.476ZM28.262 296.79V298.338H31.808V296.79H28.262ZM28.28 299.292V300.822H31.826V299.292H28.28ZM33.374 296.898V298.428H36.938V296.898H33.374ZM33.482 299.418V300.948H37.046V299.418H33.482Z" fill="white"/>
<g opacity="0.5">
<rect x="2.5" y="226.5" width="63" height="37" rx="18.5" fill="#23ACB2" stroke="white"/>
<path d="M33.8614 253.252C36.1294 253.252 38.0554 251.542 38.0554 248.806C38.0554 245.944 36.4534 244.63 34.2214 244.63C33.3214 244.63 32.0794 245.206 31.3774 246.196L31.4854 247.996C32.1514 246.898 32.9974 246.502 33.7354 246.502C34.8694 246.502 35.6254 247.222 35.6254 248.806C35.6254 250.426 34.8154 251.254 33.8254 251.254C32.5114 251.254 31.5034 249.976 31.5034 246.52C31.5034 242.812 32.7814 241.57 34.4014 241.57C35.1574 241.57 35.9854 242.002 36.4354 242.524L37.8574 240.958C37.0474 240.112 35.8594 239.446 34.2394 239.446C31.5394 239.446 29.0734 241.57 29.0734 246.52C29.0734 251.218 31.3414 253.252 33.8614 253.252Z" fill="white"/>
</g>
<g opacity="0.2">
<rect x="2.5" y="326.5" width="63" height="37" rx="18.5" fill="#EB4452" stroke="white"/>
<path d="M27.992 337.754V341.984H29.918V337.754H27.992ZM26.588 340.958V342.722H30.692V346.106H26.588V347.852H32.384V340.958H26.588ZM25.58 340.958V348.554H27.218V340.958H25.58ZM28.19 341.732V346.934H27.992V351.632H29.9V346.934H29.72V341.732H28.19ZM25.022 351.398L25.346 353.468C27.146 353.198 29.522 352.838 31.754 352.46L31.682 350.552C29.252 350.876 26.714 351.218 25.022 351.398ZM30.458 348.968C31.016 350.462 31.52 352.442 31.664 353.72L33.32 353.18C33.158 351.884 32.618 349.958 32.024 348.464L30.458 348.968ZM32.744 340.31V343.892H34.67V342.128H39.746V343.892H41.78V340.31H32.744ZM34.256 343.604V351.542C34.256 353.648 34.796 354.26 36.866 354.26C37.28 354.26 39.062 354.26 39.512 354.26C41.312 354.26 41.852 353.414 42.068 350.588C41.528 350.462 40.682 350.12 40.25 349.796C40.16 351.992 40.052 352.406 39.332 352.406C38.936 352.406 37.46 352.406 37.136 352.406C36.362 352.406 36.254 352.28 36.254 351.542V343.604H34.256ZM39.836 344.9C38.522 345.908 36.326 347.15 34.76 347.834L35.93 349.166C37.55 348.5 39.656 347.402 41.294 346.34L39.836 344.9ZM35.462 338.06C35.84 338.852 36.326 339.95 36.506 340.652L38.558 339.968C38.306 339.302 37.856 338.276 37.406 337.502L35.462 338.06Z" fill="white"/>
</g>
<g opacity="0.2">
<rect x="227.5" y="176.5" width="62" height="37" rx="18.5" fill="#23ACB2" stroke="white"/>
<path d="M259.739 203H262.205V189.68H259.019L254.069 197.744V199.562H263.789V197.528H256.643L258.695 194.216C259.073 193.496 259.433 192.758 259.775 192.038H259.847C259.811 192.83 259.739 194.036 259.739 194.81V203Z" fill="white"/>
</g>
<g opacity="0.2">
<rect x="227.5" y="276.5" width="62" height="37" rx="18.5" fill="#EB4452" stroke="white"/>
<path d="M258.01 293.172C257.722 297.6 257.416 301.164 250.522 302.838C250.972 303.288 251.512 304.116 251.728 304.656C259.198 302.658 259.936 298.356 260.278 293.172H258.01ZM255.436 287.628C254.518 289.536 252.808 291.732 250.288 293.352C250.756 293.694 251.458 294.45 251.764 294.936C254.536 292.974 256.408 290.544 257.722 288.06L255.436 287.628ZM261.916 299.67C262.726 300.39 263.752 301.416 264.202 302.064L265.696 300.768C265.192 300.12 264.112 299.166 263.32 298.518L261.916 299.67ZM254.518 294.198H263.734V296.826H254.518V294.198ZM252.412 292.326V298.716H265.984V292.326H252.412ZM260.368 288.888V289.32C259.954 290.274 258.946 291.804 258.028 292.776C258.496 293.046 259.216 293.514 259.63 293.856C260.674 292.776 261.97 291.102 262.726 289.806L261.214 288.798L260.872 288.888H260.368ZM255.562 288.888L254.284 290.706H261.16V288.888H255.562ZM259.198 297.744V301.956C259.198 303.936 259.738 304.548 262.042 304.548C262.492 304.548 264.346 304.548 264.85 304.548C266.632 304.548 267.226 303.918 267.478 301.542C266.884 301.416 265.984 301.074 265.552 300.75C265.462 302.352 265.336 302.622 264.652 302.622C264.184 302.622 262.654 302.622 262.294 302.622C261.484 302.622 261.34 302.532 261.34 301.92V297.744H259.198Z" fill="white"/>
</g>
<g opacity="0.2">
<rect x="227.5" y="226.5" width="62" height="37" rx="18.5" fill="#23ACB2" stroke="white"/>
<path d="M258.281 253.252C260.927 253.252 263.393 251.074 263.393 246.034C263.393 241.426 261.125 239.446 258.587 239.446C256.319 239.446 254.411 241.138 254.411 243.892C254.411 246.718 255.995 248.068 258.227 248.068C259.163 248.068 260.369 247.474 261.089 246.484L260.945 244.684C260.297 245.782 259.469 246.196 258.713 246.196C257.579 246.196 256.823 245.44 256.823 243.892C256.823 242.236 257.633 241.426 258.641 241.426C259.937 241.426 260.963 242.632 260.963 246.034C260.963 249.85 259.685 251.11 258.119 251.11C257.327 251.11 256.517 250.696 256.013 250.138L254.609 251.74C255.419 252.568 256.607 253.252 258.281 253.252Z" fill="white"/>
</g>
<g opacity="0.2">
<rect x="227.5" y="326.5" width="62" height="37" rx="18.5" fill="#EB4452" stroke="white"/>
<path d="M258.118 337.754C257.596 339.86 256.426 342.488 254.86 344.036C255.22 344.432 255.796 345.224 256.048 345.692C257.956 343.838 259.36 340.904 260.206 338.24L258.118 337.754ZM260.674 343.424C260.386 344.648 259.738 346.232 258.928 347.222C259.342 347.438 260.026 347.87 260.386 348.194C261.322 347.096 262.06 345.368 262.546 343.874L260.674 343.424ZM260.71 338.438V340.22H264.904V338.438H260.71ZM259.558 341.768V343.568H267.37V341.768H259.558ZM260.854 344.936V346.736H266.866V344.936H260.854ZM259.342 348.428V350.228H267.352V348.428H259.342ZM264.202 338.438V338.672C264.148 339.572 264.004 341.21 263.824 342.452L265.75 342.614C265.93 341.408 266.092 339.932 266.182 338.492L264.742 338.366L264.418 338.438H264.202ZM262.474 345.854V348.212C262.474 349.67 262.186 351.866 259.18 353.288C259.63 353.63 260.242 354.278 260.53 354.692C263.842 352.892 264.454 350.246 264.454 348.248V345.854H262.474ZM256.804 342.488V354.602H258.802V340.688L258.658 340.616L256.804 342.488ZM250.702 339.05C253.222 341.498 253.636 344.162 253.636 347.438C253.636 349.616 253.51 351.65 253.114 352.154C252.988 352.334 252.844 352.406 252.61 352.442C252.232 352.478 251.656 352.478 250.864 352.424C251.206 352.982 251.386 353.684 251.404 354.314C252.214 354.35 252.934 354.332 253.51 354.188C253.96 354.098 254.32 353.882 254.572 353.54C255.328 352.496 255.508 349.958 255.508 347.492C255.508 344.018 255.13 340.886 252.106 338.024L250.702 339.05ZM253.582 344.72C252.934 346.16 251.656 347.762 250.468 348.554C250.828 348.986 251.296 349.832 251.494 350.318C252.79 349.184 254.212 347.222 254.986 345.548L253.582 344.72ZM254.446 338.114C253.6 339.86 251.908 341.804 250.378 342.776C250.738 343.244 251.17 344.144 251.35 344.684C253.078 343.334 254.896 341.048 255.922 339.014L254.446 338.114ZM263.806 351.254C264.544 352.316 265.516 353.792 265.948 354.656L267.604 353.72C267.1 352.856 266.092 351.47 265.336 350.426L263.806 351.254Z" fill="white"/>
</g>
<rect x="302.5" y="176.5" width="63" height="37" rx="18.5" fill="#23ACB2" stroke="white"/>
<path d="M334.159 203.252C336.607 203.252 338.821 201.542 338.821 198.59C338.821 195.674 336.949 194.36 334.717 194.36C334.105 194.36 333.637 194.486 333.115 194.72L333.367 191.894H338.209V189.68H331.081L330.703 196.142L331.927 196.934C332.701 196.43 333.133 196.232 333.925 196.232C335.257 196.232 336.157 197.096 336.157 198.644C336.157 200.228 335.203 201.11 333.799 201.11C332.575 201.11 331.621 200.498 330.883 199.76L329.641 201.434C330.649 202.424 332.053 203.252 334.159 203.252Z" fill="white"/>
<g opacity="0.2">
<rect x="302.5" y="276.5" width="63" height="37" rx="18.5" fill="#EB4452" stroke="white"/>
<path d="M326.382 289.05V290.85H334.23V289.05H326.382ZM326.112 292.668V294.468H334.5V292.668H326.112ZM327.354 291.192C327.57 291.84 327.804 292.686 327.894 293.244L329.658 292.776C329.568 292.254 329.316 291.408 329.064 290.814L327.354 291.192ZM331.44 290.814C331.314 291.426 331.008 292.326 330.792 292.938L332.412 293.334C332.664 292.794 333.006 292.02 333.366 291.21L331.44 290.814ZM331.746 295.206V302.406C331.746 302.604 331.674 302.658 331.458 302.658C331.278 302.676 330.648 302.676 330.072 302.658C330.324 303.162 330.63 303.972 330.738 304.53C331.746 304.53 332.52 304.512 333.114 304.188C333.708 303.864 333.87 303.342 333.87 302.46V295.206H331.746ZM336.03 288.924V290.67H342.654V288.924H336.03ZM336.03 296.574V297.834H341.988V296.574H336.03ZM336.156 298.554V299.814H341.898V298.554H336.156ZM335.922 300.552V301.794H342.078V300.552H335.922ZM335.22 287.718V292.722H337.326V287.718H335.22ZM335.22 291.66V293.262H339.9V294.27H335.22V295.872H341.97V291.66H335.22ZM335.22 295.08V302.01C335.22 303.99 335.832 304.494 337.866 304.494C338.334 304.494 340.188 304.494 340.638 304.494C342.276 304.494 342.834 303.936 343.068 302.1C342.492 301.974 341.682 301.686 341.232 301.38C341.16 302.514 341.034 302.766 340.44 302.766C340.026 302.766 338.514 302.766 338.19 302.766C337.452 302.766 337.326 302.658 337.326 301.974V295.08H335.22ZM329.082 288.06C329.316 288.672 329.55 289.518 329.622 290.076L331.656 289.518C331.548 288.996 331.278 288.186 331.026 287.592L329.082 288.06ZM327.948 295.206V296.772H332.25V295.206H327.948ZM326.994 295.206V298.806C326.994 300.3 326.94 302.244 326.13 303.684C326.544 303.864 327.354 304.404 327.678 304.71C328.65 303.108 328.794 300.642 328.794 298.824V295.206H326.994ZM328.578 300.642L329.19 302.352C330.198 301.83 331.296 301.218 332.43 300.588L332.142 299.364C330.792 299.85 329.514 300.354 328.578 300.642ZM328.758 298.32C329.46 298.626 330.414 299.094 330.9 299.382L331.764 298.284C331.26 297.996 330.306 297.582 329.604 297.312L328.758 298.32Z" fill="white"/>
</g>
<g opacity="0.5">
<rect x="302.5" y="226.5" width="63" height="37" rx="18.5" fill="#23ACB2" stroke="white"/>
<path d="M334.501 253.252C337.201 253.252 339.001 250.894 339.001 246.286C339.001 241.696 337.201 239.446 334.501 239.446C331.783 239.446 329.983 241.696 329.983 246.286C329.983 250.894 331.783 253.252 334.501 253.252ZM334.501 251.182C333.349 251.182 332.485 250.03 332.485 246.286C332.485 242.56 333.349 241.48 334.501 241.48C335.653 241.48 336.499 242.56 336.499 246.286C336.499 250.03 335.653 251.182 334.501 251.182Z" fill="white"/>
</g>
<g opacity="0.2">
<rect x="302.5" y="326.5" width="63" height="37" rx="18.5" fill="#EB4452" stroke="white"/>
<path d="M326.238 349.238V350.804H334.392V349.238H326.238ZM329.586 351.956C330.882 352.676 332.484 353.81 333.24 354.584L334.446 353.288C333.636 352.514 331.98 351.47 330.72 350.786L329.586 351.956ZM329.46 348.068C329.334 350.768 328.956 352.262 325.95 353.108C326.346 353.45 326.832 354.17 327.012 354.638C330.54 353.522 331.152 351.434 331.35 348.068H329.46ZM336.084 344.828V346.646H342.438V344.828H336.084ZM336.084 348.374V350.192H342.438V348.374H336.084ZM336.102 351.902V353.846H342.924V351.902H336.102ZM336.318 337.718C335.742 340.202 334.698 342.65 333.348 344.162C333.78 344.558 334.5 345.458 334.788 345.89C336.3 344.054 337.578 341.12 338.334 338.204L336.318 337.718ZM337.254 341.336H337.236L335.328 343.406V354.602H337.254V343.262H342.69V341.336H337.254ZM338.766 342.128V352.946H340.692V342.128H338.766ZM331.836 345.746C332.43 346.664 333.024 347.906 333.24 348.716L334.788 348.032C334.536 347.222 333.906 346.034 333.294 345.152L331.836 345.746ZM329.37 340.742C329.64 341.318 329.928 342.092 330.018 342.596L331.494 341.966C331.386 341.462 331.08 340.724 330.792 340.166L329.37 340.742ZM333.528 337.844C331.71 338.438 328.776 338.87 326.238 339.05C326.382 339.464 326.58 340.13 326.616 340.58C329.172 340.436 332.214 340.058 334.338 339.41L333.528 337.844ZM326.526 341.12C326.814 341.732 327.102 342.56 327.192 343.1L328.686 342.452C328.578 341.912 328.254 341.12 327.93 340.544L326.526 341.12ZM333.078 339.932C332.826 340.688 332.358 341.714 331.998 342.38L333.258 342.848C333.636 342.254 334.086 341.354 334.5 340.454L333.078 339.932ZM327.084 345.998C327.084 345.656 327.912 345.188 327.912 345.188V345.152C328.848 344.63 329.856 343.802 330.684 342.938L329.406 342.02C328.722 342.92 327.768 343.676 327.444 343.91C327.156 344.126 326.904 344.288 326.652 344.342C326.814 344.792 327.012 345.638 327.084 345.998ZM327.084 345.998C327.39 345.872 327.894 345.782 330.684 345.71C330.81 345.368 331.098 344.72 331.35 344.324L327.804 344.36L327.084 344.828V345.998ZM326.832 348.68C326.832 348.374 327.75 347.96 327.75 347.96V347.906C329.622 346.97 331.638 345.62 333.42 343.946L332.142 342.938C330.612 344.54 328.542 345.962 327.876 346.34C327.264 346.736 326.85 346.952 326.418 347.024C326.562 347.492 326.778 348.356 326.832 348.68ZM326.832 348.68C327.318 348.464 328.038 348.374 333.87 347.816C333.798 347.474 333.708 346.844 333.672 346.394L327.57 346.898L326.796 347.438L326.832 348.68ZM338.568 338.816C339 339.716 339.522 340.922 339.72 341.678L341.592 341.048C341.34 340.292 340.818 339.158 340.35 338.276L338.568 338.816Z" fill="white"/>
</g>
<g opacity="0.2">
<rect x="78.5" y="176.5" width="61" height="37" rx="18.5" fill="#23ACB2" stroke="white"/>
<path d="M104.447 203H113.375V200.768H110.495C109.865 200.768 108.983 200.858 108.317 200.93C110.747 198.554 112.763 195.962 112.763 193.532C112.763 191.048 111.071 189.446 108.569 189.446C106.751 189.446 105.545 190.148 104.321 191.462L105.779 192.902C106.463 192.146 107.237 191.516 108.227 191.516C109.505 191.516 110.207 192.344 110.207 193.676C110.207 195.728 108.083 198.23 104.447 201.488V203Z" fill="white"/>
</g>
<rect x="78.5" y="276.5" width="61" height="37" rx="18.5" fill="#EB4452" stroke="white"/>
<path d="M103.582 288.096C103.006 290.58 101.908 293.046 100.486 294.522C101.062 294.756 102.106 295.296 102.574 295.62C103.924 293.946 105.13 291.3 105.832 288.528L103.582 288.096ZM103.906 290.76L103.276 292.884H116.2V290.76H103.906ZM100.792 296.484V298.626H117.244V296.484H100.792ZM108.082 287.718V304.62H110.386V287.718H108.082Z" fill="white"/>
<rect x="78.5" y="226.5" width="61" height="37" rx="18.5" fill="#23ACB2" stroke="white"/>
<path d="M107.021 253H109.703C109.937 247.798 110.333 245.062 113.429 241.282V239.68H104.591V241.894H110.585C108.029 245.422 107.273 248.392 107.021 253Z" fill="white"/>
<g opacity="0.2">
<rect x="78.5" y="326.5" width="61" height="37" rx="18.5" fill="#EB4452" stroke="white"/>
<path d="M103.924 344.198V345.89H115.102V344.198H103.924ZM103.924 341.408V343.1H115.102V341.408H103.924ZM102.772 347.024V348.878H115.3V347.024H102.772ZM114.886 347.024V347.348C114.706 350.804 114.49 352.136 114.166 352.496C114.022 352.658 113.86 352.694 113.572 352.694C113.248 352.712 112.582 352.694 111.88 352.604C112.186 353.162 112.438 354.008 112.456 354.602C113.338 354.638 114.184 354.62 114.67 354.548C115.228 354.476 115.642 354.332 116.038 353.846C116.56 353.252 116.794 351.65 117.01 347.87C117.046 347.582 117.064 347.024 117.064 347.024H114.886ZM107.992 350.102C108.46 351.182 108.874 352.586 108.982 353.468L110.764 353C110.62 352.118 110.17 350.75 109.666 349.706L107.992 350.102ZM110.89 349.814C111.394 350.606 111.934 351.704 112.132 352.406L113.806 351.794C113.572 351.092 112.996 350.048 112.456 349.274L110.89 349.814ZM104.896 350.174C105.22 351.362 105.49 352.91 105.49 353.918L107.416 353.594C107.362 352.568 107.092 351.056 106.714 349.868L104.896 350.174ZM102.322 349.346C102.052 350.93 101.458 352.442 100.396 353.396L102.16 354.512C103.366 353.396 103.888 351.632 104.23 349.868L102.322 349.346ZM108.154 339.428V347.762H110.296V339.428H108.154ZM102.772 338.42V347.924H104.896V340.274H115.75V338.42H102.772Z" fill="white"/>
</g>
<g opacity="0.2">
<rect x="152.5" y="176.5" width="62" height="37" rx="18.5" fill="#23ACB2" stroke="white"/>
<path d="M182.605 203.252C185.161 203.252 187.303 201.848 187.303 199.4C187.303 197.636 186.151 196.538 184.639 196.106V196.016C186.061 195.476 186.853 194.414 186.853 192.992C186.853 190.706 185.107 189.446 182.533 189.446C180.985 189.446 179.707 190.076 178.555 191.066L179.905 192.704C180.697 191.966 181.471 191.516 182.425 191.516C183.559 191.516 184.207 192.146 184.207 193.19C184.207 194.378 183.415 195.206 180.967 195.206V197.114C183.865 197.114 184.639 197.924 184.639 199.238C184.639 200.426 183.721 201.11 182.353 201.11C181.147 201.11 180.193 200.498 179.401 199.724L178.141 201.398C179.077 202.478 180.499 203.252 182.605 203.252Z" fill="white"/>
</g>
<g opacity="0.2">
<rect x="152.5" y="276.5" width="62" height="37" rx="18.5" fill="#EB4452" stroke="white"/>
<path d="M180.858 287.736V292.326H183V287.736H180.858ZM182.136 288.888V290.562H189.516V288.888H182.136ZM177.96 291.318V293.01H189.228V291.318H177.96ZM188.706 291.318V291.552C188.508 292.47 188.166 293.586 187.896 294.288L189.66 294.702C190.038 293.91 190.47 292.65 190.812 291.57L189.336 291.246L188.994 291.318H188.706ZM178.644 294.486L178.824 296.142L187.536 295.332L187.356 293.712L178.644 294.486ZM176.232 291.318V296.394C176.232 298.572 176.07 301.362 174.378 303.324C174.81 303.54 175.656 304.188 175.98 304.53C177.906 302.37 178.23 298.896 178.23 296.412V291.318H176.232ZM180.534 298.842C180.552 301.758 180.39 302.658 177.222 303.162C177.618 303.522 178.122 304.26 178.23 304.71C182.154 304.026 182.568 302.46 182.55 298.842H180.534ZM184.764 298.842V302.118C184.764 303.792 185.214 304.332 187.122 304.332C187.5 304.332 188.814 304.332 189.21 304.332C190.812 304.332 191.316 303.666 191.514 301.02C190.974 300.894 190.11 300.606 189.714 300.3C189.624 302.37 189.534 302.64 189.012 302.64C188.688 302.64 187.68 302.64 187.446 302.64C186.888 302.64 186.798 302.568 186.798 302.082V298.842H184.764ZM181.11 292.884V295.728C181.11 297.564 181.704 298.266 183.882 298.266C184.386 298.266 186.852 298.266 187.482 298.266C188.256 298.266 189.21 298.248 189.624 298.122C189.552 297.636 189.498 296.934 189.426 296.358C188.976 296.484 187.986 296.52 187.338 296.52C186.744 296.52 184.494 296.52 183.954 296.52C183.324 296.52 183.216 296.304 183.216 295.782V292.884H181.11Z" fill="white"/>
</g>
<g opacity="0.2">
<rect x="152.5" y="226.5" width="62" height="37" rx="18.5" fill="#23ACB2" stroke="white"/>
<path d="M182.983 253.252C185.665 253.252 187.465 251.722 187.465 249.706C187.465 247.87 186.457 246.808 185.233 246.142V246.052C186.097 245.422 186.943 244.324 186.943 242.992C186.943 240.868 185.431 239.464 183.073 239.464C180.751 239.464 179.041 240.832 179.041 242.974C179.041 244.378 179.797 245.404 180.805 246.142V246.214C179.581 246.862 178.537 247.996 178.537 249.706C178.537 251.794 180.427 253.252 182.983 253.252ZM183.829 245.404C182.425 244.846 181.381 244.216 181.381 242.974C181.381 241.912 182.101 241.318 183.019 241.318C184.117 241.318 184.783 242.074 184.783 243.172C184.783 243.964 184.477 244.72 183.829 245.404ZM183.037 251.38C181.795 251.38 180.805 250.606 180.805 249.4C180.805 248.41 181.309 247.51 182.047 246.934C183.757 247.654 184.999 248.212 184.999 249.598C184.999 250.75 184.189 251.38 183.037 251.38Z" fill="white"/>
</g>
<g opacity="0.2">
<rect x="152.5" y="326.5" width="62" height="37" rx="18.5" fill="#EB4452" stroke="white"/>
<path d="M181.812 341.57V354.62H184.098V341.57H181.812ZM175.764 340.706V342.794H190.326V340.706H175.764ZM176.592 344.648V346.718H189.318V344.648H176.592ZM174.918 348.68V350.75H191.118V348.68H174.918ZM177.798 338.384C178.356 339.212 178.968 340.346 179.184 341.066L181.29 340.274C181.02 339.554 180.372 338.474 179.778 337.682L177.798 338.384ZM186.222 337.664C185.916 338.69 185.322 340.094 184.836 341.03L186.69 341.552C187.248 340.724 187.95 339.446 188.562 338.222L186.222 337.664Z" fill="white"/>
</g>
<rect x="62.6279" y="98.6279" width="55.3368" height="55.3368" stroke="#D9D9D9" stroke-width="1.25583"/>
<path d="M87.2114 109.779C84.3481 110.57 80.2415 111.286 76.587 111.7C77.0768 112.755 77.6419 114.413 77.7926 115.468C81.5601 115.242 86.1188 114.714 89.7732 113.848L87.2114 109.779ZM76.587 111.7V124.434H81.9745V112.642L76.587 111.7ZM76.587 122.249V126.394H105.484V111.135H92.2975V115.279H100.058V122.249H76.587ZM79.7141 116.636V120.667H90.263V116.636H79.7141ZM91.6193 116.636V120.667H101.641V116.636H91.6193ZM98.2501 127.185C98.3254 138.223 99.3427 145.344 104.24 145.344C107.028 145.344 108.385 143.988 108.761 139.052C107.631 138.676 106.237 137.809 105.295 136.905C105.22 139.241 105.032 140.183 104.655 140.183C103.864 140.183 103.261 135.473 103.6 127.185H98.2501ZM77.1522 145.005C77.1522 143.423 82.0122 140.974 82.0122 140.974V127.185H76.8508V138.073C76.8508 139.693 76.0973 140.522 75.3061 140.974C76.0219 141.84 76.8884 143.875 77.1522 145.005ZM77.1522 145.005C78.0564 144.553 79.5257 144.214 86.2695 143.536C86.1941 142.405 86.1941 140.484 86.3448 139.128L79.1489 139.655L76.9638 141.124L77.1522 145.005ZM88.2286 145.193C88.2286 143.611 92.9003 141.124 92.9003 141.124V127.185H87.9648V138.186C87.9648 139.881 87.136 140.785 86.3448 141.237C87.023 142.104 87.9648 144.063 88.2286 145.193ZM88.2286 145.193C89.1704 144.741 90.6774 144.44 98.3254 143.649C98.2501 142.594 98.2501 140.748 98.4008 139.467L90.1877 140.107L88.0779 141.501L88.2286 145.193ZM80.1285 128.579V132.384H87.0983V128.579H80.1285ZM80.1662 133.74V137.545H87.136V133.74H80.1662ZM90.6398 128.842V132.648H97.6096V128.842H90.6398ZM90.9412 134.117V137.922H97.911V134.117H90.9412Z" fill="#EB4452"/>
<rect x="125.221" y="98.6279" width="55.3368" height="55.3368" stroke="#D9D9D9" stroke-width="1.25583"/>
<path d="M142.005 110.683C140.8 115.882 138.501 121.044 135.525 124.133C136.731 124.623 138.916 125.753 139.895 126.431C142.721 122.927 145.245 117.389 146.715 111.587L142.005 110.683ZM142.683 116.259L141.365 120.705H168.415V116.259H142.683ZM136.166 128.24V132.723H170.6V128.24H136.166ZM151.424 109.892V145.269H156.246V109.892H151.424Z" fill="#EB4452"/>
<rect x="187.813" y="98.6279" width="55.3368" height="55.3368" stroke="#D9D9D9" stroke-width="1.25583"/>
<path d="M215.225 142.405C220.349 142.405 224.983 138.826 224.983 132.648C224.983 126.544 221.065 123.794 216.393 123.794C215.112 123.794 214.132 124.058 213.04 124.547L213.567 118.633H223.702V113.999H208.783L207.991 127.524L210.553 129.182C212.173 128.127 213.078 127.712 214.735 127.712C217.523 127.712 219.407 129.521 219.407 132.761C219.407 136.076 217.41 137.922 214.471 137.922C211.91 137.922 209.913 136.641 208.368 135.096L205.769 138.6C207.878 140.672 210.817 142.405 215.225 142.405Z" fill="#23ACB2"/>
<rect x="250.406" y="98.6279" width="55.3368" height="55.3368" stroke="#D9D9D9" stroke-width="1.25583"/>
<path d="M274.389 141.878H280.003C280.493 130.99 281.322 125.263 287.802 117.352V113.999H269.303V118.633H281.849C276.499 126.017 274.917 132.233 274.389 141.878Z" fill="#23ACB2"/>
<path opacity="0.45" d="M23.4423 297.514C22.7034 295.97 21.5703 294.65 20.1576 293.686C18.745 292.722 17.1031 292.149 15.3983 292.025C13.6935 291.902 11.9864 292.232 10.4498 292.981C8.91322 293.731 7.60184 294.875 6.64849 296.296C5.69515 297.716 5.13372 299.365 5.02108 301.073C4.90844 302.781 5.24859 304.489 6.00707 306.023C6.76556 307.557 7.91543 308.863 9.34019 309.809C10.7649 310.755 12.414 311.307 14.1202 311.408L11.518 305.514C10.9703 304.372 10.8981 303.058 11.3173 301.862C11.7366 300.667 12.6129 299.687 13.7535 299.138L13.9965 299.023C14.8958 298.592 15.9294 298.536 16.8697 298.868C17.8101 299.2 18.5804 299.892 19.011 300.793L22.3378 307.731C23.4589 306.303 24.1569 304.588 24.3522 302.781C24.5475 300.975 24.2322 299.15 23.4423 297.514Z" fill="#FFFCDE"/>
<g filter="url(#filter0_d_507_1552)">
<path d="M18.4171 299.431C17.9752 298.502 17.185 297.788 16.2201 297.446C15.2553 297.104 14.1949 297.161 13.2722 297.606L13.0228 297.725C11.8525 298.29 10.9534 299.301 10.5233 300.535C10.0932 301.768 10.1672 303.123 10.7292 304.301L13.4308 310.389L19.3237 323.788C19.4234 324.245 23.7433 333.446 23.7433 333.446C22.601 333.026 21.3137 332.533 20.117 332.044C17.3518 330.894 13.3991 331.132 11.0827 331.944C9.85883 332.368 9.05195 332.957 8.68025 333.683C8.55413 333.924 8.44506 334.174 8.35388 334.431C7.76459 336.102 7.77366 338.333 9.19702 339.283C9.87864 339.654 10.6348 339.867 11.4091 339.903C12.497 340.04 14.1742 339.954 15.8605 340.816C18.6981 342.226 25.1758 345.316 28.9608 346.804C29.6362 346.881 31.2635 347.456 31.9163 347.484C33.9788 347.735 35.724 348.063 36.4175 348.365C36.9569 348.602 39.5272 348.666 39.5272 348.666C41.7075 348.926 45.2206 348.447 48.7245 346.754C52.2285 345.06 55.524 343.732 56.8839 340.51L57.0154 340.446V340.259C57.7044 338.589 58.0385 336.793 57.9964 334.985C57.9542 333.177 57.5367 331.398 56.7706 329.763L54.622 325.263L49.06 313.602C48.6838 312.808 47.2468 310.239 44.6449 310.512C43.5266 310.637 42.4998 311.193 41.78 312.064L41.5851 312.174L41.5217 312.21C41.0608 311.605 40.4282 311.155 39.7077 310.921C38.9872 310.686 38.2128 310.677 37.4873 310.896C36.801 311.064 36.1563 311.372 35.5933 311.802C35.0303 312.231 34.561 312.772 34.2145 313.392C32.764 312.196 30.9508 312.087 29.0922 313.182C28.4742 313.548 27.9374 314.038 27.5148 314.621C27.0922 315.205 26.7929 315.869 26.6354 316.573L21.8893 306.629L18.4171 299.431Z" fill="#EDC8A9"/>
</g>
<path opacity="0.45" d="M104.442 300.514C103.703 298.97 102.57 297.65 101.158 296.686C99.745 295.722 98.1031 295.149 96.3983 295.025C94.6935 294.902 92.9864 295.232 91.4498 295.981C89.9132 296.731 88.6018 297.875 87.6485 299.296C86.6952 300.716 86.1337 302.365 86.0211 304.073C85.9084 305.781 86.2486 307.489 87.0071 309.023C87.7656 310.557 88.9154 311.863 90.3402 312.809C91.7649 313.755 93.414 314.307 95.1202 314.408L92.518 308.514C91.9703 307.372 91.8981 306.058 92.3173 304.862C92.7366 303.667 93.6129 302.687 94.7535 302.138L94.9965 302.023C95.8958 301.592 96.9294 301.536 97.8697 301.868C98.8101 302.2 99.5804 302.892 100.011 303.793L103.338 310.731C104.459 309.303 105.157 307.588 105.352 305.781C105.547 303.975 105.232 302.15 104.442 300.514Z" fill="#FFFCDE"/>
<g filter="url(#filter1_d_507_1552)">
<path d="M99.4171 302.431C98.9752 301.502 98.185 300.788 97.2201 300.446C96.2553 300.104 95.1949 300.161 94.2722 300.606L94.0228 300.725C92.8525 301.29 91.9534 302.301 91.5233 303.535C91.0932 304.768 91.1672 306.123 91.7292 307.301L94.4308 313.389L100.324 326.788C100.423 327.245 104.743 336.446 104.743 336.446C103.601 336.026 102.314 335.533 101.117 335.044C98.3518 333.894 94.3991 334.132 92.0827 334.944C90.8588 335.368 90.052 335.957 89.6803 336.683C89.5541 336.924 89.4451 337.174 89.3539 337.431C88.7646 339.102 88.7737 341.333 90.197 342.283C90.8786 342.654 91.6348 342.867 92.4091 342.903C93.497 343.04 95.1742 342.954 96.8605 343.816C99.6981 345.226 106.176 348.316 109.961 349.804C110.636 349.881 112.264 350.456 112.916 350.484C114.979 350.735 116.724 351.063 117.418 351.365C117.957 351.602 120.527 351.666 120.527 351.666C122.708 351.926 126.221 351.447 129.725 349.754C133.229 348.06 136.524 346.732 137.884 343.51L138.015 343.446V343.259C138.704 341.589 139.039 339.793 138.996 337.985C138.954 336.177 138.537 334.398 137.771 332.763L135.622 328.263L130.06 316.602C129.684 315.808 128.247 313.239 125.645 313.512C124.527 313.637 123.5 314.193 122.78 315.064L122.585 315.174L122.522 315.21C122.061 314.605 121.428 314.155 120.708 313.921C119.987 313.686 119.213 313.677 118.487 313.896C117.801 314.064 117.156 314.372 116.593 314.802C116.03 315.231 115.561 315.772 115.215 316.392C113.764 315.196 111.951 315.087 110.092 316.182C109.474 316.548 108.937 317.038 108.515 317.621C108.092 318.205 107.793 318.869 107.635 319.573L102.889 309.629L99.4171 302.431Z" fill="#EDC8A9"/>
</g>
<path opacity="0.45" d="M324.442 194.514C323.703 192.97 322.57 191.65 321.158 190.686C319.745 189.722 318.103 189.149 316.398 189.025C314.694 188.902 312.986 189.232 311.45 189.981C309.913 190.731 308.602 191.875 307.648 193.296C306.695 194.716 306.134 196.365 306.021 198.073C305.908 199.781 306.249 201.489 307.007 203.023C307.766 204.557 308.915 205.863 310.34 206.809C311.765 207.755 313.414 208.307 315.12 208.408L312.518 202.514C311.97 201.372 311.898 200.058 312.317 198.862C312.737 197.667 313.613 196.687 314.754 196.138L314.997 196.023C315.896 195.592 316.929 195.536 317.87 195.868C318.81 196.2 319.58 196.892 320.011 197.793L323.338 204.731C324.459 203.303 325.157 201.588 325.352 199.781C325.547 197.975 325.232 196.15 324.442 194.514Z" fill="#FFFCDE"/>
<g filter="url(#filter2_d_507_1552)">
<path d="M319.417 196.431C318.975 195.502 318.185 194.788 317.22 194.446C316.255 194.104 315.195 194.161 314.272 194.606L314.023 194.725C312.853 195.29 311.953 196.301 311.523 197.535C311.093 198.768 311.167 200.123 311.729 201.301L314.431 207.389L320.324 220.788C320.423 221.245 324.743 230.446 324.743 230.446C323.601 230.026 322.314 229.533 321.117 229.044C318.352 227.894 314.399 228.132 312.083 228.944C310.859 229.368 310.052 229.957 309.68 230.683C309.554 230.924 309.445 231.174 309.354 231.431C308.765 233.102 308.774 235.333 310.197 236.283C310.879 236.654 311.635 236.867 312.409 236.903C313.497 237.04 315.174 236.954 316.86 237.816C319.698 239.226 326.176 242.316 329.961 243.804C330.636 243.881 332.264 244.456 332.916 244.484C334.979 244.735 336.724 245.063 337.418 245.365C337.957 245.602 340.527 245.666 340.527 245.666C342.708 245.926 346.221 245.447 349.725 243.754C353.229 242.06 356.524 240.732 357.884 237.51L358.015 237.446V237.259C358.704 235.589 359.039 233.793 358.996 231.985C358.954 230.177 358.537 228.398 357.771 226.763L355.622 222.263L350.06 210.602C349.684 209.808 348.247 207.239 345.645 207.512C344.527 207.637 343.5 208.193 342.78 209.064L342.585 209.174L342.522 209.21C342.061 208.605 341.428 208.155 340.708 207.921C339.987 207.686 339.213 207.677 338.487 207.896C337.801 208.064 337.156 208.372 336.593 208.802C336.03 209.231 335.561 209.772 335.215 210.392C333.764 209.196 331.951 209.087 330.092 210.182C329.474 210.548 328.937 211.038 328.515 211.621C328.092 212.205 327.793 212.869 327.635 213.573L322.889 203.629L319.417 196.431Z" fill="#EDC8A9"/>
</g>
<path opacity="0.45" d="M134.442 241.514C133.703 239.97 132.57 238.65 131.158 237.686C129.745 236.722 128.103 236.149 126.398 236.025C124.694 235.902 122.986 236.232 121.45 236.981C119.913 237.731 118.602 238.875 117.648 240.296C116.695 241.716 116.134 243.365 116.021 245.073C115.908 246.781 116.249 248.489 117.007 250.023C117.766 251.557 118.915 252.863 120.34 253.809C121.765 254.755 123.414 255.307 125.12 255.408L122.518 249.514C121.97 248.372 121.898 247.058 122.317 245.862C122.737 244.667 123.613 243.687 124.754 243.138L124.997 243.023C125.896 242.592 126.929 242.536 127.87 242.868C128.81 243.2 129.58 243.892 130.011 244.793L133.338 251.731C134.459 250.303 135.157 248.588 135.352 246.781C135.547 244.975 135.232 243.15 134.442 241.514Z" fill="#FFFCDE"/>
<g filter="url(#filter3_d_507_1552)">
<path d="M129.417 243.431C128.975 242.502 128.185 241.788 127.22 241.446C126.255 241.104 125.195 241.161 124.272 241.606L124.023 241.725C122.853 242.29 121.953 243.301 121.523 244.535C121.093 245.768 121.167 247.123 121.729 248.301L124.431 254.389L130.324 267.788C130.423 268.245 134.743 277.446 134.743 277.446C133.601 277.026 132.314 276.533 131.117 276.044C128.352 274.894 124.399 275.132 122.083 275.944C120.859 276.368 120.052 276.957 119.68 277.683C119.554 277.924 119.445 278.174 119.354 278.431C118.765 280.102 118.774 282.333 120.197 283.283C120.879 283.654 121.635 283.867 122.409 283.903C123.497 284.04 125.174 283.954 126.86 284.816C129.698 286.226 136.176 289.316 139.961 290.804C140.636 290.881 142.264 291.456 142.916 291.484C144.979 291.735 146.724 292.063 147.418 292.365C147.957 292.602 150.527 292.666 150.527 292.666C152.708 292.926 156.221 292.447 159.725 290.754C163.229 289.06 166.524 287.732 167.884 284.51L168.015 284.446V284.259C168.704 282.589 169.039 280.793 168.996 278.985C168.954 277.177 168.537 275.398 167.771 273.763L165.622 269.263L160.06 257.602C159.684 256.808 158.247 254.239 155.645 254.512C154.527 254.637 153.5 255.193 152.78 256.064L152.585 256.174L152.522 256.21C152.061 255.605 151.428 255.155 150.708 254.921C149.987 254.686 149.213 254.677 148.487 254.896C147.801 255.064 147.156 255.372 146.593 255.802C146.03 256.231 145.561 256.772 145.215 257.392C143.764 256.196 141.951 256.087 140.092 257.182C139.474 257.548 138.937 258.038 138.515 258.621C138.092 259.205 137.793 259.869 137.635 260.573L132.889 250.629L129.417 243.431Z" fill="#EDC8A9"/>
</g>
<circle cx="48.5" cy="345.5" r="13.5" fill="#E213FF"/>
<path d="M44.6494 353H52.6774V350.858H50.1754V339.68H48.2134C47.3494 340.202 46.4494 340.544 45.0994 340.796V342.434H47.5294V350.858H44.6494V353Z" fill="white"/>
<circle cx="93.5" cy="155.5" r="13.5" fill="#E213FF"/>
<path d="M89.6494 163H97.6774V160.858H95.1754V149.68H93.2134C92.3494 150.202 91.4494 150.544 90.0994 150.796V152.434H92.5294V160.858H89.6494V163Z" fill="white"/>
<circle cx="154.5" cy="155.5" r="13.5" fill="#E213FF"/>
<path d="M149.947 163H158.875V160.768H155.995C155.365 160.768 154.483 160.858 153.817 160.93C156.247 158.554 158.263 155.962 158.263 153.532C158.263 151.048 156.571 149.446 154.069 149.446C152.251 149.446 151.045 150.148 149.821 151.462L151.279 152.902C151.963 152.146 152.737 151.516 153.727 151.516C155.005 151.516 155.707 152.344 155.707 153.676C155.707 155.728 153.583 158.23 149.947 161.488V163Z" fill="white"/>
<circle cx="218.5" cy="155.5" r="13.5" fill="#E213FF"/>
<path d="M218.105 163.252C220.661 163.252 222.803 161.848 222.803 159.4C222.803 157.636 221.651 156.538 220.139 156.106V156.016C221.561 155.476 222.353 154.414 222.353 152.992C222.353 150.706 220.607 149.446 218.033 149.446C216.485 149.446 215.207 150.076 214.055 151.066L215.405 152.704C216.197 151.966 216.971 151.516 217.925 151.516C219.059 151.516 219.707 152.146 219.707 153.19C219.707 154.378 218.915 155.206 216.467 155.206V157.114C219.365 157.114 220.139 157.924 220.139 159.238C220.139 160.426 219.221 161.11 217.853 161.11C216.647 161.11 215.693 160.498 214.901 159.724L213.641 161.398C214.577 162.478 215.999 163.252 218.105 163.252Z" fill="white"/>
<circle cx="279.5" cy="155.5" r="13.5" fill="#E213FF"/>
<path d="M280.239 163H282.705V149.68H279.519L274.569 157.744V159.562H284.289V157.528H277.143L279.195 154.216C279.573 153.496 279.933 152.758 280.275 152.038H280.347C280.311 152.83 280.239 154.036 280.239 154.81V163Z" fill="white"/>
<circle cx="129.5" cy="348.5" r="13.5" fill="#E213FF"/>
<path d="M124.947 356H133.875V353.768H130.995C130.365 353.768 129.483 353.858 128.817 353.93C131.247 351.554 133.263 348.962 133.263 346.532C133.263 344.048 131.571 342.446 129.069 342.446C127.251 342.446 126.045 343.148 124.821 344.462L126.279 345.902C126.963 345.146 127.737 344.516 128.727 344.516C130.005 344.516 130.707 345.344 130.707 346.676C130.707 348.728 128.583 351.23 124.947 354.488V356Z" fill="white"/>
<circle cx="349.5" cy="242.5" r="13.5" fill="#E213FF"/>
<path d="M349.105 250.252C351.661 250.252 353.803 248.848 353.803 246.4C353.803 244.636 352.651 243.538 351.139 243.106V243.016C352.561 242.476 353.353 241.414 353.353 239.992C353.353 237.706 351.607 236.446 349.033 236.446C347.485 236.446 346.207 237.076 345.055 238.066L346.405 239.704C347.197 238.966 347.971 238.516 348.925 238.516C350.059 238.516 350.707 239.146 350.707 240.19C350.707 241.378 349.915 242.206 347.467 242.206V244.114C350.365 244.114 351.139 244.924 351.139 246.238C351.139 247.426 350.221 248.11 348.853 248.11C347.647 248.11 346.693 247.498 345.901 246.724L344.641 248.398C345.577 249.478 346.999 250.252 349.105 250.252Z" fill="white"/>
<circle cx="159.5" cy="289.5" r="13.5" fill="#E213FF"/>
<path d="M160.239 297H162.705V283.68H159.519L154.569 291.744V293.562H164.289V291.528H157.143L159.195 288.216C159.573 287.496 159.933 286.758 160.275 286.038H160.347C160.311 286.83 160.239 288.036 160.239 288.81V297Z" fill="white"/>
<g clip-path="url(#clip0_507_1552)">
<path d="M31.4416 41.3352C31.3307 41.4896 31.2513 41.6644 31.2081 41.8495C31.1648 42.0346 31.1585 42.2264 31.1895 42.4139C31.2205 42.6015 31.2881 42.7811 31.3886 42.9425C31.4891 43.1039 31.6204 43.244 31.7751 43.3547C33.0299 44.256 34.0026 45.4945 34.5801 46.9262C35.1577 48.3579 35.3163 49.9239 35.0375 51.4421C34.9675 51.8199 35.0505 52.2099 35.2682 52.5267C35.4859 52.8435 35.8206 53.061 36.1987 53.1316C36.5769 53.1997 36.9667 53.1157 37.2831 52.8979C37.5995 52.6801 37.8168 52.3461 37.8875 51.9689C38.2662 49.9102 38.0514 47.7864 37.2683 45.8449C36.4851 43.9033 35.1658 42.2239 33.4639 41.0021C33.3094 40.891 33.1344 40.8114 32.9489 40.768C32.7635 40.7246 32.5714 40.7182 32.3835 40.7491C32.1956 40.7801 32.0156 40.8478 31.854 40.9483C31.6924 41.0489 31.5522 41.1804 31.4416 41.3352ZM37.0447 36.2787C36.7343 36.0522 36.3465 35.9582 35.9667 36.0172C35.5868 36.0763 35.2461 36.2836 35.0193 36.5936C34.7925 36.9035 34.6984 37.2908 34.7575 37.6701C34.8166 38.0494 35.0242 38.3897 35.3346 38.6162C37.5174 40.2173 39.1926 42.4119 40.1604 44.938C41.1281 47.4641 41.3474 50.2149 40.7922 52.8621C40.7118 53.2379 40.7841 53.6303 40.9934 53.9528C41.2026 54.2753 41.5316 54.5016 41.9079 54.5819C42.2843 54.6622 42.6771 54.59 43.0001 54.381C43.3231 54.172 43.5497 53.8435 43.6301 53.4677C44.3029 50.2736 44.0395 46.9535 42.8716 43.9049C41.7036 40.8564 39.6806 38.2086 37.0447 36.2787Z" fill="white"/>
<path d="M23.1279 37.2475L17.6704 46.3855L12.2128 48.5353C11.9774 48.629 11.7628 48.7681 11.5813 48.9447C11.3997 49.1213 11.2549 49.3319 11.1549 49.5645C11.0549 49.7971 11.0018 50.047 10.9987 50.3001C10.9955 50.5531 11.0423 50.8043 11.1365 51.0393L14.6839 60.0199C14.7772 60.2559 14.9162 60.4712 15.0929 60.6536C15.2695 60.836 15.4805 60.9818 15.7136 61.0828C15.9467 61.1837 16.1975 61.2378 16.4516 61.2419C16.7056 61.246 16.958 61.2002 17.1943 61.1068L22.6519 58.9601L32.8727 61.9183C33.2198 62.0197 33.5884 62.0217 33.9366 61.9241C34.2848 61.8265 34.5986 61.6332 34.8422 61.3663C35.0858 61.0993 35.2495 60.7694 35.3146 60.4142C35.3796 60.0589 35.3435 59.6925 35.2103 59.3568L26.5813 37.514C26.4472 37.18 26.2222 36.8901 25.9317 36.6772C25.6412 36.4642 25.2968 36.3367 24.9376 36.309C24.5783 36.2812 24.2184 36.3544 23.8986 36.5203C23.5788 36.6862 23.3118 36.9381 23.1279 37.2475Z" fill="white"/>
</g>
<path d="M48.9999 46.4432L80.4388 34.9541L72.872 57.2026C67.2204 50.5273 59.8875 50.1462 48.9999 46.4432Z" fill="white"/>
<path d="M296.834 64.9667C296.834 74.5757 271.425 74.1838 258.886 74.04C193.084 71.9207 150.3 79.2249 88.3242 70.9213C66.1853 66.6898 66.2197 61.285 67.4084 44.5757C68.1533 34.2427 62.8615 14.2352 76.7252 7.2151C81.0371 5.03172 87.8082 2.8212 97.576 2.90881C107.344 2.99643 109.11 3.06944 123.279 2.8212C125.828 2.84576 128.414 2.51709 130.947 2.33888C133.48 2.16066 136.162 1.97702 138.764 1.8095C143.978 1.47923 149.195 1.19553 154.417 0.958436C175.16 0.00654017 195.93 -0.236301 216.727 0.229893C227.194 0.461076 237.648 0.86936 248.088 1.45472C253.306 1.74538 258.519 2.08369 263.729 2.46964C268.707 2.83768 273.875 3.02623 278.772 3.80045C282.306 4.35942 285.611 5.52986 288.413 7.21512C291.215 8.90038 293.434 11.0521 294.887 13.4927C304.175 28.9424 298.249 48.5696 296.834 64.9667Z" fill="white"/>
<path d="M99.525 54.56C105.245 54.56 110.285 50.68 110.285 44C110.285 37.56 106.045 34.6 101.005 34.6C99.885 34.6 99.005 34.76 97.925 35.2L98.365 30.16H108.965V24.2H92.245L91.485 38.96L94.605 41C96.365 39.88 97.165 39.56 98.805 39.56C101.365 39.56 103.165 41.16 103.165 44.16C103.165 47.24 101.365 48.8 98.485 48.8C96.125 48.8 94.045 47.56 92.365 45.96L89.125 50.44C91.485 52.76 94.765 54.56 99.525 54.56ZM199.66 54H206.82C207.34 42.36 208.06 36.72 214.94 28.56V24.2H194.54V30.16H207.34C201.74 37.92 200.22 44.2 199.66 54Z" fill="#26B7BC"/>
<path d="M139.74 20.52C138.58 26.08 136.22 31.64 133.06 34.84C134.58 35.48 137.46 36.88 138.7 37.76C141.66 34.04 144.34 28 145.82 21.68L139.74 20.52ZM141.26 26.24L139.54 31.96H168.66V26.24H141.26ZM134.1 39.12V44.88H171.02V39.12H134.1ZM149.98 19.8V57.8H156.18V19.8H149.98ZM253.115 19.92C250.075 20.76 245.715 21.52 241.835 21.96C242.355 23.08 242.955 24.84 243.115 25.96C247.115 25.72 251.955 25.16 255.835 24.24L253.115 19.92ZM241.835 21.96V35.48H247.555V22.96L241.835 21.96ZM241.835 33.16V37.56H272.515V21.36H258.515V25.76H266.755V33.16H241.835ZM245.155 27.2V31.48H256.355V27.2H245.155ZM257.795 27.2V31.48H268.435V27.2H257.795ZM264.835 38.4C264.915 50.12 265.995 57.68 271.195 57.68C274.155 57.68 275.595 56.24 275.995 51C274.795 50.6 273.315 49.68 272.315 48.72C272.235 51.2 272.035 52.2 271.635 52.2C270.795 52.2 270.155 47.2 270.515 38.4H264.835ZM242.435 57.32C242.435 55.64 247.595 53.04 247.595 53.04V38.4H242.115V49.96C242.115 51.68 241.315 52.56 240.475 53.04C241.235 53.96 242.155 56.12 242.435 57.32ZM242.435 57.32C243.395 56.84 244.955 56.48 252.115 55.76C252.035 54.56 252.035 52.52 252.195 51.08L244.555 51.64L242.235 53.2L242.435 57.32ZM254.195 57.52C254.195 55.84 259.155 53.2 259.155 53.2V38.4H253.915V50.08C253.915 51.88 253.035 52.84 252.195 53.32C252.915 54.24 253.915 56.32 254.195 57.52ZM254.195 57.52C255.195 57.04 256.795 56.72 264.915 55.88C264.835 54.76 264.835 52.8 264.995 51.44L256.275 52.12L254.035 53.6L254.195 57.52ZM245.595 39.88V43.92H252.995V39.88H245.595ZM245.635 45.36V49.4H253.035V45.36H245.635ZM256.755 40.16V44.2H264.155V40.16H256.755ZM257.075 45.76V49.8H264.475V45.76H257.075Z" fill="#EB4452"/>
<path d="M319.06 39.96V41.68H328.42V39.96H319.06ZM318.84 48.78V50.54H328.56V48.78H318.84ZM329.96 39.64V41.7H335.18V39.64H329.96ZM322.84 38.9V52.8H324.84V38.9H322.84ZM329.06 39.64V49.2C329.06 51.66 329.74 52.32 331.9 52.32C332.36 52.32 334.22 52.32 334.72 52.32C336.62 52.32 337.24 51.46 337.5 48.64C336.86 48.5 335.94 48.12 335.42 47.76C335.34 49.76 335.2 50.18 334.52 50.18C334.1 50.18 332.58 50.18 332.22 50.18C331.46 50.18 331.34 50.04 331.34 49.18V39.64H329.06ZM333.98 39.64V45.3C333.98 45.52 333.92 45.58 333.66 45.6C333.4 45.6 332.56 45.6 331.78 45.56C332.08 46.16 332.46 47.12 332.58 47.78C333.8 47.78 334.7 47.74 335.38 47.36C336.1 47 336.28 46.36 336.28 45.36V39.64H333.98ZM321.5 45.88H326.04V46.68H321.5V45.88ZM321.5 43.74H326.04V44.54H321.5V43.74ZM319.64 42.32V48.12H328.02V42.32H319.64ZM321.46 35.22V37.06H327.74V35.22H321.46ZM329.74 35.24V37.06H337.24V35.24H329.74ZM321.58 33.84C320.96 35.42 319.84 37 318.68 38.04C319.14 38.42 319.94 39.26 320.28 39.68C321.56 38.4 322.9 36.4 323.7 34.46L321.58 33.84ZM329.86 33.84C329.34 35.5 328.38 37.18 327.24 38.24C327.76 38.56 328.64 39.26 329.04 39.64C330.24 38.38 331.4 36.38 332.04 34.38L329.86 33.84ZM322.76 37.72C323.48 38.34 324.4 39.22 324.82 39.8L326.32 38.4C325.86 37.84 324.92 37.02 324.18 36.48L322.76 37.72ZM331.48 37.78C332.2 38.32 333.1 39.14 333.52 39.68L335.12 38.28C334.66 37.76 333.72 37 333.02 36.5L331.48 37.78ZM344.22 34.9V37H351.34V34.9H344.22ZM346.24 39.16L345.58 41.24H349.64V39.16H346.24ZM345 44.66C345.8 45.28 346.78 46.16 347.22 46.76L348.28 44.74C347.82 44.2 346.82 43.4 346.02 42.86L345 44.66ZM351.2 36.34V48.06H353.32V36.34H351.2ZM354.56 34.4V50.08C354.56 50.4 354.44 50.5 354.12 50.52C353.76 50.52 352.74 50.52 351.64 50.48C351.96 51.14 352.28 52.18 352.38 52.82C353.96 52.82 355.08 52.74 355.82 52.36C356.54 51.98 356.78 51.36 356.78 50.08V34.4H354.56ZM345.7 35.64C345.38 38.7 344.58 42.66 342.72 44.9C343.16 45.3 343.82 46.1 344.14 46.58C346.36 43.98 347.4 39.62 347.98 35.96L345.7 35.64ZM348.74 39.16V39.62C348.18 45.12 346.4 49 343.52 50.96C343.98 51.32 344.7 52.26 345.02 52.8C348.1 50.56 350.2 46.02 350.92 39.5L349.54 39.08L349.16 39.16H348.74ZM342.18 34.04C341.32 36.96 339.84 39.88 338.22 41.78C338.6 42.4 339.18 43.78 339.38 44.36C341.42 41.98 343.26 38.2 344.4 34.7L342.18 34.04ZM340.6 39.54V52.78H342.8V37.44L342.74 37.4L340.6 39.54Z" fill="white"/>
<rect x="308.5" y="23.5" width="59" height="39" stroke="white"/>
<defs>
<filter id="filter0_d_507_1552" x="0.98584" y="289.225" width="70.0142" height="71.5068" filterUnits="userSpaceOnUse" color-interpolation-filters="sRGB">
<feFlood flood-opacity="0" result="BackgroundImageFix"/>
<feColorMatrix in="SourceAlpha" type="matrix" values="0 0 0 0 0 0 0 0 0 0 0 0 0 0 0 0 0 0 127 0" result="hardAlpha"/>
<feOffset dx="3" dy="2"/>
<feGaussianBlur stdDeviation="5"/>
<feColorMatrix type="matrix" values="0 0 0 0 0 0 0 0 0 0 0 0 0 0 0 0 0 0 0.25 0"/>
<feBlend mode="normal" in2="BackgroundImageFix" result="effect1_dropShadow_507_1552"/>
<feBlend mode="normal" in="SourceGraphic" in2="effect1_dropShadow_507_1552" result="shape"/>
</filter>
<filter id="filter1_d_507_1552" x="81.9858" y="292.225" width="70.0142" height="71.5068" filterUnits="userSpaceOnUse" color-interpolation-filters="sRGB">
<feFlood flood-opacity="0" result="BackgroundImageFix"/>
<feColorMatrix in="SourceAlpha" type="matrix" values="0 0 0 0 0 0 0 0 0 0 0 0 0 0 0 0 0 0 127 0" result="hardAlpha"/>
<feOffset dx="3" dy="2"/>
<feGaussianBlur stdDeviation="5"/>
<feColorMatrix type="matrix" values="0 0 0 0 0 0 0 0 0 0 0 0 0 0 0 0 0 0 0.25 0"/>
<feBlend mode="normal" in2="BackgroundImageFix" result="effect1_dropShadow_507_1552"/>
<feBlend mode="normal" in="SourceGraphic" in2="effect1_dropShadow_507_1552" result="shape"/>
</filter>
<filter id="filter2_d_507_1552" x="301.986" y="186.225" width="70.0142" height="71.5068" filterUnits="userSpaceOnUse" color-interpolation-filters="sRGB">
<feFlood flood-opacity="0" result="BackgroundImageFix"/>
<feColorMatrix in="SourceAlpha" type="matrix" values="0 0 0 0 0 0 0 0 0 0 0 0 0 0 0 0 0 0 127 0" result="hardAlpha"/>
<feOffset dx="3" dy="2"/>
<feGaussianBlur stdDeviation="5"/>
<feColorMatrix type="matrix" values="0 0 0 0 0 0 0 0 0 0 0 0 0 0 0 0 0 0 0.25 0"/>
<feBlend mode="normal" in2="BackgroundImageFix" result="effect1_dropShadow_507_1552"/>
<feBlend mode="normal" in="SourceGraphic" in2="effect1_dropShadow_507_1552" result="shape"/>
</filter>
<filter id="filter3_d_507_1552" x="111.986" y="233.225" width="70.0142" height="71.5068" filterUnits="userSpaceOnUse" color-interpolation-filters="sRGB">
<feFlood flood-opacity="0" result="BackgroundImageFix"/>
<feColorMatrix in="SourceAlpha" type="matrix" values="0 0 0 0 0 0 0 0 0 0 0 0 0 0 0 0 0 0 127 0" result="hardAlpha"/>
<feOffset dx="3" dy="2"/>
<feGaussianBlur stdDeviation="5"/>
<feColorMatrix type="matrix" values="0 0 0 0 0 0 0 0 0 0 0 0 0 0 0 0 0 0 0.25 0"/>
<feBlend mode="normal" in2="BackgroundImageFix" result="effect1_dropShadow_507_1552"/>
<feBlend mode="normal" in="SourceGraphic" in2="effect1_dropShadow_507_1552" result="shape"/>
</filter>
<clipPath id="clip0_507_1552">
<rect width="33" height="26" fill="white" transform="translate(11 36)"/>
</clipPath>
</defs>
</svg>
