<?xml version="1.0" encoding="UTF-8"?>
<svg id="_層_1" data-name="圖層 1" xmlns="http://www.w3.org/2000/svg" xmlns:xlink="http://www.w3.org/1999/xlink" viewBox="0 0 190 198">
  <defs>
    <style>
      .cls-1 {
        stroke: #d9d9d9;
        stroke-dasharray: 0 0 2.18 2.18;
        stroke-width: 1.09px;
      }

      .cls-1, .cls-2 {
        fill: none;
      }

      .cls-3 {
        fill: #fff;
      }

      .cls-4 {
        fill: #cf8289;
      }

      .cls-5 {
        fill: #eecd4d;
      }

      .cls-6 {
        fill: #22aeb4;
      }

      .cls-7 {
        clip-path: url(#clippath);
      }
    </style>
    <clipPath id="clippath">
      <rect class="cls-2" x="20" y="18" width="150" height="154"/>
    </clipPath>
  </defs>
  <g class="cls-7">
    <g>
      <path class="cls-5" d="M41.59,61.01c11.92,0,21.59-9.63,21.59-21.51s-9.67-21.51-21.59-21.51-21.59,9.63-21.59,21.51,9.67,21.51,21.59,21.51Z"/>
      <path class="cls-4" d="M51.24,73.24c11.92,0,21.59-9.63,21.59-21.51s-9.67-21.51-21.59-21.51-21.59,9.63-21.59,21.51,9.67,21.51,21.59,21.51Z"/>
      <path class="cls-6" d="M60.89,85.47c11.92,0,21.59-9.63,21.59-21.51s-9.67-21.51-21.59-21.51-21.59,9.63-21.59,21.51,9.67,21.51,21.59,21.51Z"/>
      <path class="cls-5" d="M129.11,61.01c11.92,0,21.59-9.63,21.59-21.51s-9.67-21.51-21.59-21.51-21.59,9.63-21.59,21.51,9.67,21.51,21.59,21.51Z"/>
      <path class="cls-6" d="M138.76,73.24c11.92,0,21.59-9.63,21.59-21.51s-9.67-21.51-21.59-21.51-21.59,9.63-21.59,21.51,9.67,21.51,21.59,21.51Z"/>
      <path class="cls-4" d="M148.41,85.47c11.92,0,21.59-9.63,21.59-21.51s-9.67-21.51-21.59-21.51-21.59,9.63-21.59,21.51,9.67,21.51,21.59,21.51Z"/>
      <path class="cls-5" d="M144.49,116.75h-36.97v36.83h36.97v-36.83Z"/>
      <path class="cls-6" d="M157.24,125.96h-36.97v36.83h36.97v-36.83Z"/>
      <path class="cls-4" d="M170,135.17h-36.97v36.83h36.97v-36.83Z"/>
      <path class="cls-3" d="M48.98,145.8h9.3c-.78-7.92,9.48-10.38,9.48-18.72s-5.76-11.88-13.26-11.88c-5.4,0-9.96,2.52-13.26,6.3l5.88,5.4c1.86-1.86,3.6-3.12,6.06-3.12s4.32,1.32,4.32,4.02c0,4.92-9.96,8.76-8.52,18Zm4.62,17.04c3.66,0,6.36-2.94,6.36-6.66s-2.7-6.6-6.36-6.6-6.36,2.88-6.36,6.6,2.64,6.66,6.36,6.66Z"/>
    </g>
  </g>
  <rect class="cls-1" x=".55" y=".55" width="188.91" height="188.91" rx="21.29" ry="21.29"/>
</svg>