<svg width="10" height="10" viewBox="0 0 10 10" fill="none" xmlns="http://www.w3.org/2000/svg">
<path d="M5.6529 4.65179C5.71243 4.71131 5.74219 4.77976 5.74219 4.85714C5.74219 4.93452 5.71243 5.00298 5.6529 5.0625L1.49219 9.22321C1.43266 9.28274 1.36421 9.3125 1.28683 9.3125C1.20945 9.3125 1.141 9.28274 1.08147 9.22321L0.635045 8.77679C0.575521 8.71726 0.545759 8.64881 0.545759 8.57143C0.545759 8.49405 0.575521 8.4256 0.635045 8.36607L4.14397 4.85714L0.635045 1.34821C0.575521 1.28869 0.545759 1.22024 0.545759 1.14286C0.545759 1.06548 0.575521 0.997023 0.635045 0.9375L1.08147 0.491071C1.141 0.431547 1.20945 0.401785 1.28683 0.401785C1.36421 0.401785 1.43266 0.431547 1.49219 0.491071L5.6529 4.65179ZM9.08147 4.65179C9.141 4.71131 9.17076 4.77976 9.17076 4.85714C9.17076 4.93452 9.141 5.00298 9.08147 5.0625L4.92076 9.22321C4.86124 9.28274 4.79278 9.3125 4.7154 9.3125C4.63802 9.3125 4.56957 9.28274 4.51005 9.22321L4.06362 8.77679C4.00409 8.71726 3.97433 8.64881 3.97433 8.57143C3.97433 8.49405 4.00409 8.4256 4.06362 8.36607L7.57255 4.85714L4.06362 1.34821C4.00409 1.28869 3.97433 1.22024 3.97433 1.14286C3.97433 1.06548 4.00409 0.997023 4.06362 0.9375L4.51005 0.491071C4.56957 0.431547 4.63802 0.401785 4.7154 0.401785C4.79278 0.401785 4.86124 0.431547 4.92076 0.491071L9.08147 4.65179Z" fill="white"/>
</svg>
